<?xml version="1.0" encoding="UTF-8" standalone="no"?>
<!-- Generator: Adobe Illustrator 22.0.0, SVG Export Plug-In . SVG Version: 6.00 Build 0)  -->

<svg
   xmlns:dc="http://purl.org/dc/elements/1.1/"
   xmlns:cc="http://creativecommons.org/ns#"
   xmlns:rdf="http://www.w3.org/1999/02/22-rdf-syntax-ns#"
   xmlns:svg="http://www.w3.org/2000/svg"
   xmlns="http://www.w3.org/2000/svg"
   xmlns:sodipodi="http://sodipodi.sourceforge.net/DTD/sodipodi-0.dtd"
   xmlns:inkscape="http://www.inkscape.org/namespaces/inkscape"
   version="1.1"
   id="Layer_1"
   x="0px"
   y="0px"
   viewBox="0 0 170 292.74999"
   xml:space="preserve"
   sodipodi:docname="logo-footer.svg"
   inkscape:version="0.92.2 (5c3e80d, 2017-08-06)"
   width="170"
   height="292.75"><metadata
     id="metadata211"><rdf:RDF><cc:Work
         rdf:about=""><dc:format>image/svg+xml</dc:format><dc:type
           rdf:resource="http://purl.org/dc/dcmitype/StillImage" /><dc:title></dc:title></cc:Work></rdf:RDF></metadata><defs
     id="defs209" /><sodipodi:namedview
     pagecolor="#ffffff"
     bordercolor="#666666"
     borderopacity="1"
     objecttolerance="10"
     gridtolerance="10"
     guidetolerance="10"
     inkscape:pageopacity="0"
     inkscape:pageshadow="2"
     inkscape:window-width="1920"
     inkscape:window-height="1016"
     id="namedview207"
     showgrid="false"
     inkscape:zoom="1.419907"
     inkscape:cx="163.23673"
     inkscape:cy="171.16167"
     inkscape:window-x="0"
     inkscape:window-y="27"
     inkscape:window-maximized="1"
     inkscape:current-layer="g213" /><style
     type="text/css"
     id="style2">
	.st0{fill:#FFFFFF;}
</style><g
     id="g213"
     transform="translate(-51.5,-513.04999)"><g
       id="g1241"><rect
         ry="29.176964"
         rx="29.176964"
         x="51.5"
         y="513.04999"
         width="170"
         height="292.75"
         id="rect4"
         style="display:inline;fill:#009246;fill-opacity:1;stroke:none;stroke-width:1.07142854;stroke-linecap:round;stroke-linejoin:round;stroke-miterlimit:4;stroke-dasharray:none;stroke-opacity:1" /><g
         transform="matrix(0.35714286,0,0,0.35714286,33.107143,510.08569)"
         id="g52"><path
           style="fill:#ffffff"
           inkscape:connector-curvature="0"
           id="path38"
           d="m 149.3,601.2 -7.3,4.1 c -1.4,-2.2 -2.7,-3.7 -3.9,-4.3 -1.3,-0.8 -3,-1.2 -5,-1.2 -2.5,0 -4.6,0.7 -6.2,2 -1.7,1.3 -2.5,2.9 -2.5,4.9 0,2.7 2.2,4.9 6.5,6.6 l 6,2.3 c 4.9,1.8 8.4,4.1 10.7,6.7 2.2,2.6 3.4,5.9 3.4,9.7 0,5.1 -1.8,9.4 -5.5,12.7 -3.7,3.4 -8.3,5.1 -13.7,5.1 -5.2,0 -9.5,-1.4 -12.9,-4.3 -3.3,-2.9 -5.4,-6.9 -6.2,-12.1 l 9.1,-1.9 c 0.4,3.3 1.1,5.6 2.2,6.8 1.9,2.4 4.6,3.6 8.1,3.6 2.8,0 5.2,-0.9 7,-2.6 1.9,-1.8 2.8,-4 2.8,-6.7 0,-1.1 -0.2,-2.1 -0.5,-3 -0.3,-0.9 -0.8,-1.7 -1.5,-2.5 -0.7,-0.8 -1.6,-1.5 -2.6,-2.1 -1.1,-0.7 -2.4,-1.3 -3.9,-1.9 l -5.8,-2.2 c -8.2,-3.2 -12.3,-8 -12.3,-14.2 0,-4.2 1.7,-7.7 5.2,-10.5 3.4,-2.8 7.7,-4.3 12.8,-4.3 6.7,-0.1 12.1,3 16,9.3 z"
           class="st0" /><path
           style="fill:#ffffff"
           inkscape:connector-curvature="0"
           id="path40"
           d="m 180.7,600.8 v 48 h -9 v -48 H 158 v -7.9 h 36.5 v 7.9 z"
           class="st0" /><path
           style="fill:#ffffff"
           inkscape:connector-curvature="0"
           id="path42"
           d="m 235.8,635.2 h -25.6 l -6.7,13.6 h -9.7 l 29.6,-59.4 28.5,59.4 H 242 Z m -3.7,-7.9 -8.9,-19 -9.3,19 z"
           class="st0" /><path
           style="fill:#ffffff"
           inkscape:connector-curvature="0"
           id="path44"
           d="m 274,600.8 v 48 h -9 v -48 h -13.7 v -7.9 h 36.5 v 7.9 z"
           class="st0" /><path
           style="fill:#ffffff"
           inkscape:connector-curvature="0"
           id="path46"
           d="m 330.2,600.8 h -24 v 13.4 h 23.3 v 7.9 h -23.3 v 18.7 h 24 v 7.9 h -33 v -55.9 h 33 z"
           class="st0" /><path
           style="fill:#ffffff"
           inkscape:connector-curvature="0"
           id="path48"
           d="m 366.4,620.6 c 0,-7.9 3.1,-14.6 9.3,-20.3 6.1,-5.6 13.5,-8.5 22.2,-8.5 8.5,0 15.8,2.8 21.9,8.5 6.1,5.7 9.2,12.5 9.2,20.5 0,8 -3.1,14.9 -9.2,20.5 -6.2,5.6 -13.6,8.4 -22.3,8.4 -7.7,0 -14.7,-2.5 -20.8,-7.5 -6.9,-5.4 -10.3,-12.7 -10.3,-21.6 z m 9.1,0.1 c 0,6.2 2.2,11.3 6.7,15.2 4.4,4 9.5,6 15.3,6 6.3,0 11.6,-2 15.9,-6.1 4.3,-4.1 6.5,-9.1 6.5,-15 0,-6 -2.1,-11 -6.4,-15 -4.2,-4.1 -9.5,-6.1 -15.7,-6.1 -6.2,0 -11.5,2 -15.8,6.1 -4.3,4 -6.5,9 -6.5,14.9 z"
           class="st0" /><path
           style="fill:#ffffff"
           inkscape:connector-curvature="0"
           id="path50"
           d="m 471.6,600.8 h -20.8 v 13.4 h 20.1 v 7.9 h -20.1 v 26.6 h -9 v -55.9 h 29.9 v 8 z"
           class="st0" /></g><g
         transform="matrix(0.35714286,0,0,0.35714286,33.107143,510.08569)"
         id="g66"><path
           style="fill:#ffffff"
           inkscape:connector-curvature="0"
           id="path54"
           d="m 140.2,684.8 v 48 h -9 v -48 h -13.7 v -7.9 H 154 v 7.9 z"
           class="st0" /><path
           style="fill:#ffffff"
           inkscape:connector-curvature="0"
           id="path56"
           d="m 172.4,698.7 h 25.8 v -21.9 h 9 v 55.9 h -9 v -26.1 h -25.8 v 26.1 h -9 v -55.9 h 9 z"
           class="st0" /><path
           style="fill:#ffffff"
           inkscape:connector-curvature="0"
           id="path58"
           d="m 256,684.8 h -24 v 13.4 h 23.3 v 7.9 H 232 v 18.7 h 24 v 7.9 h -33 v -55.9 h 33 z"
           class="st0" /><path
           style="fill:#ffffff"
           inkscape:connector-curvature="0"
           id="path60"
           d="m 293.1,732.8 12.6,-60.1 20.5,43.4 21.3,-43.4 11.3,60.1 h -9.3 l -5.8,-33.7 -17.7,36.3 -17.1,-36.4 -6.4,33.8 z"
           class="st0" /><path
           style="fill:#ffffff"
           inkscape:connector-curvature="0"
           id="path62"
           d="m 408,719.2 h -25.6 l -6.7,13.6 H 366 l 29.6,-59.4 28.5,59.4 h -9.9 z m -3.7,-7.9 -8.9,-19 -9.3,19 z"
           class="st0" /><path
           style="fill:#ffffff"
           inkscape:connector-curvature="0"
           id="path64"
           d="m 442.1,710.1 v 22.7 h -9 v -55.9 h 10.2 c 5,0 8.8,0.3 11.4,1 2.6,0.7 4.9,1.9 6.8,3.7 3.4,3.1 5.1,7.1 5.1,11.9 0,5.1 -1.8,9.2 -5.5,12.2 -3.7,3 -8.6,4.5 -14.8,4.5 h -4.2 z m 0,-7.8 h 3.4 c 8.3,0 12.4,-3 12.4,-8.9 0,-5.8 -4.3,-8.7 -12.8,-8.7 h -3 z"
           class="st0" /></g><path
         class="st0"
         d="m 136.57143,705.08569 c -0.60714,-0.71428 -1.21429,-1.5 -1.92857,-2.17857 -3.75,-3.67857 -7.53572,-7.28571 -11.28572,-10.96428 -2.89285,-2.78572 -5.75,-5.60715 -8.64285,-8.39286 -4.60715,-4.46429 -9.25,-8.92857 -13.85715,-13.42857 C 94.392858,663.76426 87.892858,657.40712 81.500001,650.94284 76.25,645.62141 72,639.54998 68.607143,632.87141 c -3.357143,-6.67857 -5.75,-13.64286 -6.964285,-21 -0.535715,-3.17857 -0.857143,-6.42858 -1.035715,-9.64286 -0.178571,-3.10714 -0.214285,-6.25 0.03571,-9.35714 0.25,-3.10715 0.75,-6.25 1.392857,-9.32143 2.642857,-12.89286 8.321428,-24.32143 17,-34.17858 10.857143,-12.32143 24.28571,-20.35714 40.32143,-23.96428 6.92857,-1.57143 13.96428,-2.10715 21.07142,-1.60715 16.46429,1.14286 31.07143,6.92858 43.67857,17.60715 12.71429,10.75 20.96429,24.32143 24.78572,40.53571 1.67857,7.17858 2.21428,14.46429 1.75,21.78572 -1,14.82143 -5.96429,28.14286 -14.78572,40.07143 -2.39285,3.21428 -5.07142,6.14286 -7.89285,9 -7.10715,7.21428 -14.17857,14.46428 -21.25,21.71428 -3.5,3.57143 -7.03572,7.17858 -10.53572,10.75 -5.71428,5.85715 -11.42857,11.71429 -17.17857,17.57143 -0.78571,0.75 -1.60714,1.46429 -2.42857,2.25 z m -0.0357,-10.07143 c 0.21428,-0.21428 0.39285,-0.39285 0.57142,-0.57142 3.10715,-3.17858 6.21429,-6.35715 9.32143,-9.57143 4.96429,-5.07143 9.96429,-10.17857 14.92857,-15.25 7.28572,-7.42857 14.57143,-14.85715 21.85715,-22.25 4.82143,-4.89286 8.78571,-10.39286 11.92857,-16.5 4.46428,-8.71429 6.85714,-17.96429 7.25,-27.75 0.32143,-7.85715 -0.71429,-15.57143 -3.14286,-23.03572 -4.71428,-14.39286 -13.32143,-25.92857 -25.75,-34.57143 -9.78571,-6.78571 -20.64286,-10.57143 -32.5,-11.53571 -6.85714,-0.57143 -13.60714,-0.10715 -20.28571,1.5 -15.78572,3.75 -28.607147,12.07143 -38.357147,25 -8.535714,11.28571 -12.964285,24.07143 -13.357143,38.25 0,0.32143 -0.03571,0.64286 -0.03571,0.96428 -0.07143,4.07143 0.214286,8.10715 0.928572,12.10715 1.142857,6.60714 3.214285,12.92857 6.25,18.92857 2.964285,5.82143 6.607143,11.21429 11.214285,15.82143 7.928572,7.96428 15.999993,15.82143 23.999993,23.67857 5.46429,5.35714 11,10.67857 16.46429,16.03571 2.60714,2.53572 5.17857,5.10715 7.78571,7.67858 0.28572,0.32142 0.57143,0.67857 0.92858,1.07142 z"
         id="path70"
         inkscape:connector-curvature="0"
         style="fill:#ffffff;stroke-width:0.35714287" /><path
         d="m 136.53572,695.01426 c -0.35715,-0.39285 -0.64286,-0.75 -0.96429,-1.10714 -2.60714,-2.57143 -5.17857,-5.14286 -7.78571,-7.67857 -5.5,-5.35714 -11,-10.67857 -16.46429,-16.03571 -8.03572,-7.85715 -16.071429,-15.71429 -24.000001,-23.67858 -4.607143,-4.64285 -8.25,-10 -11.214286,-15.82142 -3.035714,-6 -5.142857,-12.28572 -6.25,-18.92858 -0.678571,-4 -1,-8.03571 -0.928571,-12.10714 0,-0.32143 0,-0.64286 0.03571,-0.96429 0.392857,-14.17857 4.821429,-26.96428 13.357143,-38.25 9.75,-12.92857 22.607145,-21.25 38.357145,-25 6.67857,-1.57143 13.46429,-2.03571 20.28572,-1.5 11.85714,0.96429 22.71428,4.78572 32.5,11.53572 12.42857,8.60714 21.03571,20.17857 25.75,34.57143 2.46428,7.46428 3.46428,15.17857 3.14285,23.03571 -0.39285,9.78572 -2.78571,19.03572 -7.25,27.75 -3.10714,6.10715 -7.10714,11.60715 -11.92857,16.5 -7.28571,7.42857 -14.57143,14.85715 -21.85714,22.25 -4.96429,5.07143 -9.96429,10.17857 -14.92857,15.25 -3.10714,3.17857 -6.21429,6.35715 -9.32143,9.57143 -0.14286,0.21429 -0.32143,0.39286 -0.53571,0.60714 z m 0.14285,-4.03571 c 0.10715,-0.14286 0.25,-0.39286 0.46429,-0.60714 4.92857,-5.07143 9.85714,-10.10715 14.82143,-15.17857 3.46428,-3.53572 6.92857,-7.07143 10.39285,-10.60715 5.67858,-5.82143 11.32143,-11.71428 17.10715,-17.42857 5.10714,-5.07143 9.42857,-10.64286 12.67857,-17.03571 4.89286,-9.64286 7.25,-19.85715 6.89286,-30.67858 -0.10715,-3.25 -0.35715,-6.46428 -0.96429,-9.64285 -3.07143,-16 -11,-29.07143 -23.92857,-38.92858 -14.64286,-11.14285 -31.17857,-15.07143 -49.25,-12.14285 -12.10714,1.96428 -22.78572,7.17857 -31.821431,15.5 -12.785714,11.75 -19.714286,26.32143 -20.785714,43.64286 -0.321429,5.07142 0.03571,10.10714 1,15.10714 2.285714,11.96429 7.5,22.42857 15.821428,31.28571 4.535715,4.82143 9.321429,9.39286 13.999997,14.03572 3.75,3.71428 7.60715,7.35714 11.39286,11.03571 4.67857,4.53572 9.32143,9.03572 14,13.57143 2.71429,2.67857 5.39286,5.32143 8.17857,8.07143 z"
         id="path72"
         inkscape:connector-curvature="0"
         style="display:inline;fill:#ce2b37;fill-opacity:1;stroke-width:0.35714287" /><path
         class="st0"
         d="m 136.67857,690.97855 c -2.78571,-2.75 -5.46428,-5.39286 -8.17857,-8 -4.64286,-4.53571 -9.32143,-9.07143 -14,-13.57143 -3.78571,-3.67857 -7.60714,-7.32143 -11.39286,-11.03571 -4.714282,-4.64286 -9.499997,-9.21429 -13.999997,-14.03572 -8.285714,-8.85714 -13.535714,-19.35714 -15.821428,-31.28571 -0.964286,-5 -1.321429,-10.03572 -1,-15.10715 1.071428,-17.32142 8,-31.92857 20.785714,-43.64285 9.035711,-8.28572 19.714291,-13.53572 31.821431,-15.50001 18.07143,-2.92857 34.60714,1 49.17857,12.14286 C 187,560.79998 194.92857,573.87141 198,589.87141 c 0.60714,3.17857 0.85714,6.39285 0.96429,9.64285 0.35714,10.82143 -2,21.03572 -6.89286,30.67858 -3.25,6.39285 -7.57143,12 -12.67857,17.03571 -5.78572,5.75 -11.39286,11.60714 -17.10714,17.42857 l -10.39286,10.60714 c -4.92857,5.07143 -9.89286,10.10715 -14.82143,15.17858 -0.14286,0.14285 -0.28571,0.39285 -0.39286,0.53571 z m 6.60715,-60.07143 c 0.10714,13.75 0.21428,27.42857 0.32142,41.07143 0.0714,0.0357 0.10715,0.0714 0.17858,0.14286 0.14285,-0.21429 0.25,-0.42857 0.42857,-0.60715 6.21428,-6.32142 12.46428,-12.64285 18.67857,-18.96428 3.57143,-3.60714 7.10714,-7.21429 10.64286,-10.82143 C 173.75,641.51426 174,641.15712 174,640.87141 c 0,-3.25 -0.0714,-6.46429 -0.10714,-9.71429 0,-0.42857 -0.21429,-0.60714 -0.64286,-0.57143 -0.64286,0.0357 -1.28571,0.0357 -1.92857,0.0357 -9.10714,0.0714 -18.25,0.14285 -27.35714,0.25 -0.17857,0 -0.42857,0 -0.67857,0.0357 z m -24.10715,23.25 v 0.82143 7.39286 c 0,0.53571 0.14286,0.89285 0.53572,1.25 5.5,5.03571 10.96428,10.10714 16.42857,15.17857 0.39286,0.35714 0.60714,0.28571 0.92857,-0.0714 1.67857,-1.71429 3.35714,-3.42857 5.03571,-5.10714 0.39286,-0.39286 0.57143,-0.78572 0.57143,-1.35715 -0.0714,-4 -0.0714,-8.03571 -0.10714,-12.03571 -0.0714,-9.46429 -0.10714,-18.92857 -0.17857,-28.39286 0,-0.25 -0.0357,-0.5 -0.0357,-0.78571 -1.14285,0 -2.21428,0.0714 -3.25,-0.0357 -1.89285,-0.17857 -3.57142,0.28572 -5.10714,1.39286 -1.25,0.85714 -2.60714,1.57143 -3.96428,2.35714 0.64285,1.25 1.32142,2.35715 1.78571,3.57143 0.46429,1.21429 0.0714,2.53572 -0.10714,3.78572 -0.14286,-0.25 -0.21429,-0.5 -0.21429,-0.75 0,-0.71429 0.0714,-1.42857 0.0357,-2.10715 -0.10715,-1.60714 -1.35715,-2.67857 -1.82143,-4.14285 0,-0.0357 -0.0714,-0.0357 -0.14286,-0.0714 -0.96429,0.53571 -1.92857,1.07143 -2.89286,1.64286 -2.28571,1.28571 -4.57143,2.60714 -6.89285,3.85714 -0.57143,0.32143 -0.82143,0.67857 -0.78572,1.35714 0.0714,1.10714 0.0714,2.17857 0.0357,3.28572 -0.0357,0.64285 0.14285,0.85714 0.82142,0.85714 3.5,-0.0714 6.96429,-0.10714 10.46429,-0.17857 0.60714,0 0.85714,0.14285 0.85714,0.78571 0,2.14286 0.0714,4.28572 0.0714,6.42857 0,0.92857 -0.0714,1.03572 -1,1.03572 -2.35714,0.0357 -4.71428,0.0357 -7.03571,0.0357 z m -0.46428,-37.57143 c 0,0.14286 0.0357,0.25 0.0357,0.39286 0.0714,5.71429 0.10714,11.39286 0.17857,17.10714 0,0.42857 0.0357,0.85715 0.10715,1.28572 0.14285,0.89285 1.53571,1.67857 2.46428,1.10714 3.85714,-2.32143 7.75,-4.53571 11.64286,-6.75 0.67857,-0.39286 1.53571,-0.67857 1.03571,-1.78571 -0.0357,-0.0357 0.0714,-0.10715 0.0714,-0.17858 0.0357,-0.5 0.0714,-1 0.0714,-1.5 0,-0.78571 -0.10714,-1.60714 -0.10714,-2.39285 0,-1.14286 0.10714,-2.28572 0.14285,-3.39286 0,-0.39286 -0.0357,-0.82143 -0.0357,-1.21429 0,-0.46428 -0.0357,-0.92857 -0.0357,-1.39285 0,-0.5 0.10714,-0.96429 0.10714,-1.46429 -0.0357,-1.14286 -0.10714,-2.28571 -0.10714,-3.46428 0,-0.78572 0.0714,-1.57143 0.0714,-2.39286 0,-1.14286 -0.0714,-2.28572 -0.10714,-3.42857 -0.0357,-1.28572 0,-2.53572 0,-3.82143 0,-0.42857 0,-0.82143 0.0714,-1.25 0.10714,-0.75 0.25,-1.46429 0.32143,-2.21429 0.0357,-0.21428 -0.0357,-0.53571 -0.21429,-0.64286 -0.92857,-0.64285 -1.89285,-1.21428 -2.89285,-1.82142 -0.39286,0.53571 -0.75,1 -1.10715,1.46428 -0.35714,-0.60714 -0.14285,-1.03571 0.78572,-1.75 -3.14286,-2.17857 -6.25,-4.32143 -9.25,-6.39286 -1,0.64286 -1.85715,1.32143 -2.78572,1.75 -0.71428,0.32143 -0.92857,0.75 -0.89285,1.46429 0.0714,1.28571 0.0357,2.60714 0.0714,3.89286 0,0.57143 -0.25,0.78571 -0.89285,0.67857 v -4.10714 c -0.0714,0 -0.14286,-0.0357 -0.21429,-0.0357 -0.21428,0.35714 -0.5,0.71429 -0.57143,1.10714 -0.10714,0.60715 -0.0357,1.21429 0,1.82143 0,1.35715 0,1.35715 -1.32143,1.75 -0.0357,0 -0.0714,0 -0.17857,-0.0357 v -2.71429 c 0,-1.42857 -0.17857,-1.92857 -0.96428,-2.42857 v 0.82143 c 0.21428,8.35714 0.0714,16.67857 0.46428,25.03572 0.32143,6.42857 0.14286,12.89285 0.21429,19.35714 0,0.32143 0.0357,0.60714 0.0714,0.96428 0.64285,-0.10714 0.92857,-0.35714 0.89285,-0.96428 -0.0714,-1.46429 -0.0714,-2.96429 -0.14285,-4.42857 -0.0357,-0.5 0.10714,-0.85715 0.67857,-0.85715 0.25,0 0.5,-0.0714 0.82143,-0.10714 v 5.10714 c 0.92857,-0.10714 0.89285,-0.71428 0.89285,-1.32142 -0.10714,-6.71429 -0.21428,-13.46429 -0.32142,-20.17858 0.0357,-0.82142 0.17857,-0.89285 0.92857,-0.67857 z m 22.67857,-30.39286 c -0.92857,-0.25 -1.89286,0.17858 -2.75,-0.35714 0.21428,-0.10714 0.46428,-0.14286 0.71428,-0.17857 0.71429,-0.0357 1.46429,0 2.17858,-0.0357 0.75,0 0.82142,-0.14286 0.75,-0.85715 -0.10715,-0.89285 -0.17858,-1.82143 -0.21429,-2.71428 -0.0357,-1.57143 0,-3.14286 -0.0357,-4.71429 0,-0.67857 -1,-1.64286 -1.64286,-1.60714 -0.0714,0 -0.17857,0.0357 -0.25,0.0714 -1,0.53571 -2,1.10714 -3.03572,1.60714 -2.53571,1.25 -5.07142,2.46429 -7.60714,3.71429 0.96429,1.5 1.5,3.25 1.25,5 0.53572,0.10714 1.10714,0.0714 1.42857,0.32142 0.57143,0.42858 0.25,1 -0.0714,1.60715 h 2.75 c 0.60715,0 0.92858,0.28571 1,0.89285 0.0357,0.5 0.0357,1.03572 0.0714,1.53572 0.0357,2.17857 0.0357,4.32143 0.0714,6.5 0,1.03571 0.0357,1.03571 1.03572,1 1.21428,-0.0357 2.46428,-0.0357 3.67857,-0.0714 3.10714,-0.0357 6.25,-0.10714 9.35714,-0.14286 0.39286,0 0.64286,-0.0714 0.60714,-0.57143 -0.0357,-2.03571 -0.10714,-4.03571 -0.10714,-6.07142 v 0 3.28571 c -0.14286,-0.32143 -0.21429,-0.64286 -0.21429,-1 0,-1.78571 -0.0357,-3.60714 0,-5.39286 0,-0.5 -0.17857,-0.64285 -0.67857,-0.64285 -1.21428,0.0357 -2.46428,0 -3.67857,0 0.10714,-0.14286 0.21429,-0.14286 0.35714,-0.14286 1.39286,-0.0714 2.78572,-0.10714 4.14286,-0.17857 0.46429,-0.0357 0.53572,0.21428 0.57143,0.57143 l 0.10714,2.25 v 0 l 0.0357,-3.25002 1.92857,-0.0357 v 1.92857 l -0.25,0.0357 v -1.71428 c -0.57143,-0.0357 -0.92447,-0.0931 -1.4959,-0.12879 0.0357,0.71428 0.10304,1.27166 0.0673,1.8788 -0.0714,1.17857 -0.21429,2.35714 -0.25,3.53572 -0.0357,1.57142 0,3.14285 0,4.71428 0,0.25 0.0357,0.46429 0.0357,0.71429 h 6.71429 c 0.17857,-1.14286 0.10714,-1.25 -0.85715,-1.71429 -0.67857,-0.32143 -1.42857,-0.57143 -1.5,-1.28571 -0.82142,-0.46429 -1.67857,-0.82145 -2.35714,-1.1786 l 0.10714,0.78574 c 0.32143,0.0357 0.60715,0.10714 0.85715,0.14286 v 1.5 L 154,595.83566 v -1.42858 c -0.35714,-0.0357 -0.64286,-0.0357 -1,-0.0357 -0.10714,-2.14286 -0.25,-4.25 0.42857,-6.32143 0.10715,0.25 0.28572,0.46431 0.28572,0.71431 0.0357,1.10714 -0.0357,2.25 0.0714,3.35714 0.0357,0.46429 0.25,1 0.57142,1.28572 0.53572,0.5 1.25,0.71428 2.03572,0.60714 0.71428,-0.0714 1.42857,-0.0714 2.10714,-0.0714 0.17857,0 0.35714,0.0714 0.53572,0.10714 v 0.25 h -2.96429 c 0,0.0714 -0.0357,0.14286 -0.0357,0.21429 0.28571,0.25 0.53571,0.46428 0.78571,0.67857 0.14286,-0.25 0.28571,-0.42857 0.39286,-0.60714 0.0357,0 0.0714,0.0357 0.0714,0.0357 -0.0357,0.21429 -0.0714,0.39286 -0.10715,0.60714 0.0714,0.0357 0.10715,0.0357 0.17857,0.0714 0.10715,-0.14285 0.25,-0.28571 0.42858,-0.5 -0.0357,0.28572 -0.0714,0.53572 -0.0714,0.75 0.85714,0.60715 1,0.89286 0.89285,1.71429 0,0.10714 0.10715,0.28571 0.17858,0.28571 0.21428,0 0.57142,0.21429 0.60714,-0.28571 0,-0.0357 0.25,-0.0357 0.39286,-0.0714 0.0714,0.53571 0.46428,0.39286 0.78571,0.39286 2.10714,-0.0357 4.25,-0.0714 6.35714,-0.10715 l 6.21429,-0.10714 c 0.53571,0 0.89286,-0.14286 0.89286,-0.78571 v -4.14286 c -0.21429,0.0714 -0.35715,0.10714 -0.53572,0.17857 -0.39286,-1.60714 -0.10714,-3.25 -0.75,-4.75 -0.17857,0.21429 -0.25,0.39286 -0.25,0.60714 -0.14286,1.07143 -0.21428,2.17858 -0.39286,3.25 -0.0357,0.28572 -0.25,0.53572 -0.39285,0.78572 -0.25,-0.21429 -0.60715,-0.39286 -0.71429,-0.67857 -0.28571,-0.64286 -0.46428,-1.28572 -0.67857,-2.03572 -0.57143,0.85715 -0.35714,1.89286 -1.10714,2.71429 -0.39286,-1.5 -0.71429,-2.82143 -1.07143,-4.17857 h -0.10714 c -0.21429,0.89285 -0.42858,1.78571 -0.64286,2.64285 H 167.25 c -0.28571,-1.32142 -0.64286,-2.64286 -0.92857,-3.96429 l -0.17857,-0.0357 c -0.21429,0.78571 -0.53572,1.60713 -0.78572,2.46428 -0.57142,-0.85715 -0.67857,-1.71428 -0.71428,-2.60714 -0.14286,-3.21429 0.39286,-6.46429 -0.42857,-9.64286 -0.14286,-0.53571 -0.25,-0.71428 -0.82143,-0.67857 -0.85714,0.0714 -1.67857,0.0714 -2.53572,0.0357 -0.71428,-0.0357 -1.21428,0.0714 -1.07142,0.96428 0.0357,0.17857 -0.14286,0.35714 -0.21429,0.57143 -0.17857,0.57143 -0.35714,1.17857 -0.46429,1.75 -0.10714,0.60714 -0.14285,1.21429 -0.21428,1.82143 h -0.10714 c -0.28572,-1.03572 -0.57143,-2.07143 -0.92858,-3.25 -0.35714,0.82143 -0.64285,1.46428 -0.89285,2.10714 -0.0714,-0.0357 -0.14286,-0.0357 -0.21429,-0.0714 -0.17857,-0.78571 -0.35714,-1.57143 -0.53571,-2.39285 -0.25,0.53571 -0.5,0.96428 -0.71429,1.42857 -0.10714,0 -0.17857,0 -0.28571,0.0357 -0.39286,-0.85714 -0.75,-1.71428 -1.17857,-2.67857 -0.25,0.67857 -0.42858,1.21429 -0.67858,1.96429 -0.28571,-0.64286 -0.46428,-1.14286 -0.71428,-1.60715 -0.10714,-0.21428 -0.28572,-0.5 -0.42857,-0.5 -0.25,0 -0.53572,0.21429 -0.78572,0.28572 -0.14285,0.0714 -0.46428,0.14285 -0.46428,0.10714 -0.32143,-0.60714 -0.89286,-0.42857 -1.39286,-0.42857 -1.28571,0 -2.60714,0.0357 -3.89286,0.0714 h -2.71428 v 0.85714 c 0,1.67857 0.0357,3.39286 0,5.07143 -0.0357,1.32143 0.21428,2.71428 -0.92857,3.78571 -0.10715,0.10715 0,0.39286 0,0.60715 0.21428,0 0.46428,0.0357 0.67857,-0.0357 0.17857,-0.0714 0.35714,-0.25 0.5,-0.39286 0.0714,0.0357 0.10714,0.0714 0.17857,0.10715 -0.14286,0.25 -0.25,0.64285 -0.46429,0.75 -0.28571,0.14285 -0.71428,0.17857 -1,0.0714 -0.75,-0.17858 -0.60714,-0.82143 -0.53571,-1.35715 z m 14.71428,25.32143 c -2.64285,-0.14285 -5.17857,-0.32142 -7.75,-0.42857 -1.14285,-0.0357 -1.39285,-0.21428 -1.39285,-1.32143 -0.0357,-2.82143 -0.0714,-5.60714 -0.10715,-8.42857 0,-0.28571 -0.0357,-0.57143 -0.0714,-0.82143 h -3.82143 c 0.0714,1.32143 0.10714,2.57143 0.17857,3.82143 0.0357,0.39286 0.10714,0.82143 0.28571,1.17857 0.82143,1.60715 1.67857,3.17858 2.53572,4.75 0.10714,0.21429 0.25,0.39286 0.25,0.60715 0,0.10714 -0.25,0.32143 -0.42857,0.35714 -0.17858,0.0357 -0.39286,-0.10714 -0.71429,-0.25 0.28571,-0.14286 0.42857,-0.21429 0.57143,-0.25 -1,-1.82143 -1.92857,-3.57143 -2.92857,-5.35714 -0.17857,1.75 0,2.14285 0.96428,3.46428 0.39286,0.53572 0.60715,1.21429 0.89286,1.82143 -0.10714,0.0357 -0.17857,0.10714 -0.28571,0.14286 -0.10715,-0.17857 -0.25,-0.32143 -0.35715,-0.5 -0.21428,-0.42857 -0.35714,-0.92857 -0.67857,-1.25 -0.96428,-1 -1.10714,-2.21429 -1.03571,-3.46429 0.0357,-0.46428 0.0357,-0.92857 0.0357,-1.35714 v -3.75 c -0.21428,0 -0.46428,-0.0357 -0.75,-0.0357 -1.67857,0 -3.32143,0.0357 -5,0.0357 -0.78571,0 -1.03571,0.10714 -1.17857,0.89286 -0.0714,0.39285 -0.0714,0.82142 -0.0714,1.21428 0,0.96429 0.0714,1.89286 0.0714,2.85714 -0.0357,2.64286 -0.0714,5.25001 -0.10714,7.89286 -0.0357,2.07143 -0.0357,4.14286 -0.0357,6.21429 v 1.14286 c 0,0.85714 0.0714,1.71428 0.0357,2.57142 0,0.75 -0.14286,1.53572 -0.0714,2.28572 0.0714,1.07143 0.25,2.10714 0,3.17857 -0.0357,0.10714 0.0357,0.28571 0.0714,0.39286 0.17857,0.64285 0.89285,1.10714 1.78571,1.07143 1.60714,-0.0357 3.17857,-0.10715 4.78572,-0.10715 0.5,0 0.60714,-0.17857 0.60714,-0.64285 -0.0714,-1.46429 -0.0357,-2.92858 -0.10714,-4.39286 -0.0714,-1.75 0.42857,-3.39286 1.14285,-4.92857 0.10715,-0.21429 0.28572,-0.35715 0.46429,-0.57143 -0.39286,1.57143 -0.89286,3.03571 -1.07143,4.53571 -0.17857,1.5 -0.0357,3.07143 -0.0357,4.60715 0.21428,-1.64286 0.10714,-3.35715 0.57142,-4.89286 0.46429,-1.5 1.28572,-2.96429 2.42858,-4.21429 -0.14286,0.64286 -0.39286,1.25 -0.75,1.78572 -1.17858,1.78571 -1.75,3.71428 -1.64286,5.89285 0.0357,0.89286 0,1.75 0,2.67858 h 3.71428 v -1.10715 c -0.0357,-3.25 -0.0714,-6.46428 -0.14285,-9.71428 0,-0.60715 0.17857,-0.78572 0.78571,-0.78572 2.53572,0.0357 5.07143,0 7.60714,0 0.96429,0 1.10715,-0.17857 0.75,-1.25 h -4.67857 c -0.0714,-0.28571 -0.14285,-0.53571 -0.21428,-0.78571 h -0.82143 c -0.0357,0.21428 -0.0357,0.42857 -0.0714,0.67857 -0.21429,-0.42857 -0.32143,-0.78571 0.14286,-0.96429 0.5,-0.17857 0.92857,0.14286 1.10714,0.82143 H 156 v -4.10714 c -0.82143,-0.0357 -1.60714,0 -2.35714,-0.14286 -0.75,-0.14285 -1.39286,-0.0714 -1.89286,0.57143 -0.32143,0.42857 -0.71428,0.46429 -1.14286,0.14286 0.75,0.21428 0.92858,-0.25 1,-0.85714 h 4.53572 c -0.0357,-0.39286 -0.0357,-0.64286 -0.0357,-0.92858 z m -8.53571,18.39286 c 0.17857,0.0357 0.28571,0.0357 0.35714,0.0357 8.35715,-0.0714 16.75,-0.14286 25.10715,-0.17858 0.60714,0 0.85714,-0.21428 0.85714,-0.85714 -0.14286,-6.35714 -0.25,-12.71428 -0.35714,-19.07143 0,-0.17857 -0.0714,-0.35714 -0.10715,-0.53571 h -4.60714 c -0.5,0 -0.67857,0.32143 -0.64286,0.78571 0.0357,3.14286 0.10715,6.28572 0.14286,9.42857 0,0.5 0.21429,0.60715 0.67857,0.60715 0.67857,-0.0357 1.32143,0 2,0 0,0.0714 0.0357,0.14285 0.0357,0.25 -0.21429,0.0714 -0.46429,0.14285 -0.67858,0.17857 -0.85714,0.0357 -1.67857,0 -2.53571,0 -1.28571,-0.0357 -2.53571,-0.0357 -3.82143,-0.10714 -0.32143,0 -0.64286,-0.21429 -0.92857,-0.35715 -0.57143,-0.28571 -1.10714,-0.57143 -1.71429,-0.89285 -0.0357,0.32142 -0.0714,0.53571 -0.0714,0.75 h -0.14286 v -1.07143 h -1.85714 c -0.14286,1.5 -0.32143,1.64285 -1.53572,1.25 0.39286,-0.0357 0.82143,-0.0714 1.21429,-0.14286 0.14285,-1.17857 0.14285,-1.17857 -0.92857,-1.17857 H 148.25 c -0.85714,0 -0.89286,0.0357 -0.89286,0.89286 0.0357,3.17857 0.10715,6.35714 0.14286,9.5 0.0357,0.17857 0.0714,0.42857 0.0714,0.71428 z m 25.89286,-29.53571 h -26.14286 v 1.82142 c 0,2.53572 0,5.07143 0.0357,7.60715 0,0.39286 -0.0714,0.85714 0.57143,0.89286 2.10715,0.0714 4.21429,0.17857 6.32143,0.25 1.25,0.0357 2.5,-0.0357 3.75,0.0714 1.71429,0.17858 3.17857,-0.10714 4.53572,-1.25 0.39285,-0.32142 1,-0.46428 1.5,-0.5 1.03571,-0.0714 2.10714,0 3.14285,-0.0357 0.25,0 0.5,-0.0357 0.75,-0.10714 0.53572,-0.10715 1.03572,-0.28572 1.57143,-0.28572 1.32143,-0.0357 2.64286,0 3.96429,0 z m -56.39286,-25.5 c -0.0714,0 -0.10714,-0.0357 -0.17857,-0.0357 -0.10714,0.78572 -0.25,1.57143 -0.35714,2.35714 -0.10715,0.82143 0.0357,1 0.85714,1.17858 1.42857,0.25 2.71428,0.78571 3.67857,1.89285 0.42857,0.5 0.82143,0.85715 1.39286,0.21429 0.14285,-0.14286 0.39285,-0.21429 0.60714,-0.28572 1.82143,-0.85714 3.67857,-1.71428 5.53571,-2.53571 0.46429,-0.21429 0.57143,-0.46429 0.57143,-0.92857 -0.0714,-3.39286 -0.10714,-6.78572 -0.14285,-10.17857 0,-0.14286 -0.0357,-0.28572 -0.0714,-0.46429 -0.25,0.14286 -0.46429,0.28572 -0.75,0.42857 -0.0357,-0.28571 -0.10715,-0.5 -0.10715,-0.71428 -0.14285,-2.10715 -0.28571,-4.17857 -0.46428,-6.28572 -0.0357,-0.28571 0.0357,-0.71428 -0.14286,-0.85714 -0.64286,-0.60714 -0.46428,-1.42857 -0.60714,-2.17857 -0.0714,-0.32143 -0.0714,-0.67857 -0.14286,-1 -0.0357,-0.17857 -0.14286,-0.46429 -0.28571,-0.5 -0.5,-0.21429 -0.46429,-0.60714 -0.46429,-1.03572 0,-0.67857 0,-1.32143 -0.0357,-2 0,-0.28571 -0.10715,-0.53571 -0.14286,-0.82143 h -0.25 c -0.0714,0.35715 -0.17857,0.71429 -0.21429,1.07143 -0.0714,0.85715 -0.0357,1.75 -0.17857,2.57143 -0.28571,1.5 -0.82143,2.96429 -1,4.5 -0.25,1.96429 -0.32143,3.92857 -0.46428,5.89286 -0.0357,0.35714 -0.10715,0.67857 -0.14286,1.03571 h -0.21429 c -0.0714,-0.21428 -0.17857,-0.42857 -0.17857,-0.64285 -0.10714,-1.39286 -0.10714,-2.78572 -0.25,-4.17857 -0.14285,-1.25 0.32143,-2.67858 -0.75,-3.75 -0.0714,-0.10715 -0.0714,-0.32143 -0.0714,-0.46429 -0.10714,-1.89286 -0.17857,-3.78572 -0.28571,-5.67857 0,-0.28572 -0.17857,-0.60715 -0.25,-0.89286 -0.28571,0.25 -0.42857,0.46429 -0.42857,0.71429 -0.10714,1.39285 -0.14286,2.78571 -0.25,4.17857 -0.0714,0.85714 -0.21429,1.75 -0.35714,2.60714 -0.0714,0.5 -0.32143,1 -0.35715,1.5 -0.21428,1.82143 -0.21428,3.64286 -0.57143,5.42857 -0.35714,1.85715 -0.64285,3.71429 -0.57142,5.60715 0.0714,1.53571 0,3.07142 0,4.57142 0,0.89286 -0.39286,1.60715 -1.25,2.32143 -0.28572,-0.96428 -0.5,-1.78571 -0.71429,-2.64285 z m -3.10714,45.10714 c -0.0714,-1.17857 -0.17857,-2.14286 -0.21429,-3.07143 0,-0.5 -0.25,-0.82143 -0.64286,-1.10714 -5.07142,-3.32143 -10.10714,-6.67857 -15.178568,-10.03572 -0.178571,-0.14285 -0.571428,-0.14285 -0.785714,-0.0357 -0.785714,0.32143 -1.571429,0.67857 -2.321429,1.10714 -0.178571,0.10714 -0.357143,0.32143 -0.428571,0.53572 -0.107143,0.32143 -0.142857,0.67857 -0.142857,1 0.03571,3.67857 0.107142,7.35714 0.107142,11 0,0.64285 0.214286,0.82143 0.857143,0.82143 4.071429,-0.10715 8.107144,-0.17858 12.178574,-0.25 2.17857,0 4.32143,0.0357 6.57143,0.0357 z m 72.10714,9.64286 c -0.28571,-0.57143 -0.42857,-1.10715 -0.75,-1.39286 -0.75,-0.64286 -0.96429,-1.35714 -0.96429,-2.28571 0.0357,-5.14286 0,-10.25 0.0357,-15.39286 0,-0.67857 -0.21429,-0.85714 -0.85714,-0.82143 -1.75,0.0714 -3.5,0.0714 -5.25,0.0714 h -3.32143 c 0.10714,6.67857 0.25,13.25 0.35714,19.82143 z m -92.535715,1.96428 c 0.07143,-0.0357 0.107143,-0.0714 0.178571,-0.10714 v -0.89286 c -0.07143,-6.39285 -0.178571,-12.75 -0.25,-19.14285 0,-1.42858 0.07143,-2.82143 0.107143,-4.25001 0,-0.42857 -0.03571,-0.92857 -0.607143,-0.82142 -0.678571,0.14285 -1.428571,0.28571 -1.964285,0.67857 -2.035715,1.42857 -4.035715,2.96428 -6.035715,4.5 -0.214285,0.17857 -0.392857,0.53571 -0.392857,0.82143 -0.03571,2.57143 0,5.14285 0.03571,7.71428 0,0.39286 0.214286,0.89286 0.5,1.21429 1.25,1.5 2.535715,2.96428 3.785715,4.5 0.857143,1.03571 1.642857,2.10714 2.464285,3.10714 0.678572,0.92857 1.428572,1.82143 2.178572,2.67857 z m 20.571425,2.92857 c -0.35714,-0.0357 -0.46428,-0.0357 -0.57142,-0.0357 -5.21429,0 -10.42858,-0.0357 -15.678576,0 -0.285715,0 -0.75,0.21429 -0.785715,0.42857 -0.107143,0.32143 -0.07143,0.85714 0.142857,1.10714 2,2.46429 4.071424,4.92858 6.107144,7.35715 0.67857,0.78571 1.32143,1.60714 2,2.39285 0.96429,-0.60714 1.85714,-1.14285 2.75,-1.67857 1.85714,-1.03571 3.75,-2.07143 5.60714,-3.14285 0.17857,-0.10715 0.39286,-0.42858 0.39286,-0.64286 0.0357,-1.92857 0.0357,-3.82143 0.0357,-5.78572 z m -3.92857,-43.35714 c -1,0.82143 -2.07143,1.71429 -3.14285,2.64286 -0.5,0.42857 -0.60715,0.92857 -0.28572,1.46428 0.5,0.85715 0.60714,1.78572 0.60714,2.78572 0,2.92857 0,5.82143 -0.0714,8.75 -0.0357,1 -0.21429,2.03571 -0.39286,3.03571 -0.0714,0.5 0,0.89286 0.42857,1.17857 l 3.42857,2.25 c 0.46429,0.32143 0.92857,0.42858 1.39286,0.0714 0.57143,-0.42857 1.46428,-0.53571 1.42857,-1.60714 -0.0714,-2.5 -0.0357,-5 -0.0357,-7.53572 0,-3.53571 -0.0357,-7.07142 -0.0714,-10.60714 0,-0.25 -0.0714,-0.60714 -0.25,-0.67857 -0.96429,-0.60714 -1.96429,-1.10714 -3.03572,-1.75 z m -15.499998,29.85714 c -0.107143,0.14286 -0.142857,0.17858 -0.142857,0.21429 0,3.60714 -0.03571,7.21429 0,10.82143 0,0.25 0.25,0.53571 0.464286,0.67857 0.928571,0.64286 1.964285,0.92857 3.107143,0.89286 1.214285,-0.0357 2.464286,-0.0357 3.678566,-0.0357 h 2.85715 V 628.55 c -0.10715,0.21428 -0.17857,0.32143 -0.25,0.5 v -2.03572 c 0,-0.39285 0.17857,-0.82142 0.0714,-1.14285 -0.39286,-1.14286 -0.35715,-2.32143 -0.25,-3.5 0.0357,-0.28572 0,-0.57143 0,-0.89286 H 102.25 c 0.14286,-0.10714 0.32143,-0.10714 0.46429,-0.10714 1.67857,0 1.67857,0 1.67857,1.64285 v 0.82143 1.5 h 0.21428 V 621.05 c -3.35714,-0.0357 -6.678568,-0.0357 -9.928568,-0.0357 z m 35.142858,-44.21428 c 0.10714,0.0357 0.21429,0.10714 0.28571,0.14285 0.75,-0.46428 1.46429,-0.96428 2.25,-1.32142 2.53572,-1.25 5.10715,-2.5 7.67858,-3.71429 0.89285,-0.42857 0.92857,-0.57143 0.82142,-1.53571 -0.0714,-0.64286 0,-1.28572 0,-1.92858 h 0.25 v 2.89286 c 0.64286,0 0.78572,-0.35714 0.78572,-0.85714 -0.0357,-3.89286 -0.0714,-7.75 -0.10714,-11.64286 0,-0.0714 -0.0357,-0.14286 -0.0357,-0.21428 h -0.25 c -0.21428,2.60714 -0.39286,5.21428 -0.60714,8 -0.39286,-0.28572 -0.60714,-0.46429 -0.82143,-0.64286 L 135.25,561.79998 c -0.60714,-0.5 -0.89286,-0.5 -1.5,0 -1.21428,1.03571 -2.39286,2.10714 -3.60714,3.14285 -0.14286,0.14286 -0.32143,0.35715 -0.32143,0.53572 z m -13.92857,15 c 3,0.0357 5.10714,-1.60715 5.85714,-4.53572 0.85714,-3.35714 -1.28571,-6.78571 -4.67857,-7.42857 -0.60714,-0.10714 -1.25,-0.14286 -1.89286,-0.14286 -2.28571,0 -4.75,1.92858 -5.28571,4.14286 -0.89286,3.75 1.14286,8 6,7.96429 z m -16.892859,-1.71429 c -0.07143,0 -0.142857,-0.0357 -0.214286,-0.0357 -0.107143,0.21428 -0.214286,0.42857 -0.285714,0.64285 -0.178572,0.5 -0.25,1.03572 -0.464286,1.5 -0.07143,0.17858 -0.392857,0.35715 -0.607143,0.35715 -0.142857,0 -0.357143,-0.32143 -0.392857,-0.5 -0.142857,-1 -0.178571,-2.03572 -0.321429,-3.07143 -0.03571,-0.39286 -0.178571,-0.75 -0.25,-1.14286 h -0.25 c -0.214285,1.57143 -0.392857,3.14286 -0.607143,4.71429 h -0.25 c -0.75,-2.03572 -0.571428,-4.21429 -1.035714,-6.32143 -0.142857,0.21428 -0.214286,0.46428 -0.214286,0.71428 0.03572,4 0.107143,8 0.107143,11.96429 0,0.42857 0.107143,0.64286 0.535715,0.78571 0.714285,0.25 1.428571,0.5 2.071428,0.85715 0.678572,0.35714 1.178572,0.25 1.75,-0.28572 2.642861,-2.42857 5.357141,-4.82143 8.035711,-7.21428 1,-0.89286 2.07143,-1.78572 2.92858,-2.5 -0.46429,-1.42857 -0.85715,-2.71429 -1.28572,-4 -0.0714,-0.17857 -0.28571,-0.39286 -0.42857,-0.42857 -1.07143,-0.0357 -2.14286,-0.0357 -3.17857,-0.0357 -0.17857,1.28572 -0.10714,2.53572 -1,3.71429 -0.28572,-0.92857 -0.5,-1.67857 -0.75,-2.42857 -0.0357,0 -0.10715,0 -0.14286,0.0357 -0.28571,1.21429 -0.60714,2.46429 -0.89286,3.67857 h -0.14285 c -0.25,-0.82143 -0.46429,-1.60714 -0.71429,-2.42857 h -0.14286 c -0.32143,1.28571 -0.67857,2.53571 -0.999996,3.82143 h -0.178572 c -0.178571,-0.75 -0.428571,-1.57143 -0.678571,-2.39286 z m -9.357143,-3.75 h -3.321429 c 0,0.25 -0.03571,0.42857 -0.03571,0.60714 -0.03571,1.46429 -0.214286,2.82143 -1,4.14286 -0.607143,1 -0.821429,2.14286 -0.821429,3.35714 C 84.5,595.90712 84.5,597.37141 84.5,598.83569 v 1.53572 h 2.607142 c 1.714286,0 3.464286,-0.0357 5.178572,0 0.928571,0.0357 1.107143,-0.0357 1.107143,-0.96429 l -0.107143,-9.85714 v -3.17857 h -2.75 c -0.178572,1.03571 0,2.03571 -0.464286,2.96428 -0.464286,-0.96428 -0.214286,-2 -0.42857,-3 z m 15.964282,34.46429 v 12.67857 h 8.28572 v -12.67857 z m 69.67858,-23.46429 h 9.10714 c 0,-0.67857 -0.0357,-1.32143 0,-1.96428 0.10714,-1.75 -0.17857,-3.42858 -1.03572,-5 -0.21428,-0.42858 -0.32142,-0.96429 -0.39285,-1.42858 -0.14286,-1.28571 -0.21429,-2.57142 -0.32143,-3.89285 -0.0714,-0.82143 -0.10714,-1.60715 -0.21429,-2.64286 -0.92857,0.39286 -1.75,0.67857 -2.53571,1.07143 -0.21429,0.10714 -0.42857,0.46428 -0.46429,0.71428 -0.10714,1.32143 -0.17857,2.67858 -0.25,4.03572 -0.0357,0.32143 -0.14285,0.64286 -0.21428,1 h -0.32143 c -0.10714,-1.57143 -0.21429,-3.17857 -0.32143,-4.82143 -0.78571,0.42857 -1.5,0.82143 -2.25,1.14286 -0.75,0.32143 -1,0.85714 -0.96429,1.60714 0.0714,1.78571 0.10715,3.53571 0.14286,5.32143 0.0357,1.60714 0.0357,3.21428 0.0357,4.85714 z m -0.28572,11.5 h 9.32143 v -8.46428 H 175 Z m -69.14286,-13.82143 c -0.0714,0 -0.17857,0 -0.25,0.0357 -2.03571,1.85714 -4.03571,3.75 -6.142854,5.53571 -1.071428,0.89286 -1.535714,1.85714 -1.428571,3.21429 0.03571,0.75 0.178571,1.28571 0.892857,1.67857 0.535714,0.28571 1,0.64286 1.499998,0.96428 1.82143,1.21429 3.67857,2.42858 5.64286,3.75001 0.14286,-0.89286 0.35714,-1.71429 0.35714,-2.5 0.0357,-3.32143 0.0714,-6.64286 0,-9.96429 -0.0357,-0.92857 -0.35714,-1.82143 -0.57143,-2.71429 z m -12.107139,44.5 c 0,-1.64285 -0.03571,-3.10714 0,-4.60714 0.03571,-1.28571 -0.25,-2.25 -1.214286,-3.25 -1.928572,-1.96428 -3.571429,-4.17857 -5.357143,-6.28571 -0.821429,-0.96429 -1.642857,-1.92857 -2.428571,-2.89286 -0.07143,0.0357 -0.142858,0.0357 -0.214286,0.0714 v 3.92857 c 0,0.60714 -0.25,1.03571 -0.642857,1.5 -0.357143,0.39286 -0.571429,0.96429 -0.75,1.46429 -0.142857,0.42857 0.07143,0.71428 0.571428,0.78571 0.25,0.0714 0.535715,0.21429 0.75,0.42857 1.571429,1.5 3.107143,3.03572 4.642857,4.5 1.535715,1.46429 3.035715,2.85714 4.642858,4.35714 z M 167.75,609.69284 c -0.75,0 -1.42857,0.0714 -2.10714,0 -1.57143,-0.21429 -2.89286,0.28571 -4.10714,1.25 -0.42858,0.32142 -0.64286,0.64285 -0.60715,1.17857 0.0714,0.82143 0.21429,1.60714 0.21429,2.42857 0,1.07143 -0.10714,2.14286 -0.0714,3.21428 0,0.35715 0.25,0.78572 0.53571,1 1.82143,1.39286 3.92858,1.5 6.10715,1.17858 0.0357,-3.39286 0.0357,-6.78572 0.0357,-10.25 z m -39.89286,-15.92858 c 0.46429,-0.75 0.85715,-1.42857 1.32143,-2.10714 0.5,-0.71429 0.71429,-1.5 0.67857,-2.35714 -0.0357,-1.46429 0.0357,-2.96429 -0.0714,-4.42857 -0.0357,-0.71429 -0.28572,-1.39286 -0.5,-2.07143 -0.14286,-0.46429 -0.46429,-0.85715 -0.71429,-1.35715 -1.82143,0.85715 -3.64286,1.71429 -5.5,2.60715 0.39286,1.28571 0.35714,2.5 -0.0714,3.67857 -0.21428,0.60714 -0.39286,1.21428 -0.53571,1.82143 -0.0357,0.17857 0,0.5 0.10714,0.57143 1.75,1.21428 3.5,2.42857 5.28571,3.64285 z m 14.82143,-34.14285 c 0,2.53571 0.0714,4.96428 -0.0357,7.39285 -0.0357,1.14286 0.35714,1.82143 1.35714,2.25 0.42857,0.17857 0.75,0.28572 1.17857,0.0714 1.42857,-0.71428 2.85715,-1.35714 4.28572,-2.07143 0.14285,-0.0714 0.28571,-0.39285 0.25,-0.57143 -0.14286,-0.96428 -0.35715,-1.92857 -0.46429,-2.85714 -0.17857,-1.42857 -0.28571,-2.85714 -0.39286,-4.25 h -2.57142 c -0.25,2.28572 -0.17858,4.53572 -0.46429,6.71429 h -0.35714 c -0.42857,-2.21429 -0.32143,-4.5 -0.64286,-6.71429 -0.71429,0.0357 -1.39286,0.0357 -2.14286,0.0357 z m -28.5,98.89285 V 643.83569 C 113.03572,644.54998 112,645.15712 111,645.76426 c 0,0.0714 0.0357,0.14286 0.0357,0.17858 h 2.7143 v 4.60714 h -3.03571 v -1.64286 c 0.39285,-0.0357 0.75,-0.0714 1.14285,-0.0714 v -1.07143 c -0.39285,-0.0357 -0.78571,-0.0357 -1.17857,-0.0714 -0.0357,-0.57143 -0.0357,-1.07143 -0.0714,-1.67858 -1.07142,0.64286 -2,1.21429 -2.92857,1.82143 -0.17857,0.10715 -0.28571,0.42857 -0.28571,0.64286 0,1.14286 0,2.28571 0.0357,3.42857 0,0.17857 0.0714,0.42857 0.21429,0.53572 2.14286,2 4.32143,4 6.53571,6.07142 z m 5,-5.32142 h 7.10715 v -6.28572 h -7.10715 z m 56.21429,-13.60715 c 0.0714,0.0357 0.10714,0.0357 0.17857,0.0714 2.96429,-3 5.92857,-6.03571 8.96429,-9.10714 h -8.67858 c -0.46428,0 -0.5,0.25 -0.5,0.60714 0.0357,2.03572 0.0357,4.10714 0.0357,6.14286 z m -80.750002,-3.5 c 0,1.25 -0.03572,2.42857 0.03571,3.60715 0,0.35714 0.178571,0.82142 0.428571,1.03571 1.964286,1.85714 3.964286,3.71429 5.928571,5.57143 0.14286,0.10714 0.28572,0.28571 0.42858,0.32143 1.03571,0.0714 2.07142,0.0357 3.10714,-0.46429 -0.53572,-0.64286 -1.03572,-1.25 -1.53572,-1.82143 -1.39285,-1.57143 -2.78571,-3.10714 -4.142856,-4.67857 -0.678572,-0.78571 -1.25,-1.64286 -1.857143,-2.42857 -0.142857,-0.17857 -0.5,-0.28571 -0.5,-0.42857 0.07143,-0.71429 -0.428571,-0.67857 -0.857143,-0.71429 z m 36.035712,-47.21428 c 0.53572,2.32142 -1.25,3.64285 -2.10714,5.42857 l 6.32143,4.28571 c 0.10714,-0.0357 0.17857,-0.10714 0.28571,-0.14286 -0.17857,-2.53571 -0.39285,-5.07142 -0.57143,-7.60714 -0.28571,0.0714 -0.5,0.10714 -0.71428,0.17857 0.17857,-0.21428 0.35714,-0.25 0.57143,-0.32143 0.60714,-0.14285 0.46428,-0.60714 0.42857,-1 0,-0.21428 -0.21429,-0.57142 -0.35714,-0.57142 -1.25,-0.10715 -2.46429,-0.17858 -3.85715,-0.25 z m -38.071427,12.35714 h -7.392857 c 0.642857,2.53571 1.285715,5 1.928572,7.57143 1.821428,-1.39286 3.535714,-2.67857 5.285714,-4.03572 0.107143,-0.0714 0.178571,-0.28571 0.178571,-0.42857 0.03572,-1 0,-2 0,-3.10714 z m 71.321427,-25.5 c -0.10714,-1.60714 -0.17857,-3.14286 -0.28571,-4.67857 0,-0.17857 -0.17857,-0.35715 -0.25,-0.53572 -0.14286,-0.32143 -0.35714,-0.60714 -0.39286,-0.92857 -0.21428,-1.57143 -0.39286,-3.14286 -0.57143,-4.78571 -0.32143,0.10714 -0.5,0.21428 -0.71428,0.25 -0.64286,0.10714 -0.92857,0.46428 -1.03572,1.14285 -0.25,1.53572 0.0357,3.07143 -0.53571,4.64286 -0.53572,1.46429 -0.28572,3.21429 -0.39286,4.89286 z m -3.46428,42.53571 v -6.78571 h -3.78572 c 0,2.10714 0,4.17857 0.0357,6.25 0,0.17857 0.28571,0.5 0.46428,0.5 1.07143,0.0714 2.17857,0.0357 3.28572,0.0357 z M 89.642858,585.40712 c -0.07143,-1.28571 -0.107143,-2.53571 -0.178572,-3.78571 0,-0.14286 -0.107143,-0.25 -0.142857,-0.39286 -0.142857,-0.39286 -0.392857,-0.82143 -0.428571,-1.21429 -0.142857,-1.25 -0.214286,-2.53571 -0.321429,-3.82143 -0.07143,-0.71428 -0.178571,-1.39285 -0.285714,-2.10714 h -0.285714 c -0.107143,0.21429 -0.25,0.42857 -0.285715,0.64286 -0.107143,0.82143 -0.178571,1.64286 -0.285714,2.42857 -0.178571,1.21429 -0.214286,2.46429 -0.535714,3.64286 -0.428572,1.53571 -0.321429,3.03571 -0.428572,4.60714 z m 40.678572,67.78572 v -6.35715 H 127.25 v 6.35715 z m 14.64286,-78.57143 c -0.0714,-0.35715 -0.14286,-0.71429 -0.21429,-1.03572 -0.0714,0 -0.10714,0.0357 -0.17857,0.0357 v 2.25 h 5.35714 v -4.82143 c -0.25,0.10714 -0.46428,0.21428 -0.64285,0.32143 -1.03572,0.53571 -2.03572,1.14285 -3.10715,1.60714 -0.75,0.32143 -1.42857,0.57143 -1.14285,1.57143 z m -40.32143,4.53571 v 6.14286 h 3.21428 c 0.14286,0 0.32143,-0.17857 0.35715,-0.32143 0.25,-0.89286 0.46428,-1.78572 0.67857,-2.71429 0,-0.0357 -0.0357,-0.10714 -0.0714,-0.21428 l -0.21429,0.10714 c -0.14285,-0.21429 -0.21428,-0.46429 -0.35714,-0.57143 -1.17857,-0.78571 -2.35714,-1.57143 -3.60714,-2.42857 z M 118.25,662.19284 v -20.57143 c -0.96428,0.0714 -0.96428,0.67857 -0.96428,1.28571 0.0714,5.92857 0.10714,11.89286 0.14285,17.82143 0,0.71429 0.25,1.14286 0.82143,1.46429 z M 93.464286,603.04998 c -0.03571,0 -0.03571,0 0,0 0,0.64285 0.03571,1.28571 0.107143,1.89285 0.142857,1 0.857143,1.39286 1.714286,0.89286 2.285714,-1.32143 1.964286,-0.85714 2,-3.21428 0,-0.14286 0.03571,-0.35715 0,-0.46429 -0.107143,-0.25 -0.25,-0.60714 -0.464286,-0.71429 -0.607143,-0.32142 -1.25,-0.57142 -1.857143,-0.82142 -0.785714,-0.28572 -1.357143,0.0714 -1.464285,0.89285 -0.107143,0.53572 -0.03571,1.03572 -0.03571,1.53572 z m -0.892857,-28.60715 h -0.321428 c -0.07143,0.21429 -0.178572,0.46429 -0.178572,0.67858 -0.07143,0.96428 -0.107143,1.89285 -0.142857,2.85714 -0.07143,1.5 -0.25,2.96428 -0.857143,4.35714 -0.392857,0.89286 -0.357143,2 -0.535714,3.03572 h 2.964286 c -0.357143,-3.67858 -0.642858,-7.32143 -0.928572,-10.92858 z m 85.750001,8.96429 c -0.17857,-0.57143 -0.39286,-1.10714 -0.53571,-1.64286 -0.21429,-0.85714 -0.46429,-1.71428 -0.57143,-2.57143 -0.14286,-1.39285 -0.17857,-2.75 -0.28572,-4.14285 -0.0357,-0.25 -0.14285,-0.46429 -0.21428,-0.71429 -0.0714,0 -0.14286,0 -0.21429,0.0357 -0.0714,0.25 -0.14286,0.5 -0.17857,0.75 -0.10714,1.39285 -0.14286,2.78571 -0.28571,4.14285 -0.0714,0.71429 -0.25,1.46429 -0.57143,2.03572 -0.67857,1.17857 -0.5,2.35714 -0.42857,3.57143 0,0.0357 0.10714,0.0714 0.17857,0.17857 1.03571,-0.5 2.03571,-1.07143 3.10714,-1.64286 z m -62.39286,59.60714 c -0.75,0 -0.89285,0.39286 -0.89285,1 0.0357,4.92858 0.0714,9.89286 0.0714,14.82143 0,0.64286 0.35715,0.96429 0.82143,1.21429 z m -8.32143,-79.82143 v 0.75 c 0,2.89286 0.0357,5.78572 0.0357,8.67858 0,0.71428 -0.0357,1.46428 0,2.17857 0.0357,1.14285 0.60714,1.92857 1.53571,2.25 0,-0.0714 0.0357,-0.10715 0.0357,-0.17857 -0.0714,-1.96429 -0.14286,-3.92858 -0.21429,-5.85715 0,-0.21428 -0.14286,-0.42857 -0.21428,-0.60714 -0.14286,-0.42857 -0.42858,-0.89286 -0.39286,-1.32143 0.14286,-2.03571 -0.14286,-3.96428 -0.78572,-5.89286 z m 6.03572,82.96429 h -2.78572 v 1.42857 c 0.42858,0.0357 0.78572,0.0357 1.14286,0.0714 v 1.32143 c -0.39286,0.0357 -0.75,0.0714 -1.14286,0.10714 v 1.39286 h 2.78572 z m 67.46428,-72.07143 h -0.32142 c -0.10715,0.75 -0.21429,1.5 -0.32143,2.21429 -0.25,1.82143 -0.0357,3.67857 -0.82143,5.42857 -0.10714,0.25 -0.0714,0.53571 -0.10714,0.89286 1.03571,-0.42858 1.71428,-1.07143 2.28571,-1.85715 0.14286,-0.17857 0.17857,-0.5 0.14286,-0.75 -0.14286,-1.57143 -0.32143,-3.10714 -0.53572,-4.67857 -0.0714,-0.39286 -0.21428,-0.82143 -0.32143,-1.25 z m -74.32142,-8.64286 h -0.17858 c -0.14285,1.14286 -0.28571,2.25 -0.46428,3.39286 -0.0714,0.5 -0.0357,1.14286 -0.32143,1.42857 -0.46429,0.46429 -0.5,0.92857 -0.5,1.46429 l -0.10714,2.35714 c 0,0.14286 0.0714,0.32143 0.17857,0.39286 0.46428,0.28571 0.92857,0.5 1.39286,0.78571 z m 37.85714,-6.67857 c -0.14286,-0.92857 -0.28572,-1.82143 -0.42857,-2.67857 -0.0714,-0.39286 -0.17857,-0.78571 -0.28572,-1.17857 -0.10714,-0.42857 -0.21428,-0.85714 -0.25,-1.28572 -0.0357,-0.32142 0,-0.60714 0,-0.92857 l -0.21428,-0.10714 c -0.14286,0.14286 -0.42857,0.28571 -0.42857,0.42857 -0.10715,0.75 -0.17858,1.42857 -0.39286,2.17857 -0.28572,1.10715 -0.0714,2.35715 -0.0714,3.57143 z m -60.107145,51.92858 c 1.892857,-1.07143 1.928571,-1.14286 1.428571,-3.07143 -0.03571,-0.10715 -0.07143,-0.21429 -0.07143,-0.32143 -0.428572,-1.64286 -0.821429,-3.28572 -1.25,-4.89286 -0.03572,0 -0.07143,0 -0.107143,0.0357 z m 62.642855,-58.03572 c -0.0357,0.89286 -0.0357,1.71429 -0.14285,2.53571 -0.14286,1.10715 0.21428,2.32143 -0.67858,3.28572 0,0.0357 0,0.0714 0.0357,0.14286 H 148.75 c -0.96428,-1.96429 -0.35714,-4.03572 -0.82143,-5.96429 z M 130.25,578.72855 c 0.0714,0.0714 0.14286,0.10714 0.21429,0.17857 3.71428,-1.82143 7.42857,-3.67857 11.10714,-5.5 0.17857,-0.0714 0.25,-0.35714 0.35714,-0.53571 -0.0357,-0.0357 -0.10714,-0.0714 -0.14285,-0.10715 -3.67858,1.82143 -7.39286,3.64286 -11.07143,5.46429 -0.17857,0.0714 -0.28572,0.32143 -0.46429,0.5 z m 12.46429,-6.14286 0.17857,0.17857 c 2.28571,-1.10714 4.57143,-2.21428 6.85714,-3.35714 0.14286,-0.0714 0.21429,-0.35714 0.32143,-0.53571 -0.0357,-0.0357 -0.10714,-0.0714 -0.14286,-0.14286 -2.28571,1.10714 -4.53571,2.25 -6.82143,3.35714 -0.21428,0.10714 -0.28571,0.32143 -0.39285,0.5 z m -33.10715,8.28572 c -0.25,-1.03572 -2.89285,-3.25 -4.46428,-3.96429 -0.21429,0.5 0.0714,0.75 0.42857,1 0.85714,0.64286 1.71429,1.25 2.57143,1.89286 0.5,0.35714 0.96428,0.71428 1.46428,1.07143 z m -5.07142,68.71428 c 0.67857,0.64286 1.28571,1.17857 1.96428,1.82143 v -1.5 c -0.25,-0.0357 -0.5,-0.0714 -0.82143,-0.14286 0.39286,-0.0714 0.60715,-0.10714 0.89286,-0.17857 0,-0.35714 -0.0357,-0.64285 -0.0357,-1.07143 -0.71429,0.39286 -1.28572,0.71429 -2,1.07143 z m -9.857148,-14.42857 c 1.321429,0.28572 1.392857,0.21429 1.571429,-0.96428 -0.5,-0.21429 -1,-0.42858 -1.571429,-0.64286 z m 33.214288,-55.57143 c -1.25,0.64286 -2.39286,1.21429 -3.5,1.78572 -0.10714,0.0357 -0.10714,0.25 -0.17857,0.39285 1.10714,-0.14285 3.53571,-1.5 3.67857,-2.17857 z m 1.92857,-0.96428 c -0.0714,-0.0357 -0.14286,-0.10715 -0.21429,-0.14286 -0.17857,0.28571 -0.35714,0.57143 -0.57142,0.92857 -0.0714,-0.21429 -0.10715,-0.39286 -0.17858,-0.5 -0.0714,-0.14286 -0.21428,-0.25 -0.35714,-0.35714 -0.0714,0.14285 -0.17857,0.28571 -0.17857,0.42857 -0.0357,0.28571 0,0.60714 0,0.89286 0,0.0714 0.0357,0.10714 0.10714,0.32142 0.10715,-0.39285 0.17857,-0.53571 0.21429,-0.71428 0.14286,0.21428 0.28571,0.39286 0.46428,0.67857 0.17858,-0.35714 0.28572,-0.60714 0.42858,-0.89286 0.0714,0.28572 0.10714,0.5 0.17857,0.71429 0.0357,0 0.0714,-0.0357 0.10714,-0.0357 z m 13.78571,-2.67858 v -1.92857 c -0.85714,0.46429 -0.96428,0.89286 -0.64285,1.96429 0.14285,0 0.25,0.0357 0.39285,0.0357 0.0714,-0.0357 0.14286,-0.0357 0.25,-0.0714 z m -38.39285,0.0714 c -0.0357,0.0714 -0.10715,0.14286 -0.14286,0.21429 1.46429,1.07143 2.96429,2.10714 4.42857,3.17857 0.0357,-0.0714 0.10714,-0.14286 0.14286,-0.17857 -1.46429,-1.07143 -2.96429,-2.14286 -4.42857,-3.21429 z m 25.75,12.25 c 0.39285,-0.35714 0.67857,-0.57143 0.92857,-0.89285 0.10714,-0.10715 0.0714,-0.5 0,-0.53572 -0.21429,-0.10714 -0.5,-0.14286 -0.75,-0.10714 -0.10714,0 -0.14286,0.32143 -0.17857,0.5 -0.0357,0.28571 0,0.53571 0,1.03571 z m -18.67857,25.92858 c 0.46428,0.32142 0.82142,0.57142 1.21428,0.89285 v -1.60714 c -0.42857,0.25 -0.75,0.42857 -1.21428,0.71429 z m 66.85714,-14.96429 v 0.14286 h 3.57143 v -0.14286 z M 147.75,550.58569 h -0.28571 c -0.10715,0.35714 -0.17857,0.75 -0.28572,1.17857 0.35715,-0.0357 0.53572,-0.0357 0.85715,-0.0714 -0.10715,-0.39285 -0.21429,-0.75 -0.28572,-1.10714 z m -5.07143,18.89286 c 0.0357,0.46428 0.0357,0.78571 0.0714,1.21428 0.39286,-0.21428 0.67857,-0.35714 1.03572,-0.53571 -0.39286,-0.28571 -0.67858,-0.42857 -1.10715,-0.67857 z m 33.5,29.82143 v 0.17857 h 1.71429 v -0.17857 z m -81.892855,-16.25 h -0.03571 v 2.17857 c 0.07143,0 0.142857,0 0.214285,-0.0357 C 94.39286,584.51428 94.321433,583.8 94.285719,583.05 Z m 67.750005,-20.32143 c -0.42858,0.25 -1,0.25 -0.82143,1 0.28571,-0.32143 1,-0.21429 0.82143,-1 z m -38.32143,19.21428 c -0.0357,-0.0714 -0.10715,-0.14285 -0.14286,-0.21428 -0.35714,0.17857 -0.71429,0.32143 -1.07143,0.5 0,0.0714 0.0357,0.17857 0.0357,0.25 0.21428,-0.0357 0.42857,0 0.60714,-0.10714 0.21428,-0.0714 0.39286,-0.28572 0.57143,-0.42858 z m 10.5,48.92858 c 0.0357,0.0714 0.0714,0.17857 0.10714,0.25 0.32143,-0.14286 0.67857,-0.28572 1.07143,-0.46429 -0.64286,-0.39286 -1,-0.32143 -1.17857,0.21429 z"
         id="path74"
         inkscape:connector-curvature="0"
         style="fill:#ffffff;stroke-width:0.35714287"
         sodipodi:nodetypes="ccccccccccccccccccccccccscccccccscccscccccccscscccccccccsscscccccccccsscsscsscscccccccccccccccccscccccccscccccccccccccccccccsccccccccccsccccccccccccccccsccccccccccccccccsccccccccccccscccccsccccccccccccccccccccccccccccccccccsccsccsccccccscccccccccccsscccccccccscssssccsscccccsccccsccccccccccscccccccccscccccccccccsccccccccscccccccsscccccscccccccccccccccccccccccccccccscccccccccccccccccccccsccccccccscsccccccccscccccccccccccccccccccccccccccccsccccccsccccccccscccsccccsscccccccccsccccccccccccsccccsccccccsccccccccscccccccccccccccccccccccscscccccccccccccccccccscccccsccccccccccccccccccccccccsccccscccccsccccccccccccccccccsscccccccccccccccccccccscccccccccccscsccccccccscccccccccccccccccccccccccscccccccccccccccccccccccccccccccccccccccscccccccccccccccccccccccccccccccccccccccccccsccccsccccccccccccccccccccccccccccscccccccccccccccccccccccccccccccccccccsccccccccccccccccccccccccccccccscccccccccccccccccccsccccccccccccccccccccccccccccccccccccccccccccc" /><path
         style="stroke-width:0.35714287"
         d="m 143.28572,630.90712 c 0.28571,0 0.5,-0.0357 0.71428,-0.0357 9.10714,-0.0714 18.25,-0.14285 27.35714,-0.25 0.64286,0 1.28572,0 1.92858,-0.0357 0.42857,-0.0357 0.64285,0.10714 0.64285,0.57143 0.0357,3.25 0.0714,6.46428 0.10715,9.71428 0,0.28572 -0.25,0.60715 -0.46429,0.85715 -3.53571,3.60714 -7.10714,7.21428 -10.64286,10.82142 -6.21428,6.32143 -12.46428,12.64286 -18.67857,18.96429 -0.17857,0.17857 -0.28571,0.39286 -0.42857,0.60714 -0.0714,-0.0357 -0.10714,-0.0714 -0.17857,-0.14285 -0.17857,-13.64286 -0.25,-27.32143 -0.35714,-41.07143 z"
         id="path76"
         inkscape:connector-curvature="0" /><path
         style="stroke-width:0.35714287"
         d="m 119.17857,654.15712 c 1.42857,0 2.75,0 4.07143,0 2.35714,0 4.71429,-0.0357 7.03572,-0.0357 0.92857,0 1.03571,-0.10714 1,-1.03571 -0.0357,-2.14286 -0.0714,-4.28572 -0.0714,-6.42857 0,-0.64286 -0.28572,-0.82143 -0.85715,-0.78572 -3.5,0.0714 -6.96428,0.10715 -10.46428,0.17857 -0.67857,0 -0.85714,-0.21428 -0.82143,-0.85714 0.0357,-1.10714 0.0357,-2.17857 -0.0357,-3.28571 -0.0357,-0.67857 0.21428,-1.03572 0.78571,-1.35715 2.32143,-1.28571 4.60714,-2.57142 6.89286,-3.85714 0.96428,-0.53571 1.92857,-1.10714 2.89285,-1.64286 0.0714,0.0357 0.14286,0.0357 0.14286,0.0714 0.46429,1.42857 1.71429,2.53572 1.82143,4.14286 0.0357,0.71429 -0.0357,1.39286 -0.0357,2.10714 0,0.25 0.0357,0.5 0.21428,0.75 0.17857,-1.28571 0.57143,-2.57143 0.10714,-3.78571 -0.46428,-1.21429 -1.14285,-2.35714 -1.78571,-3.57143 1.35714,-0.78571 2.71429,-1.5 3.96429,-2.35714 1.57142,-1.07143 3.21428,-1.57143 5.10714,-1.39286 1.07143,0.10714 2.14286,0.0357 3.25,0.0357 0,0.32143 0.0357,0.57143 0.0357,0.78572 0.0714,9.46428 0.10715,18.92857 0.17857,28.39286 0.0357,4 0.0357,8.03571 0.10715,12.03571 0,0.57143 -0.17857,0.96429 -0.57143,1.35714 -1.71429,1.67857 -3.39286,3.39286 -5.03572,5.10715 -0.32142,0.32142 -0.53571,0.42857 -0.92857,0.0714 C 130.71429,673.72855 125.25,668.65712 119.75,663.6214 c -0.39286,-0.35714 -0.53571,-0.71428 -0.53571,-1.25 0.0357,-2.46428 0,-4.92857 0,-7.39285 -0.0357,-0.21429 -0.0357,-0.46429 -0.0357,-0.82143 z"
         id="path78"
         inkscape:connector-curvature="0" /><path
         style="stroke-width:0.35714287"
         d="m 118.71429,616.58569 c -0.78572,-0.25 -0.89286,-0.14286 -0.89286,0.71428 0.10714,6.71429 0.21429,13.46429 0.32143,20.17858 0,0.60714 0.0357,1.21428 -0.89286,1.32142 0,-1.67857 0,-3.35714 0,-5.10714 -0.35714,0.0357 -0.57143,0.10714 -0.82143,0.10714 -0.57143,0 -0.71428,0.32143 -0.67857,0.85715 0.0714,1.46428 0.0714,2.96428 0.14286,4.42857 0.0357,0.57143 -0.25,0.85714 -0.89286,0.96428 -0.0357,-0.35714 -0.0714,-0.67857 -0.0714,-0.96428 -0.0357,-6.46429 0.10715,-12.92857 -0.21428,-19.35714 -0.42857,-8.35715 -0.25,-16.67858 -0.46429,-25.03572 0,-0.25 0,-0.53571 0,-0.82143 0.75,0.5 0.92857,0.96429 0.96429,2.42857 0,0.92858 0,1.82143 0,2.71429 0.0714,0 0.14285,0.0357 0.17857,0.0357 1.35714,-0.39285 1.35714,-0.39285 1.32143,-1.75 0,-0.60714 -0.0714,-1.25 0,-1.82142 0.0714,-0.39286 0.35714,-0.75 0.57143,-1.10715 0.0714,0 0.14285,0.0357 0.21428,0.0357 0,1.35714 0,2.75 0,4.10714 0.64286,0.10714 0.89286,-0.10714 0.89286,-0.67857 -0.0357,-1.28572 0,-2.60714 -0.0714,-3.89286 -0.0357,-0.71428 0.17857,-1.14286 0.89286,-1.46428 0.96428,-0.46429 1.78571,-1.10715 2.78571,-1.75 2.96429,2.07142 6.10714,4.21428 9.25,6.39285 -0.92857,0.71429 -1.10714,1.14286 -0.78571,1.75 0.35714,-0.46428 0.71428,-0.92857 1.10714,-1.46428 0.96429,0.60714 1.96429,1.21428 2.89286,1.82143 0.14285,0.10714 0.21428,0.42857 0.21428,0.64285 -0.0714,0.75 -0.25,1.46429 -0.32143,2.21429 -0.0357,0.39286 -0.0714,0.82143 -0.0714,1.25 0,1.28571 0,2.53571 0,3.82143 0,1.14285 0.0714,2.28571 0.10714,3.42857 0,0.78571 -0.0714,1.57143 -0.0714,2.39286 0.0357,1.14285 0.10714,2.28571 0.10714,3.46428 0,0.5 -0.0714,0.96429 -0.10714,1.46429 0,0.46428 0,0.92857 0.0357,1.39285 0,0.39286 0.0714,0.82143 0.0357,1.21429 -0.0357,1.14286 -0.14286,2.28571 -0.14286,3.39286 0,0.78571 0.0714,1.60714 0.10714,2.39285 0,0.5 -0.0357,1 -0.0714,1.5 0,0.0714 -0.0714,0.14286 -0.0714,0.17858 0.5,1.10714 -0.35715,1.39285 -1.03572,1.78571 -3.89285,2.25 -7.78571,4.46429 -11.64285,6.75 -0.92858,0.57143 -2.35715,-0.21429 -2.46429,-1.10714 -0.0714,-0.42857 -0.10714,-0.85715 -0.10714,-1.28572 -0.0714,-5.71428 -0.10715,-11.39285 -0.17857,-17.10714 -0.0357,-0.14286 -0.0714,-0.28571 -0.0714,-0.42857 z"
         id="path80"
         inkscape:connector-curvature="0" /><path
         style="stroke-width:0.35714287"
         d="m 141.39286,586.19283 c -0.0714,0.53572 -0.21429,1.14286 0.42857,1.39286 0.28571,0.10714 0.71429,0.0714 1,-0.0714 0.21429,-0.10714 0.32143,-0.5 0.46429,-0.75 -0.0714,-0.0357 -0.10715,-0.0714 -0.17858,-0.10714 -0.17857,0.14285 -0.32142,0.32143 -0.5,0.39285 -0.21428,0.0714 -0.42857,0.0357 -0.67857,0.0357 0,-0.21429 -0.10714,-0.53572 0,-0.60714 1.14286,-1.07143 0.89286,-2.46429 0.92857,-3.78572 0.0357,-1.67857 0,-3.39286 0,-5.07143 v -0.85714 h 2.71429 c 1.28571,0 2.60714,-0.0357 3.89286,-0.0714 0.5,0 1.07143,-0.17857 1.39285,0.42857 0.0357,0.0357 0.32143,-0.0714 0.46429,-0.10714 0.25,-0.10714 0.53571,-0.28571 0.78571,-0.28571 0.14286,0 0.32143,0.32142 0.42858,0.5 0.21428,0.46428 0.42857,0.92857 0.71428,1.60714 0.25,-0.75 0.42857,-1.28572 0.67857,-1.96429 0.42857,0.96429 0.82143,1.82143 1.17857,2.67857 0.10715,0 0.17858,0 0.28572,-0.0357 0.21428,-0.46429 0.42857,-0.89286 0.71428,-1.42857 0.17858,0.85714 0.35715,1.64286 0.53572,2.39286 0.0714,0.0357 0.14286,0.0357 0.21428,0.0714 0.28572,-0.64285 0.53572,-1.28571 0.89286,-2.10714 0.32143,1.21429 0.60714,2.25 0.92857,3.25 h 0.10715 c 0.0714,-0.60714 0.10714,-1.21428 0.21428,-1.82143 0.10714,-0.60714 0.28572,-1.17857 0.46429,-1.75 0.0714,-0.17857 0.21428,-0.39285 0.21428,-0.57143 -0.14285,-0.89285 0.28676,-1.02815 1.00105,-0.99244 0.85714,0.0357 1.9038,0.0141 2.76094,-0.0216 0.53571,-0.0357 0.65042,0.20672 0.79327,0.70672 0.85715,3.17857 0.24349,6.44265 0.38635,9.65694 0.0357,0.92857 0.16554,1.72185 0.73696,2.54327 0.25,-0.85714 0.46429,-1.64285 0.67858,-2.42857 h 0.28571 c 0.28571,1.32143 0.67857,2.67857 0.96429,4 v 0 c 0.21428,-0.89285 0.42857,-1.78571 0.64285,-2.64285 l 0.21429,-0.0357 c 0.35714,1.32143 0.67857,2.67857 1.07143,4.17857 0.75,-0.82143 0.53571,-1.85714 1.10714,-2.71428 0.25,0.75 0.37017,1.35818 0.65589,2.00104 0.10714,0.28571 0.48697,0.49896 0.73697,0.71324 0.14285,-0.25 0.25,-0.46429 0.28571,-0.75 0.14286,-1.07143 0.25,-2.17858 0.39286,-3.25 0.0357,-0.21429 0.21428,-0.42857 0.35714,-0.64285 0.64286,1.5 0.39286,3.14285 0.75,4.75 0.17857,-0.0714 0.32143,-0.10715 0.53572,-0.17858 l -0.009,4.24895 c -0.001,0.64286 -0.45568,0.67962 -0.99139,0.71533 l -6.21429,0.10715 c -2.10714,0.0357 -4.25,0.0714 -6.35714,0.10714 -0.32143,0 -0.71429,0.14286 -0.78572,-0.39286 -0.14285,0.0357 -0.28571,10e-6 -0.28571,0.0357 -0.0357,0.5 -0.5,0.32142 -0.71429,0.32142 -0.0714,0 -0.17857,-0.21428 -0.17857,-0.28571 0.10714,-0.82143 -0.0357,-1.07143 -0.89286,-1.71429 0.0357,-0.25 0.14286,-0.49999 0.17858,-0.7857 -0.17858,0.21428 -0.28572,0.35714 -0.42858,0.5 -0.0714,-0.0357 -0.21428,-10e-6 -0.28571,-0.0357 0.0357,-0.21429 0.0714,-0.39286 0.10714,-0.60715 -0.0357,0 0,0 0,0 -0.10714,0.17857 -0.35714,0.53572 -0.46428,0.57143 -0.25,-0.21428 -0.5,-0.46428 -0.78572,-0.67857 0,-0.0714 0.0357,-0.14286 0.0357,-0.21429 l 3.07143,-0.0357 -0.10715,-0.21429 c -0.17857,-0.0357 -0.35714,-0.10715 -0.53571,-0.10715 -0.71429,0 -1.42857,0 -2.10714,0.0714 -0.78572,0.10715 -1.5,-0.14285 -2.03572,-0.60714 -0.32143,-0.28571 -0.53571,-0.85714 -0.57143,-1.28571 -0.0714,-1.10715 -0.0357,-2.25 -0.0714,-3.35715 0,-0.25 -0.0714,-0.5 -0.17857,-0.75 -0.67857,2.07143 -0.53571,4.17857 -0.42857,6.32143 0.35714,0.0357 0.64286,0.0357 1,0.0357 v 1.42857 h 0.10714 v -1.5 c -0.28571,-0.0357 -0.53571,-0.0714 -0.85714,-0.14286 v -0.82143 c 0.71429,0.39286 1.42857,0.75 2.25,1.21429 0.0714,0.75 0.96975,0.93613 1.61261,1.25756 0.96429,0.46428 1.03025,0.56387 0.85168,1.70673 l -6.82143,0.0357 c 0,-0.25 -0.0357,-0.46428 -0.0357,-0.71428 0,-1.57143 -0.0357,-3.14286 0,-4.71429 0.0357,-1.17857 0.21429,-2.35714 0.25,-3.53571 0.0357,-0.60714 -0.0714,-1.21429 -0.10714,-1.92857 0.57143,0.0357 1.07143,0.10714 1.64286,0.14285 V 588.55 h 0.14286 v -1.92857 h -1.82143 v 3.28571 h -0.14286 l -0.10714,-2.25 c 0,-0.35714 -0.10715,-0.60714 -0.57143,-0.57143 -1.39286,0.0714 -2.78572,0.14286 -4.14286,0.17858 -0.10714,0 -0.21428,0 -0.35714,0.14285 1.21428,0 2.46428,0.0357 3.67857,0 0.53571,-0.0357 0.67857,0.10715 0.67857,0.64286 v 5.39286 c 0,0.32143 0.0714,0.67857 0.21429,1 v -3.2857 h 0.10714 v 6.07143 c 0,0.5 -0.21429,0.57142 -0.60714,0.57142 -3.10715,0.0357 -6.25,0.10715 -9.35715,0.14286 -1.21428,0.0357 -2.46428,0.0357 -3.67857,0.0714 -1,0.0357 -1.03571,0.0357 -1.03571,-1 -0.0357,-2.17857 -0.0357,-4.32143 -0.0714,-6.5 0,-0.5 -0.0357,-1.03571 -0.0714,-1.53571 -0.0357,-0.60715 -0.39286,-0.89286 -1,-0.89286 H 132 c 0.28572,-0.60714 0.64286,-1.21429 0.0714,-1.60714 -0.35714,-0.25 -0.89286,-0.21429 -1.42857,-0.32143 0.25,-1.75 -0.25,-3.5 -1.25,-5 2.57143,-1.25 5.10714,-2.46429 7.60714,-3.71429 1.03572,-0.5 2.03572,-1.07143 3.03572,-1.60714 0.0714,-0.0357 0.17857,-0.0714 0.25,-0.0714 0.64285,0 1.64285,0.96429 1.64285,1.60714 0,1.57143 0,3.14286 0.0357,4.71429 0.0357,0.89286 0.10714,1.82143 0.21428,2.71428 0.0714,0.71429 0,0.85715 -0.75,0.85715 -0.71428,0 -1.46428,0 -2.17857,0.0357 -0.25,0 -0.46428,0.0357 -0.71428,0.17857 0.96428,0.53572 1.92857,0.10715 2.85714,0.32143 z"
         id="path82"
         inkscape:connector-curvature="0"
         sodipodi:nodetypes="ccsccccccscscccscccccccccccsccccccccccccccccccccccscccccsccccccccccccsccccccccccccccccscccccccccccccccsscccsccccccsccccccssccsccc" /><path
         style="stroke-width:0.35714287"
         d="m 156.10714,611.51426 c 0,0.28571 0,0.53571 0,0.89286 -1.53571,0 -3,0 -4.53571,0 -0.0714,0.60714 -0.25,1.10714 -1,0.85714 0.42857,0.32143 0.82143,0.28571 1.14286,-0.14286 0.5,-0.64285 1.14285,-0.67857 1.89285,-0.57143 0.75,0.14286 1.53572,0.0714 2.35715,0.14286 0,1.32143 0,2.64286 0,4.10714 -1.46429,0 -2.92857,0 -4.42857,0 -0.17858,-0.67857 -0.57143,-1 -1.10715,-0.82142 -0.5,0.17857 -0.35714,0.53571 -0.14285,0.96428 0.0357,-0.28571 0.0357,-0.46428 0.0714,-0.67857 0.28572,0 0.53572,0 0.82143,0 0.0714,0.25 0.14286,0.5 0.21429,0.78571 1.57143,0 3.14286,0 4.67857,0 0.35714,1.03572 0.25,1.25 -0.75,1.25 -2.53571,0 -5.07143,0.0357 -7.60714,0 -0.60715,0 -0.78572,0.17858 -0.78572,0.78572 0.0714,3.25 0.10715,6.46428 0.14286,9.71428 0,0.35715 0,0.71429 0,1.10715 -1.28571,0 -2.5,0 -3.71429,0 0,-0.92857 0.0357,-1.78572 0,-2.67857 -0.10714,-2.14286 0.46429,-4.07143 1.64286,-5.89286 0.35714,-0.53572 0.60714,-1.14286 0.75,-1.78572 -1.10714,1.21429 -1.96428,2.67858 -2.42857,4.21429 -0.46429,1.53571 -0.35714,3.25 -0.57143,4.89286 0,-1.53572 -0.14286,-3.07143 0.0357,-4.60715 0.17857,-1.5 0.67857,-2.96428 1.07142,-4.53571 -0.17857,0.21429 -0.35714,0.35714 -0.46428,0.57143 -0.71429,1.57143 -1.21429,3.17857 -1.14286,4.92857 0.0714,1.46429 0.0714,2.92857 0.10714,4.39286 0.0357,0.46428 -0.10714,0.64285 -0.60714,0.64285 -1.60714,0 -3.17857,0.0714 -4.78571,0.10715 -0.89286,0 -1.60715,-0.42857 -1.78572,-1.07143 -0.0357,-0.14286 -0.0714,-0.28572 -0.0714,-0.39286 0.25,-1.07143 0.0714,-2.10714 0,-3.17857 -0.0714,-0.75 0.0714,-1.53571 0.0714,-2.28571 0,-0.85715 -0.0357,-1.71429 -0.0357,-2.57143 0,-0.39286 0,-0.75 0,-1.14286 0,-2.07143 0.0357,-4.14286 0.0357,-6.21429 0.0357,-2.64285 0.0714,-5.25 0.10715,-7.89285 0,-0.96429 -0.0357,-1.89286 -0.0714,-2.85715 0,-0.39285 0,-0.82142 0.0714,-1.21428 0.14285,-0.78572 0.39285,-0.89286 1.17857,-0.89286 1.67857,0 3.32143,0 5,-0.0357 0.25,0 0.53571,0.0357 0.75,0.0357 0,1.28572 0,2.53572 0,3.75 0,0.46429 0,0.92857 -0.0357,1.35714 -0.0714,1.28572 0.0714,2.5 1.03572,3.46429 0.32143,0.32143 0.46428,0.82143 0.67857,1.25 0.10714,0.17857 0.21428,0.32143 0.35714,0.5 0.10714,-0.0357 0.17857,-0.10714 0.28572,-0.14286 -0.28572,-0.60714 -0.5,-1.28571 -0.89286,-1.82143 -0.96429,-1.32142 -1.14286,-1.71428 -0.96429,-3.46428 1,1.78571 1.92857,3.53571 2.92857,5.35714 -0.10714,0.0714 -0.25,0.14286 -0.57142,0.25 0.32142,0.10714 0.53571,0.25 0.71428,0.25 0.14286,-0.0357 0.42857,-0.21428 0.42857,-0.35714 0,-0.21429 -0.14285,-0.42857 -0.25,-0.60714 -0.85714,-1.57143 -1.71428,-3.14286 -2.53571,-4.75 -0.17857,-0.35715 -0.25,-0.78572 -0.28572,-1.17858 -0.0714,-1.25 -0.14285,-2.5 -0.17857,-3.82142 1.28572,0 2.5,0 3.82143,0 0.0357,0.25 0.0714,0.53571 0.0714,0.82142 0.0357,2.82143 0.0714,5.60715 0.10714,8.42858 0,1.10714 0.28572,1.28571 1.39286,1.32142 2.60714,0.17858 5.14286,0.32143 7.78571,0.46429 z"
         id="path84"
         inkscape:connector-curvature="0" /><path
         style="stroke-width:0.35714287"
         d="m 147.57143,629.90712 c -0.0357,-0.28572 -0.0714,-0.53572 -0.0714,-0.78572 -0.0714,-3.17857 -0.10714,-6.35714 -0.14286,-9.5 0,-0.82143 0.0357,-0.89285 0.89286,-0.89285 3.25,0 6.53572,0 9.78572,0 1.07142,0 1.07142,0 0.92857,1.17857 -0.39286,0.0357 -0.82143,0.0714 -1.21429,0.14285 1.21429,0.39286 1.39286,0.25 1.53572,-1.25 0.57142,0 1.17857,0 1.85714,0 0,0.35715 0,0.71429 0,1.07143 0.0357,0 0.0714,0 0.14286,0 0.0357,-0.21428 0.0357,-0.42857 0.0714,-0.75 0.60715,0.32143 1.14286,0.60715 1.71429,0.89286 0.28571,0.14286 0.60714,0.35714 0.92857,0.35714 1.28572,0.0714 2.53572,0.0714 3.82143,0.10715 0.85714,0 1.67857,0 2.53571,0 0.25,0 0.46429,-0.10715 0.67858,-0.17858 0,-0.0714 -0.0357,-0.14285 -0.0357,-0.25 -0.67857,0 -1.35714,-0.0357 -2,0 -0.46428,0.0357 -0.67857,-0.10714 -0.67857,-0.60714 -0.0357,-3.14286 -0.0714,-6.28571 -0.14286,-9.42857 0,-0.42857 0.14286,-0.75 0.64286,-0.78571 1.53571,0 3.03571,0 4.60714,0 0.0357,0.21428 0.10715,0.39285 0.10715,0.53571 0.10714,6.35714 0.21428,12.71429 0.35714,19.07143 0,0.64286 -0.25,0.85714 -0.85714,0.85714 -8.35715,0.0714 -16.75,0.10714 -25.10715,0.17857 -0.0714,0.0714 -0.17857,0.0714 -0.35714,0.0357 z"
         id="path86"
         inkscape:connector-curvature="0" /><path
         style="stroke-width:0.35714287"
         d="m 173.46429,600.3714 c 0,2.78572 0,5.60715 0,8.5 -1.35715,0 -2.64286,-0.0357 -3.96429,0 -0.53571,0 -1.03571,0.21429 -1.57143,0.28572 -0.25,0.0357 -0.5,0.0714 -0.75,0.10714 -1.03571,0 -2.10714,-0.0357 -3.14285,0.0357 -0.5,0.0357 -1.10715,0.17858 -1.5,0.5 -1.35715,1.10715 -2.82143,1.42858 -4.53572,1.25 -1.25,-0.14285 -2.5,-0.0357 -3.75,-0.0714 -2.10714,-0.0714 -4.21428,-0.17858 -6.32143,-0.25 -0.64285,-0.0357 -0.57143,-0.5 -0.57143,-0.89286 -0.0357,-2.53572 -0.0357,-5.07143 -0.0357,-7.60714 0,-0.57143 0,-1.14286 0,-1.82143 8.75,-0.0357 17.42857,-0.0357 26.14286,-0.0357 z"
         id="path88"
         inkscape:connector-curvature="0" /><path
         style="stroke-width:0.35714287"
         d="m 117.07143,574.8714 c 0.21429,0.82143 0.42857,1.67857 0.67857,2.67857 0.85714,-0.71428 1.25,-1.39285 1.25,-2.32142 0,-1.53572 0.0357,-3.07143 0,-4.57143 -0.0714,-1.89286 0.21429,-3.75 0.57143,-5.60715 0.35714,-1.78571 0.35714,-3.60714 0.57143,-5.42857 0.0714,-0.5 0.28571,-1 0.35714,-1.5 0.14286,-0.85714 0.28572,-1.71428 0.35714,-2.60714 0.10715,-1.39286 0.14286,-2.78571 0.25,-4.17857 0,-0.21429 0.17858,-0.46429 0.42858,-0.71429 0.0714,0.28572 0.21428,0.60715 0.25,0.89286 0.10714,1.89286 0.17857,3.78571 0.28571,5.67857 0,0.14286 -0.0357,0.35714 0.0714,0.46429 1.03571,1.10714 0.57143,2.5 0.75,3.75 0.17857,1.39285 0.17857,2.78571 0.25,4.17857 0,0.21428 0.14286,0.42857 0.17857,0.64286 0.0714,0 0.14286,0 0.21429,0 0.0357,-0.35715 0.10714,-0.67858 0.14285,-1.03572 0.14286,-1.96428 0.21429,-3.96428 0.46429,-5.89286 0.21428,-1.5 0.71428,-2.96428 1,-4.5 0.14286,-0.85714 0.10714,-1.71428 0.17857,-2.57142 0.0357,-0.35715 0.14286,-0.71429 0.21429,-1.07143 0.0714,0 0.17857,0 0.25,0 0.0714,0.28571 0.14285,0.53571 0.14285,0.82143 0.0357,0.64285 0.0357,1.32142 0.0357,2 0,0.42857 0,0.82142 0.46428,1.03571 0.14286,0.0714 0.21429,0.32143 0.28572,0.5 0.0714,0.32143 0.0714,0.67857 0.14285,1 0.14286,0.75 -0.0357,1.57143 0.60715,2.17857 0.17857,0.14286 0.14285,0.57143 0.14285,0.85714 0.14286,2.10715 0.28572,4.17858 0.46429,6.28572 0,0.21428 0.0714,0.42857 0.10714,0.71428 0.28572,-0.17857 0.5,-0.28571 0.75,-0.42857 0.0357,0.17857 0.0714,0.32143 0.0714,0.46429 0.0357,3.39286 0.0714,6.78571 0.14286,10.17857 0,0.46429 -0.10714,0.75 -0.57143,0.92857 -1.85714,0.82143 -3.67857,1.67857 -5.53571,2.53572 -0.21429,0.10714 -0.46429,0.14285 -0.60715,0.28571 -0.60714,0.64286 -0.96428,0.28571 -1.39285,-0.21429 -0.96429,-1.10714 -2.25,-1.64285 -3.67858,-1.89285 -0.82142,-0.14286 -0.96428,-0.35715 -0.85714,-1.17857 0.10714,-0.78572 0.21429,-1.57143 0.35714,-2.35715 0.10715,-0.0357 0.14286,0 0.21429,0 z"
         id="path90"
         inkscape:connector-curvature="0" /><path
         style="stroke-width:0.35714287"
         d="m 113.96429,619.97855 c -2.25,0 -4.39286,-0.0357 -6.53572,0 -4.07143,0.0714 -8.107141,0.14285 -12.178569,0.25 -0.642858,0 -0.857143,-0.17858 -0.857143,-0.82143 -0.03572,-3.67857 -0.07143,-7.35715 -0.107143,-11 0,-0.32143 0.03571,-0.67857 0.142857,-1 0.07143,-0.21429 0.25,-0.46429 0.428571,-0.53572 0.75,-0.39285 1.535715,-0.78571 2.321429,-1.10714 0.214286,-0.10714 0.607143,-0.0714 0.785714,0.0357 5.071424,3.32143 10.107144,6.67858 15.178574,10.03572 0.42857,0.28571 0.64286,0.57143 0.64286,1.10714 -0.0357,0.89286 0.0714,1.85714 0.17857,3.03572 z"
         id="path92"
         inkscape:connector-curvature="0" /><path
         style="stroke-width:0.35714287"
         d="m 186.07143,629.6214 c -3.71429,0 -7.17857,0 -10.71429,0 -0.10714,-6.53571 -0.25,-13.10714 -0.35714,-19.82143 1.14286,0 2.21429,0 3.32143,0 1.75,0 3.5,-0.0357 5.25,-0.0714 0.64286,-0.0357 0.85714,0.14285 0.85714,0.82142 -0.0357,5.14286 0,10.25 -0.0357,15.39286 0,0.92857 0.21428,1.67857 0.96428,2.28572 0.32143,0.25 0.42858,0.78571 0.71429,1.39285 z"
         id="path94"
         inkscape:connector-curvature="0" /><path
         style="stroke-width:0.35714287"
         d="m 93.535715,631.58569 c -0.75,-0.89286 -1.5,-1.75 -2.214286,-2.64286 -0.821428,-1.03571 -1.607143,-2.10714 -2.464286,-3.10714 -1.25,-1.5 -2.535714,-2.96429 -3.785714,-4.5 -0.25,-0.32143 -0.464286,-0.78572 -0.5,-1.21429 -0.07143,-2.57143 -0.07143,-5.14285 -0.03571,-7.71428 0,-0.28572 0.178571,-0.67857 0.392857,-0.82143 2,-1.53572 3.964286,-3.03572 6.035714,-4.5 0.535715,-0.39286 1.285715,-0.53572 1.964286,-0.67857 0.571429,-0.10715 0.642857,0.35714 0.607143,0.82143 -0.03571,1.42857 -0.142857,2.82142 -0.107143,4.25 0.07143,6.39285 0.178571,12.75 0.25,19.14285 0,0.28572 0,0.57143 0,0.89286 -0.03571,0 -0.07143,0.0357 -0.142857,0.0714 z"
         id="path96"
         inkscape:connector-curvature="0" /><path
         style="stroke-width:0.35714287"
         d="m 114.10714,634.51426 c 0,1.96429 0,3.89286 0,5.78571 0,0.21429 -0.17857,0.53572 -0.39285,0.64286 -1.85715,1.07143 -3.75,2.07143 -5.60715,3.14286 -0.89285,0.5 -1.78571,1.07143 -2.75,1.67857 -0.67857,-0.78571 -1.32143,-1.57143 -2,-2.39286 -2.03571,-2.46428 -4.107139,-4.89285 -6.107139,-7.35714 -0.214286,-0.25 -0.25,-0.78571 -0.142857,-1.10714 0.07143,-0.21429 0.5,-0.42857 0.785714,-0.42857 5.214282,0 10.428572,0 15.678572,0 0.0714,-0.0357 0.17857,0 0.53571,0.0357 z"
         id="path98"
         inkscape:connector-curvature="0" /><path
         style="stroke-width:0.35714287"
         d="m 110.17857,591.15712 c 1.07143,0.60714 2.07143,1.14285 3.03572,1.75 0.17857,0.10714 0.25,0.46428 0.25,0.67857 0.0357,3.53571 0.0357,7.07143 0.0714,10.60714 0,2.5 0,5 0.0357,7.53572 0.0357,1.07142 -0.85714,1.17857 -1.42857,1.60714 -0.46429,0.35714 -0.92857,0.21428 -1.39286,-0.0714 -1.14286,-0.75 -2.28571,-1.5 -3.42857,-2.25 -0.42857,-0.28571 -0.53571,-0.67857 -0.42857,-1.17857 0.17857,-1 0.35714,-2 0.39286,-3.03572 0.0714,-2.92857 0.0357,-5.82142 0.0714,-8.75 0,-0.96428 -0.10714,-1.89285 -0.60714,-2.78571 -0.32143,-0.53571 -0.21428,-1.03571 0.28572,-1.46429 1.07142,-0.89285 2.14285,-1.82142 3.14285,-2.64285 z"
         id="path100"
         inkscape:connector-curvature="0" /><path
         style="stroke-width:0.35714287"
         d="m 94.678572,621.01426 c 3.25,0 6.535718,0 9.892858,0 0,1.39286 0,2.85714 0,4.28571 -0.0714,0 -0.14286,0 -0.21429,0 0,-0.5 0,-1 0,-1.5 0,-0.28571 0,-0.53571 0,-0.82142 0,-1.64286 0,-1.64286 -1.67857,-1.64286 -0.14286,0 -0.32143,0 -0.46428,0.10714 0.64285,0 1.25,0 1.96428,0 0,0.35714 0.0357,0.64286 0,0.89286 -0.10714,1.17857 -0.14286,2.35714 0.25,3.5 0.10715,0.32143 -0.0357,0.75 -0.0714,1.14286 0,0.64285 0,1.28571 0,2.03571 0.10715,-0.17857 0.14286,-0.28571 0.25,-0.5 0,1.71429 0,3.32143 0,5.03571 -0.92857,0 -1.89285,0 -2.85714,0 -1.21429,0 -2.464285,0.0357 -3.678571,0.0357 -1.142857,0 -2.178571,-0.28572 -3.107143,-0.89286 -0.214285,-0.14286 -0.464285,-0.46428 -0.464285,-0.67857 -0.03571,-3.60714 0,-7.21429 0,-10.82143 0.07143,0 0.07143,-0.0357 0.178571,-0.17857 z"
         id="path102"
         inkscape:connector-curvature="0" /><path
         style="stroke-width:0.35714287"
         d="m 129.82143,576.79997 c 0,-3.75 0,-7.53571 0,-11.28571 0,-0.17857 0.17857,-0.42857 0.32143,-0.53571 1.17857,-1.07143 2.39286,-2.10715 3.60714,-3.14286 0.57143,-0.5 0.89286,-0.5 1.5,0 1.60714,1.39286 3.21429,2.78571 4.82143,4.17857 0.21429,0.17857 0.42857,0.32143 0.82143,0.64286 0.21428,-2.78572 0.39286,-5.39286 0.60714,-8 0.0714,0 0.14286,0 0.25,0 0,0.0714 0.0357,0.14285 0.0357,0.21428 0.0357,3.89286 0.0714,7.75 0.10714,11.64286 0,0.5 -0.10714,0.85714 -0.78572,0.85714 0,-0.96428 0,-1.92857 0,-2.89285 -0.0714,0 -0.17857,0 -0.25,0 0,0.64285 -0.0714,1.28571 0,1.92857 0.14286,0.96428 0.0714,1.10714 -0.82142,1.53571 -2.57143,1.21429 -5.14286,2.46429 -7.67858,3.71429 -0.78571,0.39285 -1.5,0.89285 -2.25,1.32143 -0.0714,-0.0714 -0.17857,-0.10715 -0.28571,-0.17858 z"
         id="path104"
         inkscape:connector-curvature="0" /><path
         style="stroke-width:0.35714287"
         d="m 115.89286,591.79997 c -4.89286,0.0357 -6.89286,-4.21428 -6,-7.92857 0.53571,-2.21428 3.03571,-4.14285 5.28571,-4.14285 0.64286,0 1.25,0.0357 1.89286,0.14285 3.39286,0.64286 5.53571,4.03572 4.67857,7.42857 -0.75,2.92858 -2.85714,4.53572 -5.85714,4.5 z"
         id="path106"
         inkscape:connector-curvature="0" /><path
         style="stroke-width:0.35714287"
         d="m 99.000001,590.08569 c 0.25,0.82143 0.5,1.64286 0.75,2.42857 0.07143,0 0.142857,0 0.178571,0 0.321428,-1.28571 0.678568,-2.53571 0.999998,-3.82143 0.0357,0 0.0714,0 0.14286,0 0.25,0.82143 0.46428,1.60714 0.71428,2.42857 0.0357,0 0.10715,0 0.14286,0 0.28572,-1.21428 0.60714,-2.46428 0.89286,-3.67857 0.0357,0 0.10714,0 0.14286,-0.0357 0.21428,0.75 0.46428,1.5 0.75,2.42857 0.89285,-1.17857 0.82143,-2.42857 1,-3.71429 1.03571,0 2.10714,0 3.17857,0.0357 0.14286,0 0.35714,0.25 0.42857,0.42857 0.42857,1.28571 0.85714,2.57143 1.28571,4 -0.85714,0.75 -1.92857,1.60714 -2.92857,2.5 -2.67857,2.39286 -5.39286,4.78571 -8.035712,7.21428 -0.571429,0.53572 -1.035714,0.64286 -1.75,0.28572 -0.678572,-0.35714 -1.357143,-0.60714 -2.071429,-0.85714 -0.428571,-0.14286 -0.535714,-0.35715 -0.535714,-0.78572 -0.03571,-4 -0.07143,-8 -0.107143,-11.96428 0,-0.25 0.07143,-0.46429 0.214286,-0.71429 0.464285,2.10714 0.285714,4.28571 1.035714,6.32143 0.07143,0 0.142857,0 0.25,0 0.214286,-1.57143 0.392857,-3.14286 0.607143,-4.71429 0.07143,0 0.142857,0 0.25,0 0.07143,0.39286 0.214286,0.75 0.25,1.14286 0.107143,1.03571 0.178571,2.03571 0.321429,3.07143 0.03571,0.17857 0.25,0.5 0.392857,0.5 0.214285,0 0.535714,-0.17857 0.607143,-0.35714 0.214285,-0.46429 0.321428,-1 0.464285,-1.5 0.07143,-0.21429 0.178572,-0.42858 0.285715,-0.64286 0,-0.0357 0.07143,0 0.142857,0 z"
         id="path108"
         inkscape:connector-curvature="0" /><path
         style="stroke-width:0.35714287"
         d="m 89.642858,586.33569 c 0.214285,1 -0.03572,2.03571 0.464285,2.92857 0.464286,-0.92857 0.285715,-1.92857 0.464286,-2.96429 0.857143,0 1.75,0 2.75,0 0,1.07143 0,2.14286 0,3.17858 0.03571,3.28571 0.07143,6.57142 0.107143,9.85714 0,0.92857 -0.178571,1 -1.107143,0.96428 -1.714286,-0.0714 -3.464286,0 -5.178571,0 -0.857143,0 -1.678572,0 -2.607143,0 0,-0.53571 0,-1.03571 0,-1.53571 0,-1.46429 0,-2.92857 -0.03571,-4.39286 0,-1.17857 0.214285,-2.35714 0.821428,-3.35714 0.785714,-1.28571 0.964286,-2.67857 1,-4.14286 0,-0.17857 0.03571,-0.35714 0.03571,-0.60714 1.071429,0.0714 2.142858,0.0714 3.285715,0.0714 z"
         id="path110"
         inkscape:connector-curvature="0" /><path
         style="stroke-width:0.35714287"
         d="m 105.60714,620.79997 c 2.78572,0 5.5,0 8.28572,0 0,4.17858 0,8.39286 0,12.67858 -2.75,0 -5.5,0 -8.28572,0 0,-4.17858 0,-8.35715 0,-12.67858 z"
         id="path112"
         inkscape:connector-curvature="0" /><path
         style="stroke-width:0.35714287"
         d="m 175.28572,597.33569 c 0,-1.64286 0,-3.25 0,-4.85714 -0.0357,-1.78572 -0.0714,-3.57143 -0.14286,-5.32143 -0.0357,-0.78572 0.25,-1.28572 0.96428,-1.60715 0.75,-0.32142 1.46429,-0.71428 2.25,-1.14285 0.10715,1.67857 0.21429,3.25 0.32143,4.82143 0.10715,0 0.21429,0 0.32143,0 0.0714,-0.32143 0.17857,-0.64286 0.21429,-1 0.10714,-1.35715 0.14285,-2.67858 0.25,-4.03572 0.0357,-0.25 0.25,-0.60714 0.46428,-0.71428 0.78572,-0.39286 1.60715,-0.67858 2.53572,-1.07143 0.0714,1.03571 0.14285,1.85714 0.21428,2.64285 0.10715,1.28572 0.17857,2.60715 0.32143,3.89286 0.0357,0.5 0.14286,1 0.39286,1.42857 0.85714,1.57143 1.14286,3.25 1.03571,5 -0.0357,0.64286 0,1.25 0,1.96429 -3.03571,0 -6.03571,0 -9.14285,0 z"
         id="path114"
         inkscape:connector-curvature="0" /><path
         style="stroke-width:0.35714287"
         d="m 175,608.83569 c 0,-2.82143 0,-5.57143 0,-8.46429 3.10714,0 6.17857,0 9.32143,0 0,2.75 0,5.57143 0,8.46429 -3.07143,0 -6.14286,0 -9.32143,0 z"
         id="path116"
         inkscape:connector-curvature="0" /><path
         style="stroke-width:0.35714287"
         d="m 105.85714,595.01426 c 0.17858,0.89286 0.53572,1.78571 0.57143,2.67857 0.0714,3.32143 0.0357,6.64286 0,9.96429 0,0.78571 -0.21428,1.60714 -0.35714,2.5 -1.96429,-1.32143 -3.82143,-2.53572 -5.64286,-3.75 -0.499998,-0.32143 -0.964284,-0.71429 -1.499998,-0.96429 -0.714286,-0.35714 -0.821428,-0.89286 -0.892857,-1.67857 -0.107143,-1.35714 0.357143,-2.32143 1.428571,-3.21429 2.107144,-1.78571 4.107144,-3.67857 6.142854,-5.53571 0.0714,0 0.17858,0 0.25,0 z"
         id="path118"
         inkscape:connector-curvature="0" /><path
         style="stroke-width:0.35714287"
         d="m 93.750001,639.51426 c -1.607143,-1.5 -3.107143,-2.89286 -4.607143,-4.32143 -1.571429,-1.5 -3.107143,-3.03571 -4.642857,-4.5 -0.214286,-0.17857 -0.464286,-0.35714 -0.75,-0.42857 -0.464286,-0.10714 -0.714286,-0.35714 -0.571429,-0.78571 0.178571,-0.5 0.392857,-1.07143 0.75,-1.46429 0.392857,-0.46429 0.642857,-0.89286 0.642857,-1.5 -0.03571,-1.32143 0,-2.64286 0,-3.92857 0.07143,-0.0357 0.142857,-0.0357 0.214286,-0.0714 0.821428,0.96429 1.642857,1.92857 2.428571,2.89286 1.785715,2.10714 3.428572,4.32143 5.357143,6.28571 0.964286,1 1.25,2 1.214286,3.25 -0.07143,1.46429 -0.03571,2.92857 -0.03571,4.57143 z"
         id="path120"
         inkscape:connector-curvature="0" /><path
         style="stroke-width:0.35714287"
         d="m 167.75,609.69283 c 0,3.46429 0,6.85714 0,10.25 -2.17857,0.32143 -4.28571,0.21429 -6.10714,-1.17857 -0.28572,-0.21429 -0.53572,-0.64286 -0.53572,-1 -0.0357,-1.07143 0.0714,-2.14286 0.0714,-3.21429 0,-0.82142 -0.14285,-1.60714 -0.21428,-2.42857 -0.0714,-0.53571 0.17857,-0.85714 0.60714,-1.17857 1.21429,-0.96428 2.53571,-1.46428 4.10714,-1.25 0.60715,0.0714 1.32143,0 2.07143,0 z"
         id="path122"
         inkscape:connector-curvature="0" /><path
         style="stroke-width:0.35714287"
         d="m 127.85714,593.76426 c -1.78571,-1.25 -3.53571,-2.42857 -5.25,-3.64286 -0.10714,-0.0714 -0.14285,-0.39285 -0.10714,-0.57143 0.14286,-0.60714 0.32143,-1.21428 0.53572,-1.82142 0.42857,-1.21429 0.5,-2.39286 0.0714,-3.67858 1.85715,-0.85714 3.67858,-1.75 5.5,-2.60714 0.25,0.46429 0.57143,0.89286 0.71429,1.35714 0.21429,0.67858 0.46429,1.39286 0.5,2.07143 0.0714,1.46429 0.0357,2.96429 0.0714,4.42857 0.0357,0.89286 -0.17857,1.64286 -0.67857,2.35715 -0.5,0.67857 -0.89286,1.39285 -1.35715,2.10714 z"
         id="path124"
         inkscape:connector-curvature="0" /><path
         style="stroke-width:0.35714287"
         d="m 142.67857,559.6214 c 0.75,0 1.42857,0 2.17857,0 0.32143,2.21429 0.25,4.5 0.64286,6.71429 0.10714,0 0.21429,0 0.35714,0 0.28572,-2.21429 0.21429,-4.42857 0.46429,-6.71429 0.82143,0 1.67857,0 2.57143,0 0.14286,1.39286 0.25,2.82143 0.39286,4.25 0.10714,0.96429 0.32142,1.92857 0.46428,2.85715 0.0357,0.17857 -0.10714,0.5 -0.25,0.57142 -1.42857,0.71429 -2.85714,1.35715 -4.28571,2.07143 -0.46429,0.21429 -0.75,0.14286 -1.17857,-0.0714 -1,-0.46428 -1.39286,-1.10714 -1.35715,-2.25 0.0714,-2.46428 0,-4.89285 0,-7.42857 z"
         id="path126"
         inkscape:connector-curvature="0" /><path
         style="stroke-width:0.35714287"
         d="m 114.17857,658.51426 c -2.25,-2.07143 -4.39285,-4.07143 -6.53571,-6.07143 -0.14286,-0.10714 -0.17857,-0.35714 -0.21429,-0.53571 -0.0357,-1.14286 -0.0714,-2.28572 -0.0357,-3.42857 0,-0.21429 0.10714,-0.53572 0.28571,-0.64286 0.92857,-0.60714 1.89286,-1.17857 2.92857,-1.82143 0.0357,0.60714 0.0357,1.14286 0.0714,1.67857 0.39286,0.0357 0.75,0.0357 1.17857,0.0714 0,0.35714 0,0.67857 0,1.07143 -0.39285,0.0357 -0.75,0.0714 -1.14285,0.0714 0,0.53571 0,1.07143 0,1.64285 1,0 2,0 3.03571,0 0,-1.53571 0,-3 0,-4.60714 -0.89286,0 -1.82143,0 -2.71428,0 0,-0.0714 -0.0357,-0.14286 -0.0357,-0.17857 1,-0.60714 2.03572,-1.21429 3.17857,-1.92857 0,4.92857 0,9.75 0,14.67857 z"
         id="path128"
         inkscape:connector-curvature="0" /><path
         style="stroke-width:0.35714287"
         d="m 119.17857,653.19283 c 0,-2.10714 0,-4.10714 0,-6.28571 2.35715,0 4.67857,0 7.10715,0 0,2.03571 0,4.14285 0,6.28571 -2.35715,0 -4.71429,0 -7.10715,0 z"
         id="path130"
         inkscape:connector-curvature="0" /><path
         style="stroke-width:0.35714287"
         d="m 175.39286,639.58569 c 0,-0.75 0,-1.53572 0,-2.28572 0,-2.03571 0,-4.10714 -0.0357,-6.14285 0,-0.35715 0.0357,-0.60715 0.5,-0.60715 2.85715,0 5.67858,0 8.67858,0 -3.03572,3.10715 -6,6.10715 -8.96429,9.10715 -0.0357,-0.0357 -0.10714,-0.0714 -0.17857,-0.0714 z"
         id="path132"
         inkscape:connector-curvature="0" /><path
         style="stroke-width:0.35714287"
         d="m 94.642858,636.08569 c 0.428571,0 0.714285,0 1,0 0.428571,0.0357 0.928571,0 0.857143,0.71428 0,0.10715 0.357143,0.25 0.5,0.42858 0.642857,0.82142 1.214285,1.64285 1.857143,2.42857 1.357146,1.57143 2.785716,3.10714 4.142856,4.67857 0.5,0.57143 1,1.17857 1.53572,1.82143 -1.03572,0.5 -2.07143,0.53571 -3.10715,0.46428 -0.14286,0 -0.28571,-0.17857 -0.42857,-0.32143 -1.999999,-1.85714 -3.964285,-3.67857 -5.928571,-5.57142 -0.25,-0.25 -0.428571,-0.67858 -0.428571,-1.03572 -0.03572,-1.14286 0,-2.32143 0,-3.60714 z"
         id="path134"
         inkscape:connector-curvature="0" /><path
         style="stroke-width:0.35714287"
         d="m 130.67857,588.8714 c 1.39286,0.0714 2.60715,0.14286 3.82143,0.25 0.14286,0 0.35714,0.35715 0.35714,0.57143 0,0.35714 0.17858,0.85714 -0.42857,1 -0.21428,0.0357 -0.39285,0.10714 -0.57143,0.32143 0.21429,-0.0357 0.42858,-0.10714 0.71429,-0.17857 0.17857,2.53571 0.39286,5.07143 0.57143,7.60714 -0.10714,0.0357 -0.17857,0.10714 -0.28572,0.14286 -2.10714,-1.42857 -4.17857,-2.85714 -6.32142,-4.28572 0.85714,-1.78571 2.67857,-3.10714 2.14285,-5.42857 z"
         id="path136"
         inkscape:connector-curvature="0" /><path
         style="stroke-width:0.35714287"
         d="m 92.607143,601.22855 c 0,1.10714 0,2.10714 0,3.14285 0,0.14286 -0.07143,0.32143 -0.178571,0.42857 -1.714286,1.32143 -3.464286,2.64286 -5.285714,4.03572 -0.642857,-2.57143 -1.285715,-5.07143 -1.928572,-7.57143 2.5,-0.0357 4.892857,-0.0357 7.392857,-0.0357 z"
         id="path138"
         inkscape:connector-curvature="0" /><path
         style="stroke-width:0.35714287"
         d="m 163.92857,575.72855 c -1.42857,0 -2.75,0 -4.17857,0 0.10714,-1.67858 -0.14286,-3.42858 0.39286,-4.89286 0.57143,-1.57143 0.28571,-3.10714 0.53571,-4.64286 0.10715,-0.67857 0.39286,-1 1.03572,-1.14286 0.21428,-0.0357 0.39285,-0.14285 0.71428,-0.25 0.17857,1.64286 0.35715,3.21429 0.57143,4.78572 0.0357,0.32143 0.25,0.60714 0.39286,0.92857 0.0714,0.17857 0.25,0.35714 0.25,0.53571 0.10714,1.5 0.17857,3.07143 0.28571,4.67858 z"
         id="path140"
         inkscape:connector-curvature="0" /><path
         style="stroke-width:0.35714287"
         d="m 160.46429,618.26426 c -1.10715,0 -2.21429,0.0357 -3.28572,-0.0357 -0.17857,0 -0.46428,-0.32143 -0.46428,-0.5 -0.0357,-2.07143 -0.0357,-4.14286 -0.0357,-6.25 1.25,0 2.5,0 3.78572,0 0,2.28571 0,4.5 0,6.78571 z"
         id="path142"
         inkscape:connector-curvature="0" /><path
         style="stroke-width:0.35714287"
         d="m 89.642858,585.40712 c -1.107143,0 -2.107143,0 -3.214286,0 0.142857,-1.53572 0.03571,-3.07143 0.428571,-4.60715 0.321429,-1.17857 0.392858,-2.42857 0.535715,-3.64285 0.107143,-0.82143 0.178571,-1.64286 0.285714,-2.42857 0.03571,-0.21429 0.178571,-0.42858 0.285714,-0.64286 0.107143,0 0.178572,0 0.285715,0 0.107142,0.71428 0.214285,1.39286 0.285714,2.10714 0.107143,1.28572 0.178571,2.53572 0.321428,3.82143 0.03572,0.42857 0.285715,0.82143 0.428572,1.21429 0.03571,0.14285 0.142857,0.25 0.142857,0.39285 0.07143,1.25 0.142857,2.5 0.214286,3.78572 z"
         id="path144"
         inkscape:connector-curvature="0" /><path
         style="stroke-width:0.35714287"
         d="m 130.32143,653.19283 c -1.03571,0 -2.03571,0 -3.07143,0 0,-2.10714 0,-4.21428 0,-6.35714 1,0 2,0 3.07143,0 0,2.10714 0,4.21428 0,6.35714 z"
         id="path146"
         inkscape:connector-curvature="0" /><path
         style="stroke-width:0.35714287"
         d="m 144.96429,574.6214 c 0.0357,-0.0714 0.10714,-0.10714 0.0714,-0.10714 -0.28572,-1 0.39285,-1.25 1.14285,-1.57143 1.07143,-0.46428 2.07143,-1.07143 3.10715,-1.60714 0.17857,-0.10714 0.39285,-0.17857 0.64285,-0.32143 0,1.64286 0,3.21429 0,4.82143 -1.78571,0 -3.53571,0 -5.35714,0 0,-0.75 0,-1.5 0,-2.25 0.0714,0 0.10714,-0.0357 0.17857,-0.0357 0.0714,0.35715 0.14286,0.71429 0.21429,1.07143 z"
         id="path148"
         inkscape:connector-curvature="0" /><path
         style="stroke-width:0.35714287"
         d="m 104.64286,579.15712 c 1.25,0.85714 2.42857,1.64285 3.60714,2.46428 0.17857,0.10715 0.25,0.35715 0.35714,0.57143 0,0 0.10715,-0.0714 0.21429,-0.10714 0.0357,0.10714 0.0714,0.17857 0.0714,0.21428 -0.21429,0.89286 -0.42857,1.82143 -0.67857,2.71429 -0.0357,0.14286 -0.25,0.28571 -0.35715,0.32143 -1.03571,0.0357 -2.07142,0 -3.21428,0 0,-2.07143 0,-4.07143 0,-6.17857 z"
         id="path150"
         inkscape:connector-curvature="0" /><path
         style="stroke-width:0.35714287"
         d="m 118.25,662.19283 c -0.57143,-0.32143 -0.78571,-0.75 -0.78571,-1.42857 -0.0357,-5.92857 -0.10715,-11.89286 -0.14286,-17.82143 0,-0.60714 0,-1.21428 0.96429,-1.28571 -0.0357,6.82143 -0.0357,13.67857 -0.0357,20.53571 z"
         id="path152"
         inkscape:connector-curvature="0" /><path
         style="stroke-width:0.35714287"
         d="m 93.464286,603.04997 c 0,-0.5 -0.03571,-1 0,-1.5 0.07143,-0.82142 0.678572,-1.17857 1.464286,-0.89285 0.642857,0.25 1.285714,0.5 1.857143,0.82143 0.214286,0.10714 0.357143,0.46428 0.464286,0.71428 0.07143,0.14286 0,0.32143 0,0.46429 -0.07143,2.35714 0.285714,1.89285 -2,3.21428 -0.857143,0.5 -1.571429,0.10715 -1.714286,-0.89285 -0.07143,-0.64286 -0.07143,-1.28572 -0.07143,-1.92858 -0.03571,0 -0.03571,0 0,0 z"
         id="path154"
         inkscape:connector-curvature="0" /><path
         style="stroke-width:0.35714287"
         d="m 92.571429,574.44283 c 0.285714,3.60714 0.571429,7.25 0.892857,10.96429 -1.071428,0 -1.928571,0 -2.964285,0 0.178571,-1.03572 0.142857,-2.14286 0.535714,-3.03572 0.642857,-1.42857 0.821428,-2.85714 0.857143,-4.35714 0.03571,-0.96429 0.07143,-1.92857 0.142857,-2.85714 0,-0.21429 0.107143,-0.46429 0.178571,-0.67857 0.142857,-0.0714 0.25,-0.0357 0.357143,-0.0357 z"
         id="path156"
         inkscape:connector-curvature="0" /><path
         style="stroke-width:0.35714287"
         d="m 178.32143,583.40712 c -1.07143,0.57143 -2.07143,1.10714 -3.07143,1.64285 -0.10714,-0.0714 -0.17857,-0.14285 -0.17857,-0.17857 -0.0714,-1.21428 -0.25,-2.42857 0.42857,-3.57143 0.35714,-0.60714 0.5,-1.35714 0.57143,-2.03571 0.14286,-1.39286 0.17857,-2.75 0.28571,-4.14286 0.0357,-0.25 0.10715,-0.5 0.17858,-0.75 0.0714,0 0.14285,0 0.21428,-0.0357 0.0714,0.25 0.17857,0.46428 0.21429,0.71428 0.10714,1.39286 0.14285,2.78572 0.28571,4.14286 0.10714,0.85714 0.35714,1.71429 0.57143,2.57143 0.10714,0.53571 0.32143,1.07143 0.5,1.64286 z"
         id="path158"
         inkscape:connector-curvature="0" /><path
         style="stroke-width:0.35714287"
         d="m 115.92857,643.01426 c 0,5.67857 0,11.35714 0,17.03571 -0.46428,-0.28571 -0.82143,-0.57142 -0.82143,-1.21428 0,-4.92857 -0.0357,-9.89286 -0.0714,-14.82143 0,-0.60714 0.14285,-1 0.89285,-1 z"
         id="path160"
         inkscape:connector-curvature="0" /><path
         style="stroke-width:0.35714287"
         d="m 107.60714,563.19283 c 0.64286,1.92857 0.92858,3.85714 0.82143,5.85714 -0.0357,0.42858 0.25,0.85715 0.39286,1.32143 0.0714,0.21429 0.21429,0.42857 0.21429,0.60715 0.0714,1.96428 0.14285,3.92857 0.21428,5.85714 0,0.0714 -0.0357,0.10714 -0.0357,0.17857 -0.92857,-0.32143 -1.5,-1.10714 -1.53572,-2.25 -0.0357,-0.71429 0,-1.46429 0,-2.17857 0,-2.89286 -0.0357,-5.78572 -0.0357,-8.67857 -0.0357,-0.21429 -0.0357,-0.46429 -0.0357,-0.71429 z"
         id="path162"
         inkscape:connector-curvature="0" /><path
         style="stroke-width:0.35714287"
         d="m 113.64286,646.15712 c 0,1.46428 0,2.85714 0,4.32143 -0.92857,0 -1.82143,0 -2.78572,0 0,-0.46429 0,-0.89286 0,-1.39286 0.39286,-0.0357 0.75,-0.0714 1.14286,-0.10714 0,-0.46429 0,-0.85715 0,-1.32143 -0.35714,-0.0357 -0.75,-0.0357 -1.14286,-0.0714 0,-0.46429 0,-0.92857 0,-1.42857 0.89286,0 1.82143,0 2.78572,0 z"
         id="path164"
         inkscape:connector-curvature="0" /><path
         style="stroke-width:0.35714287"
         d="m 106.78572,565.44283 c 0,3.25 0,6.53572 0,9.82143 -0.46429,-0.25 -0.92858,-0.5 -1.39286,-0.78571 -0.10714,-0.0714 -0.17857,-0.25 -0.17857,-0.39286 0,-0.78572 0.0714,-1.57143 0.10714,-2.35714 0.0357,-0.53572 0.0357,-1 0.5,-1.46429 0.28571,-0.28571 0.25,-0.92857 0.32143,-1.42857 0.17857,-1.10714 0.32143,-2.25 0.46428,-3.39286 0.0357,0 0.10715,0 0.17858,0 z"
         id="path166"
         inkscape:connector-curvature="0" /><path
         style="stroke-width:0.35714287"
         d="m 144.64286,558.76426 c -0.67857,0 -1.32143,0 -2.07143,0 0,-1.21429 -0.21429,-2.46429 0.0714,-3.57143 0.21428,-0.75 0.28571,-1.46428 0.39286,-2.17857 0.0357,-0.17857 0.28571,-0.28571 0.42857,-0.42857 0.0714,0.0357 0.14285,0.0714 0.21428,0.10714 0,0.32143 -0.0357,0.64286 0,0.92857 0.0714,0.42857 0.17857,0.85715 0.25,1.28572 0.0714,0.39285 0.21429,0.78571 0.28572,1.17857 0.14285,0.85714 0.28571,1.75 0.42857,2.67857 z"
         id="path168"
         inkscape:connector-curvature="0" /><path
         style="stroke-width:0.35714287"
         d="m 84.535715,610.69283 c 0,-2.82143 0,-5.53571 0,-8.28571 0.03571,0 0.07143,0 0.107143,-0.0357 0.428571,1.64286 0.821428,3.28572 1.25,4.89286 0.03571,0.10714 0.07143,0.21429 0.07143,0.32143 0.535715,1.96428 0.5,2.03571 -1.428571,3.10714 z"
         id="path170"
         inkscape:connector-curvature="0" /><path
         style="stroke-width:0.35714287"
         d="m 147.17857,552.65712 c 0.32143,0 0.53572,0 0.78572,0 0.42857,1.92857 -0.14286,4 0.82143,5.96428 -0.82143,0 -1.60715,0 -2.35715,0 0,-0.0714 -0.0357,-0.14285 -0.0357,-0.14285 0.85714,-0.96429 0.53571,-2.17858 0.67857,-3.28572 0.0714,-0.82143 0.0714,-1.64286 0.10714,-2.53571 z"
         id="path172"
         inkscape:connector-curvature="0" /><path
         style="stroke-width:0.35714287"
         d="m 130.25,578.72855 c 0.14286,-0.17858 0.25,-0.42858 0.46429,-0.5 3.67857,-1.82143 7.39285,-3.64286 11.07143,-5.46429 0.0357,0.0357 0.10714,0.0714 0.14285,0.10714 -0.10714,0.17857 -0.21428,0.46429 -0.35714,0.53572 -3.71429,1.85714 -7.39286,3.67857 -11.10714,5.5 -0.0714,-0.0357 -0.14286,-0.10715 -0.21429,-0.17857 z"
         id="path174"
         inkscape:connector-curvature="0" /><path
         style="stroke-width:0.35714287"
         d="m 142.71429,572.58569 c 0.10714,-0.17857 0.21428,-0.39286 0.35714,-0.46429 2.25,-1.14285 4.53571,-2.25 6.82143,-3.35714 0.0357,0.0357 0.10714,0.0714 0.14286,0.14286 -0.10715,0.17857 -0.14286,0.46428 -0.32143,0.53571 -2.28572,1.14286 -4.57143,2.25 -6.85715,3.35714 -0.0357,-0.10714 -0.10714,-0.14285 -0.14285,-0.21428 z"
         id="path176"
         inkscape:connector-curvature="0" /><path
         style="stroke-width:0.35714287"
         d="m 109.60714,580.8714 c -0.5,-0.35714 -0.96428,-0.71428 -1.46428,-1.07143 -0.85714,-0.64285 -1.71429,-1.25 -2.57143,-1.89285 -0.32143,-0.25 -0.64286,-0.53572 -0.42857,-1 1.57143,0.71428 4.21428,2.92857 4.46428,3.96428 z"
         id="path178"
         inkscape:connector-curvature="0" /><path
         style="stroke-width:0.35714287"
         d="m 104.53572,649.58569 c 0.67857,-0.35714 1.28571,-0.67857 1.96428,-1.07143 0.0357,0.42857 0.0357,0.71429 0.0357,1.07143 -0.28572,0.0357 -0.5,0.10714 -0.89286,0.17857 0.35714,0.0714 0.57143,0.10714 0.82143,0.14286 0,0.46428 0,0.89285 0,1.5 -0.64286,-0.64286 -1.21429,-1.17857 -1.92857,-1.82143 z"
         id="path180"
         inkscape:connector-curvature="0" /><path
         style="stroke-width:0.35714287"
         d="m 94.678572,635.15712 c 0,-0.5 0,-1 0,-1.60715 0.571429,0.25 1.071429,0.46429 1.571429,0.64286 -0.142857,1.17857 -0.25,1.25 -1.571429,0.96429 z"
         id="path182"
         inkscape:connector-curvature="0" /><path
         style="stroke-width:0.35714287"
         d="m 127.89286,579.58569 c -0.14286,0.67857 -2.57143,2.03571 -3.67857,2.21428 0.0714,-0.17857 0.0714,-0.35714 0.17857,-0.39285 1.10714,-0.64286 2.25,-1.17857 3.5,-1.82143 z"
         id="path184"
         inkscape:connector-curvature="0" /><path
         style="stroke-width:0.35714287"
         d="m 129.82143,578.6214 c 0,0.42857 0,0.89286 0,1.32143 -0.0357,0 -0.0714,0.0357 -0.10714,0.0357 -0.0714,-0.21429 -0.10715,-0.42858 -0.17857,-0.71429 -0.14286,0.28571 -0.25,0.53571 -0.42858,0.89286 -0.17857,-0.28572 -0.32142,-0.46429 -0.46428,-0.67857 -0.0714,0.17857 -0.10714,0.32142 -0.21429,0.71428 -0.0714,-0.21428 -0.10714,-0.28571 -0.10714,-0.32143 0,-0.28571 -0.0357,-0.60714 0,-0.89285 0,-0.14286 0.10714,-0.28572 0.17857,-0.42858 0.10714,0.10715 0.25,0.21429 0.35714,0.35715 0.0714,0.14285 0.10715,0.28571 0.17858,0.5 0.21428,-0.35715 0.39285,-0.64286 0.57142,-0.92857 0.0714,0.0714 0.14286,0.10714 0.21429,0.14285 z"
         id="path186"
         inkscape:connector-curvature="0" /><path
         style="stroke-width:0.35714287"
         d="m 143.60714,575.94283 c -0.0714,0 -0.17857,0.0357 -0.25,0.0357 -0.14285,0 -0.25,0 -0.39285,-0.0357 -0.32143,-1.07143 -0.17857,-1.5 0.64285,-1.96428 0,0.67857 0,1.32142 0,1.96428 z"
         id="path188"
         inkscape:connector-curvature="0" /><path
         style="stroke-width:0.35714287"
         d="m 105.21429,576.01426 c 1.46428,1.07143 2.92857,2.10714 4.39285,3.17857 -0.0357,0.0714 -0.10714,0.14286 -0.14285,0.17857 -1.46429,-1.07143 -2.96429,-2.10714 -4.42857,-3.17857 0.0714,-0.0357 0.14285,-0.10714 0.17857,-0.17857 z"
         id="path190"
         inkscape:connector-curvature="0" /><path
         style="stroke-width:0.35714287"
         d="m 130.96429,588.26426 c 0,-0.53571 -0.0357,-0.75 0,-1 0.0357,-0.17857 0.0714,-0.5 0.17857,-0.5 0.25,-0.0357 0.5,0 0.75,0.10714 0.0714,0.0357 0.10714,0.39286 0,0.53572 -0.25,0.28571 -0.57143,0.53571 -0.92857,0.85714 z"
         id="path192"
         inkscape:connector-curvature="0" /><path
         style="stroke-width:0.35714287"
         d="m 112.28572,614.19283 c 0.46428,-0.28571 0.82142,-0.46428 1.21428,-0.71428 0,0.57142 0,1.03571 0,1.60714 -0.42857,-0.32143 -0.75,-0.57143 -1.21428,-0.89286 z"
         id="path194"
         inkscape:connector-curvature="0" /><path
         style="stroke-width:0.35714287"
         d="m 142.67857,569.47855 c 0.39286,0.25 0.67857,0.42857 1.10715,0.67857 -0.39286,0.17857 -0.64286,0.32143 -1.03572,0.53571 0,-0.42857 -0.0357,-0.75 -0.0714,-1.21428 z"
         id="path196"
         inkscape:connector-curvature="0" /><path
         style="stroke-width:0.35714287"
         d="m 94.285715,583.04997 c 0.03571,0.71429 0.107143,1.46429 0.142857,2.17858 -0.07143,0 -0.142857,0 -0.214286,0.0357 0,-0.71429 0,-1.46429 0,-2.17857 0.03571,-0.0357 0.03571,-0.0357 0.07143,-0.0357 z"
         id="path198"
         inkscape:connector-curvature="0" /><path
         style="stroke-width:0.35714287"
         d="m 162.03572,562.72855 c 0.17857,0.82142 -0.53572,0.67857 -0.82143,1 -0.17857,-0.75 0.39285,-0.75 0.82143,-1 z"
         id="path200"
         inkscape:connector-curvature="0" /><path
         style="stroke-width:0.35714287"
         d="m 123.71429,581.94283 c -0.17857,0.14286 -0.35715,0.35714 -0.57143,0.46429 -0.17857,0.0714 -0.39286,0.0714 -0.60714,0.10714 0,-0.0714 -0.0357,-0.17857 -0.0357,-0.25 0.35714,-0.17857 0.71429,-0.32143 1.07143,-0.5 0.0357,0.0357 0.10714,0.10714 0.14286,0.17857 z"
         id="path202"
         inkscape:connector-curvature="0" /><path
         style="stroke-width:0.35714287"
         d="m 134.21429,630.8714 c 0.21428,-0.57143 0.57143,-0.60714 1.17857,-0.21428 -0.42857,0.17857 -0.75,0.32143 -1.07143,0.46428 -0.0714,-0.0714 -0.10714,-0.14285 -0.10714,-0.25 z"
         id="path204"
         inkscape:connector-curvature="0" /><path
         inkscape:connector-curvature="0"
         d="m 148.03572,551.69283 -0.85715,0.0714 c 0.0756,-0.47786 0.16308,-0.71949 0.28572,-1.17857 0.026,0.007 0.25968,-0.007 0.28571,0 0.13666,0.49846 0.17863,0.6623 0.28572,1.10714 z"
         id="path168-6"
         style="stroke-width:0.09540222"
         sodipodi:nodetypes="ccccc" /><path
         inkscape:connector-curvature="0"
         d="m 181.59022,581.12237 c -0.68856,0.71125 -1.42665,1.33987 -2.0545,1.49903 -0.0563,-0.9652 0.0717,-2.11769 0.60661,-3.02611 0.18202,-0.53189 0.14694,-1.15877 0.20325,-1.69816 0.0444,-1.09109 0.16641,-2.12613 0.35304,-3.21305 0.0281,-0.19872 0.0308,-0.39967 0.0871,-0.59839 0.0563,0 0.28573,0.002 0.34205,-0.0261 0.42322,1.37681 0.52871,2.70145 0.61315,3.84112 0.0845,0.68132 0.15216,1.40207 0.23151,2.06368 0.0845,0.42583 -0.10493,0.79251 -0.38221,1.15803 z"
         id="path158-7"
         style="stroke-width:0.28271714"
         sodipodi:nodetypes="cccccccccc" /></g></g></svg>