<?xml version="1.0" encoding="UTF-8" standalone="no"?>
<svg
   xmlns:dc="http://purl.org/dc/elements/1.1/"
   xmlns:cc="http://creativecommons.org/ns#"
   xmlns:rdf="http://www.w3.org/1999/02/22-rdf-syntax-ns#"
   xmlns:svg="http://www.w3.org/2000/svg"
   xmlns="http://www.w3.org/2000/svg"
   xmlns:xlink="http://www.w3.org/1999/xlink"
   height="203.89442"
   width="148.38"
   xml:space="preserve"
   viewBox="0 0 148.38001 203.89442"
   y="0px"
   x="0px"
   id="Layer_1"
   version="1.1"><metadata
     id="metadata3698"><rdf:RDF><cc:Work
         rdf:about=""><dc:format>image/svg+xml</dc:format><dc:type
           rdf:resource="http://purl.org/dc/dcmitype/StillImage" /><dc:title></dc:title></cc:Work></rdf:RDF></metadata><defs
     id="defs3696" /><style
     id="style3546"
     type="text/css">
	.st0{fill:#FFFFFF;}
	.st1{fill:#D81B60;}
	.st2{clip-path:url(#SVGID_2_);fill:#FFFFFF;}
	.st3{fill:none;stroke:#FFFFFF;stroke-width:5;stroke-miterlimit:10;}
</style><path
     style="fill:#ffffff"
     id="path3548"
     d="m 122.25873,62.65741 c -0.12891,-3.767 -0.70183,-7.41943 -1.64717,-10.91429 L 81.25135,29.01216 c 0.0286,-0.22917 0.043,-0.47266 0.043,-0.70183 0,-1.93364 -0.81643,-3.68107 -2.11984,-4.91287 l 0.4297,-6.63165 c -1.70447,-0.1862 -3.43758,-0.28646 -5.19933,-0.28646 -1.73311,0 -3.4519,0.10026 -5.15636,0.27214 l 0.44402,6.81785 c -1.20315,1.21747 -1.94796,2.89329 -1.94796,4.74099 0,0.22917 0.0143,0.45834 0.0286,0.67319 L 28.16947,51.87203 c -0.94534,3.49486 -1.50394,7.14728 -1.61853,10.89997 l 47.95415,-27.68679 47.75362,27.5722 z M 71.29671,28.31033 c 0,-1.77608 1.44664,-3.2084 3.2084,-3.2084 1.77608,0 3.2084,1.44664 3.2084,3.2084 0,1.77608 -1.44664,3.2084 -3.2084,3.2084 -1.76176,0.0143 -3.2084,-1.43232 -3.2084,-3.2084"
     class="st0" /><path
     style="fill:#ffffff"
     id="path3550"
     d="m 76.53901,28.31033 c 0,-1.11721 -0.91669,-2.0339 -2.0339,-2.0339 -1.11721,0 -2.0339,0.91669 -2.0339,2.0339 0,1.11721 0.91669,2.03389 2.0339,2.03389 1.13154,0 2.0339,-0.91668 2.0339,-2.03389"
     class="st0" /><g
     transform="matrix(0.14323222,0,0,0.14323222,-2.76867,-29.52684)"
     id="g3552"><path
       style="fill:#d81b60"
       id="path3554"
       d="m 572.1,369.5 c 9.1,8.6 14.8,20.8 14.8,34.3 0,1.7 -0.1,3.3 -0.3,4.9 L 861.3,567.3 C 825.7,436.8 713,338.1 575.1,323.2 l -3,46.3 z"
       class="st1" /><path
       style="fill:#d81b60"
       id="path3556"
       d="m 539.5,426.3 c 12.4,0 22.4,-10.1 22.4,-22.4 0,-12.4 -10.1,-22.4 -22.4,-22.4 -12.4,0 -22.4,10.1 -22.4,22.4 0,12.3 10.1,22.4 22.4,22.4 z"
       class="st1" /><path
       style="fill:#d81b60"
       id="path3558"
       d="M 872.8,643.6 539.4,451.1 204.7,644.4 c -0.1,3.7 -0.2,7.4 -0.2,11.2 0,184.6 149.7,334.3 334.3,334.3 184.6,0 334.3,-149.7 334.3,-334.3 0,-4.1 -0.1,-8.1 -0.3,-12 z"
       class="st1" /><path
       style="fill:#d81b60"
       id="path3560"
       d="m 492.6,408.6 c -0.2,-1.6 -0.2,-3.1 -0.2,-4.7 0,-12.9 5.2,-24.6 13.6,-33.1 l -3.1,-47.5 C 364.5,338.1 251.4,437.3 216.1,568.4 L 492.6,408.6 Z"
       class="st1" /></g><path
     style="fill:#ffffff"
     id="path3562"
     d="m 76.53901,28.31033 c 0,-1.11721 -0.91669,-2.0339 -2.0339,-2.0339 -1.11721,0 -2.0339,0.91669 -2.0339,2.0339 0,1.11721 0.91669,2.03389 2.0339,2.03389 1.13154,0 2.0339,-0.91668 2.0339,-2.03389"
     class="st0" /><g
     transform="matrix(0.14323222,0,0,0.14323222,-2.76867,-29.52684)"
     id="g3564"><defs
       id="defs3566"><path
         d="m 204.5,655.5 c 0,184.6 149.7,334.3 334.3,334.3 184.6,0 334.3,-149.7 334.3,-334.3 0,-184.6 -149.7,-334.3 -334.3,-334.3 -184.7,0 -334.3,149.7 -334.3,334.3"
         id="SVGID_1_" /></defs><clipPath
       id="SVGID_2_"><use
         height="100%"
         width="100%"
         y="0"
         x="0"
         id="use3570"
         style="overflow:visible"
         xlink:href="#SVGID_1_" /></clipPath><rect
       style="fill:#ffffff"
       clip-path="url(#SVGID_2_)"
       id="rect3572"
       height="60.200001"
       width="413.5"
       class="st2"
       y="830.79999"
       x="332.20001" /><rect
       style="fill:#ffffff"
       clip-path="url(#SVGID_2_)"
       id="rect3574"
       height="60.200001"
       width="413.5"
       class="st2"
       y="733.20001"
       x="332.20001" /><rect
       style="fill:#ffffff"
       clip-path="url(#SVGID_2_)"
       id="rect3576"
       height="60.200001"
       width="255.2"
       class="st2"
       y="538.29999"
       x="411.39999" /><rect
       style="fill:#ffffff"
       clip-path="url(#SVGID_2_)"
       id="rect3578"
       height="60.200001"
       width="60.200001"
       class="st2"
       y="635.79999"
       x="331.60001" /><rect
       style="fill:#ffffff"
       clip-path="url(#SVGID_2_)"
       id="rect3580"
       height="60.200001"
       width="60.200001"
       class="st2"
       y="635.79999"
       x="449.79999" /><rect
       style="fill:#ffffff"
       clip-path="url(#SVGID_2_)"
       id="rect3582"
       height="60.200001"
       width="60.200001"
       class="st2"
       y="635.79999"
       x="567.90002" /><rect
       style="fill:#ffffff"
       clip-path="url(#SVGID_2_)"
       id="rect3584"
       height="60.200001"
       width="60.200001"
       class="st2"
       y="635.79999"
       x="686" /></g><path
     style="fill:#d81b60"
     id="path3586"
     d="m 74.16135,120.26541 c -7.57698,0 -14.92479,-1.48961 -21.84291,-4.41155 C 45.6295,113.03219 39.62807,108.97871 34.47171,103.82235 29.31535,98.66599 25.2762,92.66456 22.4402,85.97562 19.51826,79.0575 18.02865,71.69537 18.02865,64.13271 c 0,-7.57699 1.48961,-14.9248 4.41155,-21.84292 C 25.26187,35.60085 29.31535,29.59942 34.47171,24.44306 39.62807,19.2867 45.6295,15.24755 52.31844,12.41155 59.23656,9.48961 66.59869,8 74.16135,8 c 7.56266,0 14.9248,1.48961 21.84292,4.41155 6.68894,2.82168 12.69037,6.87515 17.84673,12.03151 5.15636,5.15636 9.19551,11.15779 12.03151,17.84673 2.93626,6.91812 4.41155,14.26593 4.41155,21.84292 0,7.57698 -1.48961,14.92479 -4.41155,21.84291 -2.82168,6.68894 -6.87515,12.69037 -12.03151,17.84673 -5.15636,5.15636 -11.15779,9.19551 -17.84673,12.03151 -6.9038,2.92194 -14.26593,4.41155 -21.84292,4.41155 m 0,-106.93717 c -6.86082,0 -13.50679,1.34638 -19.78037,3.99618 -6.0444,2.56385 -11.48722,6.21627 -16.14227,10.88564 -4.65504,4.66937 -8.33611,10.09788 -10.88565,16.14228 -2.64979,6.25924 -3.99617,12.91954 -3.99617,19.78037 0,6.86082 1.34638,13.50679 3.99617,19.78036 2.56386,6.0444 6.21628,11.48723 10.88565,16.14228 4.66937,4.65504 10.09787,8.33611 16.14227,10.88564 6.25925,2.6498 12.91955,3.99618 19.78037,3.99618 6.86083,0 13.5068,-1.34638 19.78037,-3.99618 6.0444,-2.56385 11.48723,-6.21627 16.14227,-10.88564 4.66937,-4.66937 8.33612,-10.09788 10.88565,-16.14228 2.6498,-6.25924 3.99618,-12.91954 3.99618,-19.78036 0,-6.86083 -1.34638,-13.5068 -3.99618,-19.78037 -2.56385,-6.0444 -6.21628,-11.48723 -10.88565,-16.14228 C 105.41462,23.54069 99.98612,19.87395 93.94172,17.32442 87.68248,14.67462 81.02218,13.32824 74.16135,13.32824"
     class="st1" /><path
     style="fill:#d81b60"
     id="path3588"
     d="m 29.45858,157.21934 c 0,4.21103 -2.86465,5.39985 -5.80091,5.39985 -2.09119,0 -4.54046,-0.50131 -5.65767,-1.03127 l 0.9883,-3.5808 c 1.2318,0.6159 3.06517,1.14585 4.46885,1.14585 0.88804,0 2.01957,-0.34375 2.01957,-1.69014 0,-1.00262 -0.8021,-1.69014 -2.97923,-2.66412 -2.43495,-1.07424 -4.12509,-2.10551 -4.12509,-5.08474 0,-4.35426 3.58081,-5.2423 5.72929,-5.2423 2.01958,0 3.73836,0.37241 4.84125,0.83075 l -1.05992,3.3946 c -1.11721,-0.52996 -2.37765,-0.84507 -3.35163,-0.84507 -0.94533,0 -2.26307,0.1862 -2.26307,1.64717 0,0.88804 1.10289,1.44665 2.44927,2.10552 2.42063,1.18882 4.74099,2.39197 4.74099,5.6147 z"
     class="st1" /><path
     style="fill:#d81b60"
     id="path3590"
     d="m 45.1998,144.72949 0,3.3946 -4.38291,0 0,14.20864 -3.93888,0 0,-14.20865 -4.38291,0 0,-3.39459 12.7047,0 z"
     class="st1" /><path
     style="fill:#d81b60"
     id="path3592"
     d="m 115.39791,185.89443 -4.32561,0 -1.37503,-3.86727 -6.08737,0 -1.33206,3.86727 -3.96753,0 6.73191,-17.58892 3.62378,0 6.73191,17.58892 z m -6.56004,-6.88947 -2.13416,-6.4168 -2.14848,6.4168 4.28264,0 z"
     class="st1" /><path
     style="fill:#d81b60"
     id="path3594"
     d="m 62.73142,162.33273 -4.32561,0 -1.37503,-3.86727 -6.08737,0 -1.33206,3.86727 -3.96753,0 6.73191,-17.58892 3.62378,0 6.73191,17.58892 z m -6.54571,-6.90379 -2.13416,-6.41681 -2.14848,6.41681 4.28264,0 z"
     class="st1" /><path
     style="fill:#d81b60"
     id="path3596"
     d="m 75.45044,144.72949 0,3.3946 -4.3829,0 0,14.20864 -3.93889,0 0,-14.20865 -4.3829,0 0,-3.39459 12.70469,0 z"
     class="st1" /><path
     style="fill:#d81b60"
     id="path3598"
     d="m 89.42991,158.93813 0,3.3946 -10.39866,0 0,-17.58892 9.98328,0 0,3.39461 -6.13033,0 0,3.6381 5.31391,0 0,3.25137 -5.31391,0 0,3.92456 6.54571,0 z"
     class="st1" /><path
     style="fill:#d81b60"
     id="path3600"
     d="m 116.38621,153.48098 c 0,4.16806 -1.80472,9.32442 -8.4507,9.32442 -6.64597,0 -8.4507,-5.15636 -8.4507,-9.35307 0,-4.08212 1.80473,-9.13821 8.4507,-9.13821 6.64598,0 8.4507,5.07042 8.4507,9.16686 z m -4.1967,-0.0573 c 0,-4.28265 -1.7904,-5.65769 -4.26832,-5.65769 -2.47792,0 -4.26832,1.37504 -4.26832,5.65769 0,4.3829 1.7904,5.88684 4.26832,5.88684 2.47792,0 4.26832,-1.51826 4.26832,-5.88684 z"
     class="st1" /><path
     style="fill:#d81b60"
     id="path3602"
     d="m 124.42154,148.12409 0,3.96754 5.34256,0 0,3.3946 -5.34256,0 0,6.8465 -3.89592,0 0,-17.58892 9.85438,0 0,3.39461 -5.95846,0 z"
     class="st1" /><path
     style="fill:#d81b60"
     id="path3604"
     d="m 30.54714,168.40578 0,3.35163 -4.32561,0 0,14.03676 -3.89592,0 0,-14.03676 -4.32561,0 0,-3.35163 12.54714,0 z"
     class="st1" /><path
     style="fill:#d81b60"
     id="path3606"
     d="m 49.33921,168.40578 0,17.38839 -3.89592,0 0,-7.20458 -6.97541,0 0,7.20458 -3.89591,0 0,-17.38839 3.89591,0 0,6.83217 6.97541,0 0,-6.83217 3.89592,0 z"
     class="st1" /><path
     style="fill:#d81b60"
     id="path3608"
     d="m 64.06348,182.44253 0,3.35164 -10.28407,0 0,-17.38839 9.8687,0 0,3.35163 -6.07305,0 0,3.59513 5.25662,0 0,3.22272 -5.25662,0 0,3.86727 6.48842,0 z"
     class="st1" /><path
     style="fill:#d81b60"
     id="path3610"
     d="m 95.64619,185.79417 -3.92457,0 -0.50131,-12.67605 -3.70971,11.87395 -3.39461,0 -3.73836,-11.87395 -0.38673,12.67605 -3.69539,0 0.90237,-17.38839 5.14203,0 3.59513,11.6591 3.46622,-11.6591 5.32824,0 0.91669,17.38839 z"
     class="st1" /><path
     style="fill:#d81b60"
     id="path3612"
     d="m 130.38,173.90589 c 0,4.39723 -2.92194,6.15899 -6.08737,6.15899 l -2.34901,0 0,5.72929 -3.89591,0 0,-17.38839 4.98448,0 c 4.08212,0 7.34781,1.24612 7.34781,5.50011 z m -3.96753,0.2435 c 0,-1.48962 -1.01695,-2.4063 -3.2657,-2.4063 l -1.21747,0 0,5.09906 1.31774,0 c 2.19145,0.0143 3.16543,-0.64454 3.16543,-2.69276 z"
     class="st1" /><path
     style="fill:none;stroke:#ffffff;stroke-width:0.71616107;stroke-miterlimit:10"
     id="path3614"
     d="M 53.97993,144.82975"
     class="st3" /><g
     transform="matrix(0.14323222,0,0,0.14323222,-2.76867,-29.52684)"
     id="g3616"><path
       style="fill:#d81b60"
       id="path3618"
       d="m 201.4,1181.1 -3.2,2.2 c -4.8,-6.1 -12.2,-13.5 -18.3,-18.6 -6.4,7.7 -14.4,14.3 -22.8,18.6 l -2.3,-3 c 16.3,-7.7 30.1,-24.8 34.2,-38 l -30.6,0 0,-3.3 32.7,0 2.5,1.4 c -2.3,7.4 -6.4,14.9 -11.5,21.6 6.5,5.5 14,12.9 19.3,19.1 z"
       class="st1" /><path
       style="fill:#d81b60"
       id="path3620"
       d="m 269.7,1155.1 -20.3,0 c -0.3,13.2 -3.7,21.6 -16.7,28.5 l -2.7,-2.8 c 12.5,-6.1 15.5,-13.2 15.7,-25.7 l -24.3,0 0,-3.3 48.2,0 0,3.3 z m -6.5,-14.3 -35.1,0 0,-3.3 35.1,0 0,3.3 z"
       class="st1" /><path
       style="fill:#d81b60"
       id="path3622"
       d="m 317.2,1150.4 0,33 -3.7,0 0,-30.3 c -7.2,5 -14.8,9.3 -21.6,11.9 l -1.9,-3.2 c 14.1,-5 33.3,-18.7 40.8,-28.6 l 2.9,2.2 c -3.9,4.7 -9.8,10 -16.5,15 z"
       class="st1" /><path
       style="fill:#d81b60"
       id="path3624"
       d="m 390.7,1167.7 c -6.6,-4.7 -17.1,-10.5 -25.1,-14.2 l 0,29.9 -3.7,0 0,-50.4 3.7,0 0,16.6 c 8.3,3.8 19.9,10.1 27.5,15.2 l -2.4,2.9 z"
       class="st1" /><path
       style="fill:#d81b60"
       id="path3626"
       d="m 427.5,1158.2 c 0,1.9 -1.6,3.5 -3.5,3.5 -1.9,0 -3.5,-1.6 -3.5,-3.5 0,-1.9 1.6,-3.5 3.5,-3.5 1.9,0 3.5,1.6 3.5,3.5 z"
       class="st1" /><path
       style="fill:#d81b60"
       id="path3628"
       d="m 502,1148.9 -15.4,0 0,26.7 c 0,5.1 -1.9,7.9 -7.3,7.9 -2.5,0 -5.2,-0.1 -7.8,-0.5 l 0,-3.5 c 2.3,0.4 5,0.5 7.1,0.5 3.2,0 4.4,-1.5 4.4,-4.6 l 0,-22.2 c -6.2,9 -16.8,18.7 -25.9,24.4 l -2.5,-2.7 c 9.5,-5.4 21.6,-16.7 27,-25.9 l -26.6,0 0,-3.4 28,0 0,-12.6 3.6,0 0,12.5 15.4,0 0,3.4 z"
       class="st1" /><path
       style="fill:#d81b60"
       id="path3630"
       d="m 561.9,1140.4 2.8,1.5 c -4.2,18.4 -13.8,33.1 -32.6,41.3 l -2.4,-2.9 c 18,-7.5 27.1,-20.9 30.7,-36.6 l -37.8,0 0,-3.4 39.3,0 z m -1.1,-9.1 c 2.4,2.5 4.5,5.4 6.3,8.5 l -2,1.3 c -1.7,-3 -3.9,-6 -6.2,-8.5 l 1.9,-1.3 z m 12.7,6 -2,1.2 c -1.7,-3 -3.9,-6 -6.2,-8.5 l 1.9,-1.3 c 2.4,2.5 4.4,5.5 6.3,8.6 z"
       class="st1" /><path
       style="fill:#d81b60"
       id="path3632"
       d="m 604.3,1158.2 c 0,1.9 -1.6,3.5 -3.5,3.5 -1.9,0 -3.5,-1.6 -3.5,-3.5 0,-1.9 1.6,-3.5 3.5,-3.5 1.9,0 3.5,1.6 3.5,3.5 z"
       class="st1" /><path
       style="fill:#d81b60"
       id="path3634"
       d="m 669.7,1145 11.2,0 0,3.3 -11.2,0 0,6.6 c 0,13.6 -5.1,22.3 -19,28.7 l -2.3,-3 c 13.4,-5.6 17.7,-13.6 17.7,-25.4 l 0,-6.9 -20.8,0 0,15.6 -3.5,0 0,-15.6 -11.2,0 0,-3.3 11.2,0 0,-11.9 3.5,0 0,11.9 20.8,0 0,-12 3.6,0 0,12 z m 8.3,-2.3 c -1.7,-3 -3.8,-6 -6,-8.3 l 1.7,-1.4 c 2.3,2.5 4.4,5.4 6.1,8.4 l -1.8,1.3 z m 7.2,-5.4 -1.9,1.3 c -1.7,-3 -3.7,-5.9 -6,-8.3 l 1.7,-1.3 c 2.3,2.5 4.4,5.3 6.2,8.3 z"
       class="st1" /><path
       style="fill:#d81b60"
       id="path3636"
       d="m 716,1158.2 c 0,1.9 -1.6,3.5 -3.5,3.5 -1.9,0 -3.5,-1.6 -3.5,-3.5 0,-1.9 1.6,-3.5 3.5,-3.5 1.9,0 3.5,1.6 3.5,3.5 z"
       class="st1" /><path
       style="fill:#d81b60"
       id="path3638"
       d="m 768.2,1169.7 c 3.7,3.8 7.2,7.6 9.6,10.6 l -3,2.3 c -5.1,-6.9 -16.6,-18.4 -24.1,-24.2 l 2.5,-2.4 c 3.8,3 8.2,7 12.5,11.2 7.3,-6.9 16.3,-17 21,-24.2 l -43,0 0,-3.4 45.6,0 3,2.1 c -6.4,9.5 -16.2,20.6 -24.1,28 z"
       class="st1" /><path
       style="fill:#d81b60"
       id="path3640"
       d="m 820.6,1164 -2.9,1.2 c -1,-3.6 -3.3,-8.9 -5.5,-12.3 l 2.8,-1.3 c 2.2,3.8 4.3,8.6 5.6,12.4 z m 25.3,-12.8 c -2.5,14.2 -10.7,26.1 -23.7,32 l -2.1,-2.8 c 12.9,-5.4 20.4,-16.4 22.6,-30 l 3.2,0.8 z m -17.7,11.8 c -0.9,-3.7 -3,-9 -4.9,-12.6 l 2.8,-1.2 c 2.1,3.9 3.9,8.8 5,12.6 l -2.9,1.2 z"
       class="st1" /><path
       style="fill:#d81b60"
       id="path3642"
       d="m 908.2,1140.6 2.8,1.5 c -4.2,18.4 -13.7,32.9 -32.5,41.1 l -2.5,-2.9 c 18,-7.5 27.2,-20.7 30.7,-36.4 l -37.7,0 0,-3.4 39.2,0 z m 11.6,-5.7 c 0,3.4 -2.7,6.1 -6.1,6.1 -3.4,0 -6.1,-2.8 -6.1,-6.1 0,-3.3 2.7,-6.1 6.1,-6.1 3.4,0 6.1,2.7 6.1,6.1 z m -1.6,0 c 0,-2.5 -2,-4.5 -4.5,-4.5 -2.5,0 -4.5,2 -4.5,4.5 0,2.5 2,4.6 4.5,4.6 2.5,0 4.5,-2.1 4.5,-4.6 z"
       class="st1" /></g></svg>