<?xml version="1.0" encoding="UTF-8" standalone="no"?>
<!-- Generator: Adobe Illustrator 21.0.0, SVG Export Plug-In . SVG Version: 6.00 Build 0)  -->

<svg
   xmlns:dc="http://purl.org/dc/elements/1.1/"
   xmlns:cc="http://creativecommons.org/ns#"
   xmlns:rdf="http://www.w3.org/1999/02/22-rdf-syntax-ns#"
   xmlns:svg="http://www.w3.org/2000/svg"
   xmlns="http://www.w3.org/2000/svg"
   xmlns:xlink="http://www.w3.org/1999/xlink"
   xmlns:sodipodi="http://sodipodi.sourceforge.net/DTD/sodipodi-0.dtd"
   xmlns:inkscape="http://www.inkscape.org/namespaces/inkscape"
   version="1.1"
   id="Layer_1"
   x="0px"
   y="0px"
   viewBox="0 0 984.6 1517.3"
   xml:space="preserve"
   inkscape:version="0.91 r13725"
   sodipodi:docname="logo-dark2.svg"
   width="984.59998"
   height="1517.3"><metadata
     id="metadata3698"><rdf:RDF><cc:Work
         rdf:about=""><dc:format>image/svg+xml</dc:format><dc:type
           rdf:resource="http://purl.org/dc/dcmitype/StillImage" /><dc:title></dc:title></cc:Work></rdf:RDF></metadata><defs
     id="defs3696" /><sodipodi:namedview
     pagecolor="#ffffff"
     bordercolor="#666666"
     borderopacity="1"
     objecttolerance="10"
     gridtolerance="10"
     guidetolerance="10"
     inkscape:pageopacity="0"
     inkscape:pageshadow="2"
     inkscape:window-width="1301"
     inkscape:window-height="744"
     id="namedview3694"
     showgrid="false"
     fit-margin-top="100"
     fit-margin-left="100"
     fit-margin-right="100"
     fit-margin-bottom="100"
     inkscape:zoom="0.46079101"
     inkscape:cx="101.76888"
     inkscape:cy="845.45704"
     inkscape:window-x="65"
     inkscape:window-y="24"
     inkscape:window-maximized="1"
     inkscape:current-layer="Layer_1" /><style
     type="text/css"
     id="style3546">
	.st0{fill:#FFFFFF;}
	.st1{fill:#D81B60;}
	.st2{clip-path:url(#SVGID_2_);fill:#FFFFFF;}
	.st3{fill:none;stroke:#FFFFFF;stroke-width:5;stroke-miterlimit:10;}
</style><path
     class="st0"
     d="M 827.9,481.6 C 827,455.3 823,429.8 816.4,405.4 L 541.6,246.7 c 0.2,-1.6 0.3,-3.3 0.3,-4.9 0,-13.5 -5.7,-25.7 -14.8,-34.3 l 3,-46.3 c -11.9,-1.3 -24,-2 -36.3,-2 -12.1,0 -24.1,0.7 -36,1.9 l 3.1,47.6 c -8.4,8.5 -13.6,20.2 -13.6,33.1 0,1.6 0.1,3.2 0.2,4.7 L 171,406.3 c -6.6,24.4 -10.5,49.9 -11.3,76.1 L 494.5,289.1 827.9,481.6 Z M 472.1,241.8 c 0,-12.4 10.1,-22.4 22.4,-22.4 12.4,0 22.4,10.1 22.4,22.4 0,12.4 -10.1,22.4 -22.4,22.4 -12.3,0.1 -22.4,-10 -22.4,-22.4"
     id="path3548"
     inkscape:connector-curvature="0"
     style="fill:#ffffff" /><path
     class="st0"
     d="m 508.7,241.8 c 0,-7.8 -6.4,-14.2 -14.2,-14.2 -7.8,0 -14.2,6.4 -14.2,14.2 0,7.8 6.4,14.2 14.2,14.2 7.9,0 14.2,-6.4 14.2,-14.2"
     id="path3550"
     inkscape:connector-curvature="0"
     style="fill:#ffffff" /><g
     id="g3552"
     transform="translate(-45,-162)"><path
       class="st1"
       d="m 572.1,369.5 c 9.1,8.6 14.8,20.8 14.8,34.3 0,1.7 -0.1,3.3 -0.3,4.9 L 861.3,567.3 C 825.7,436.8 713,338.1 575.1,323.2 l -3,46.3 z"
       id="path3554"
       inkscape:connector-curvature="0"
       style="fill:#d81b60" /><path
       class="st1"
       d="m 539.5,426.3 c 12.4,0 22.4,-10.1 22.4,-22.4 0,-12.4 -10.1,-22.4 -22.4,-22.4 -12.4,0 -22.4,10.1 -22.4,22.4 0,12.3 10.1,22.4 22.4,22.4 z"
       id="path3556"
       inkscape:connector-curvature="0"
       style="fill:#d81b60" /><path
       class="st1"
       d="M 872.8,643.6 539.4,451.1 204.7,644.4 c -0.1,3.7 -0.2,7.4 -0.2,11.2 0,184.6 149.7,334.3 334.3,334.3 184.6,0 334.3,-149.7 334.3,-334.3 0,-4.1 -0.1,-8.1 -0.3,-12 z"
       id="path3558"
       inkscape:connector-curvature="0"
       style="fill:#d81b60" /><path
       class="st1"
       d="m 492.6,408.6 c -0.2,-1.6 -0.2,-3.1 -0.2,-4.7 0,-12.9 5.2,-24.6 13.6,-33.1 l -3.1,-47.5 C 364.5,338.1 251.4,437.3 216.1,568.4 L 492.6,408.6 Z"
       id="path3560"
       inkscape:connector-curvature="0"
       style="fill:#d81b60" /></g><path
     class="st0"
     d="m 508.7,241.8 c 0,-7.8 -6.4,-14.2 -14.2,-14.2 -7.8,0 -14.2,6.4 -14.2,14.2 0,7.8 6.4,14.2 14.2,14.2 7.9,0 14.2,-6.4 14.2,-14.2"
     id="path3562"
     inkscape:connector-curvature="0"
     style="fill:#ffffff" /><g
     id="g3564"
     transform="translate(-45,-162)"><defs
       id="defs3566"><path
         id="SVGID_1_"
         d="m 204.5,655.5 c 0,184.6 149.7,334.3 334.3,334.3 184.6,0 334.3,-149.7 334.3,-334.3 0,-184.6 -149.7,-334.3 -334.3,-334.3 -184.7,0 -334.3,149.7 -334.3,334.3"
         inkscape:connector-curvature="0" /></defs><clipPath
       id="SVGID_2_"><use
         xlink:href="#SVGID_1_"
         style="overflow:visible"
         id="use3570"
         x="0"
         y="0"
         width="100%"
         height="100%" /></clipPath><rect
       x="332.20001"
       y="830.79999"
       class="st2"
       width="413.5"
       height="60.200001"
       id="rect3572"
       clip-path="url(#SVGID_2_)"
       style="fill:#ffffff" /><rect
       x="332.20001"
       y="733.20001"
       class="st2"
       width="413.5"
       height="60.200001"
       id="rect3574"
       clip-path="url(#SVGID_2_)"
       style="fill:#ffffff" /><rect
       x="411.39999"
       y="538.29999"
       class="st2"
       width="255.2"
       height="60.200001"
       id="rect3576"
       clip-path="url(#SVGID_2_)"
       style="fill:#ffffff" /><rect
       x="331.60001"
       y="635.79999"
       class="st2"
       width="60.200001"
       height="60.200001"
       id="rect3578"
       clip-path="url(#SVGID_2_)"
       style="fill:#ffffff" /><rect
       x="449.79999"
       y="635.79999"
       class="st2"
       width="60.200001"
       height="60.200001"
       id="rect3580"
       clip-path="url(#SVGID_2_)"
       style="fill:#ffffff" /><rect
       x="567.90002"
       y="635.79999"
       class="st2"
       width="60.200001"
       height="60.200001"
       id="rect3582"
       clip-path="url(#SVGID_2_)"
       style="fill:#ffffff" /><rect
       x="686"
       y="635.79999"
       class="st2"
       width="60.200001"
       height="60.200001"
       id="rect3584"
       clip-path="url(#SVGID_2_)"
       style="fill:#ffffff" /></g><path
     class="st1"
     d="M 492.1,883.8 C 439.2,883.8 387.9,873.4 339.6,853 292.9,833.3 251,805 215,769 179,733 150.8,691.1 131,644.4 110.6,596.1 100.2,544.7 100.2,491.9 c 0,-52.9 10.4,-104.2 30.8,-152.5 19.7,-46.7 48,-88.6 84,-124.6 36,-36 77.9,-64.2 124.6,-84 48.3,-20.4 99.7,-30.8 152.5,-30.8 52.8,0 104.2,10.4 152.5,30.8 46.7,19.7 88.6,48 124.6,84 36,36 64.2,77.9 84,124.6 20.5,48.3 30.8,99.6 30.8,152.5 0,52.9 -10.4,104.2 -30.8,152.5 -19.7,46.7 -48,88.6 -84,124.6 -36,36 -77.9,64.2 -124.6,84 -48.2,20.4 -99.6,30.8 -152.5,30.8 m 0,-746.6 c -47.9,0 -94.3,9.4 -138.1,27.9 -42.2,17.9 -80.2,43.4 -112.7,76 -32.5,32.6 -58.2,70.5 -76,112.7 -18.5,43.7 -27.9,90.2 -27.9,138.1 0,47.9 9.4,94.3 27.9,138.1 17.9,42.2 43.4,80.2 76,112.7 32.6,32.5 70.5,58.2 112.7,76 43.7,18.5 90.2,27.9 138.1,27.9 47.9,0 94.3,-9.4 138.1,-27.9 42.2,-17.9 80.2,-43.4 112.7,-76 32.6,-32.6 58.2,-70.5 76,-112.7 18.5,-43.7 27.9,-90.2 27.9,-138.1 0,-47.9 -9.4,-94.3 -27.9,-138.1 C 801,311.6 775.5,273.6 742.9,241.1 710.3,208.5 672.4,182.9 630.2,165.1 586.5,146.6 540,137.2 492.1,137.2"
     id="path3586"
     inkscape:connector-curvature="0"
     style="fill:#d81b60" /><path
     class="st1"
     d="m 180,1141.8001 c 0,29.4 -20,37.7 -40.5,37.7 -14.6,0 -31.7,-3.5 -39.5,-7.2 l 6.9,-25 c 8.6,4.3 21.4,8 31.2,8 6.2,0 14.1,-2.4 14.1,-11.8 0,-7 -5.6,-11.8 -20.8,-18.6 -17,-7.5 -28.8,-14.7 -28.8,-35.5 0,-30.4 25,-36.6 40,-36.6 14.1,0 26.1,2.6 33.8,5.8 l -7.4,23.7 c -7.8,-3.7 -16.6,-5.9 -23.4,-5.9 -6.6,0 -15.8,1.3 -15.8,11.5 0,6.2 7.7,10.1 17.1,14.7 16.9,8.3 33.1,16.7 33.1,39.2 z"
     id="path3588"
     inkscape:connector-curvature="0"
     style="fill:#d81b60" /><path
     class="st1"
     d="m 289.9,1054.6001 0,23.7 -30.6,0 0,99.2 -27.5,0 0,-99.2001 -30.6,0 0,-23.6999 88.7,0 z"
     id="path3590"
     inkscape:connector-curvature="0"
     style="fill:#d81b60" /><path
     class="st1"
     d="m 780,1342.0001 -30.2,0 -9.6,-27 -42.5,0 -9.3,27 -27.7,0 47,-122.8 25.3,0 47,122.8 z m -45.8,-48.1 -14.9,-44.8 -15,44.8 29.9,0 z"
     id="path3592"
     inkscape:connector-curvature="0"
     style="fill:#d81b60" /><path
     class="st1"
     d="m 412.3,1177.5001 -30.2,0 -9.6,-27 -42.5,0 -9.3,27 -27.7,0 47,-122.8 25.3,0 47,122.8 z m -45.7,-48.2 -14.9,-44.8 -15,44.8 29.9,0 z"
     id="path3594"
     inkscape:connector-curvature="0"
     style="fill:#d81b60" /><path
     class="st1"
     d="m 501.1,1054.6001 0,23.7 -30.6,0 0,99.2 -27.5,0 0,-99.2001 -30.6,0 0,-23.6999 88.7,0 z"
     id="path3596"
     inkscape:connector-curvature="0"
     style="fill:#d81b60" /><path
     class="st1"
     d="m 598.7,1153.8001 0,23.7 -72.6,0 0,-122.8 69.7,0 0,23.7 -42.8,0 0,25.4 37.1,0 0,22.7 -37.1,0 0,27.4 45.7,0 z"
     id="path3598"
     inkscape:connector-curvature="0"
     style="fill:#d81b60" /><path
     class="st1"
     d="m 786.9,1115.7001 c 0,29.1 -12.6,65.1 -59,65.1 -46.4,0 -59,-36 -59,-65.3 0,-28.5 12.6,-63.8 59,-63.8 46.4,0 59,35.4 59,64 z m -29.3,-0.4 c 0,-29.9 -12.5,-39.5001 -29.8,-39.5001 -17.3,0 -29.8,9.6001 -29.8,39.5001 0,30.6 12.5,41.1 29.8,41.1 17.3,0 29.8,-10.6 29.8,-41.1 z"
     id="path3600"
     inkscape:connector-curvature="0"
     style="fill:#d81b60" /><path
     class="st1"
     d="m 843,1078.3001 0,27.7 37.3,0 0,23.7 -37.3,0 0,47.8 -27.2,0 0,-122.8 68.8,0 0,23.7 -41.6,0 z"
     id="path3602"
     inkscape:connector-curvature="0"
     style="fill:#d81b60" /><path
     class="st1"
     d="m 187.6,1219.9001 0,23.4 -30.2,0 0,98 -27.2,0 0,-98 -30.2,0 0,-23.4 87.6,0 z"
     id="path3604"
     inkscape:connector-curvature="0"
     style="fill:#d81b60" /><path
     class="st1"
     d="m 318.8,1219.9001 0,121.4 -27.2,0 0,-50.3 -48.7,0 0,50.3 -27.2,0 0,-121.4 27.2,0 0,47.7 48.7,0 0,-47.7 27.2,0 z"
     id="path3606"
     inkscape:connector-curvature="0"
     style="fill:#d81b60" /><path
     class="st1"
     d="m 421.6,1317.9001 0,23.4 -71.8,0 0,-121.4 68.9,0 0,23.4 -42.4,0 0,25.1 36.7,0 0,22.5 -36.7,0 0,27 45.3,0 z"
     id="path3608"
     inkscape:connector-curvature="0"
     style="fill:#d81b60" /><path
     class="st1"
     d="m 642.1,1341.3001 -27.4,0 -3.5,-88.5 -25.9,82.9 -23.7,0 -26.1,-82.9 -2.7,88.5 -25.8,0 6.3,-121.4 35.9,0 25.1,81.4 24.2,-81.4 37.2,0 6.4,121.4 z"
     id="path3610"
     inkscape:connector-curvature="0"
     style="fill:#d81b60" /><path
     class="st1"
     d="m 884.6,1258.3001 c 0,30.7 -20.4,43 -42.5,43 l -16.4,0 0,40 -27.2,0 0,-121.4 34.8,0 c 28.5,0 51.3,8.7 51.3,38.4 z m -27.7,1.7 c 0,-10.4 -7.1,-16.8 -22.8,-16.8 l -8.5,0 0,35.6 9.2,0 c 15.3,0.1 22.1,-4.5 22.1,-18.8 z"
     id="path3612"
     inkscape:connector-curvature="0"
     style="fill:#d81b60" /><path
     class="st3"
     d="M 351.2,1055.3001"
     id="path3614"
     inkscape:connector-curvature="0"
     style="fill:none;stroke:#ffffff;stroke-width:5;stroke-miterlimit:10" /><g
     id="g3616"
     transform="translate(-45,-162)"><path
       class="st1"
       d="m 201.4,1181.1 -3.2,2.2 c -4.8,-6.1 -12.2,-13.5 -18.3,-18.6 -6.4,7.7 -14.4,14.3 -22.8,18.6 l -2.3,-3 c 16.3,-7.7 30.1,-24.8 34.2,-38 l -30.6,0 0,-3.3 32.7,0 2.5,1.4 c -2.3,7.4 -6.4,14.9 -11.5,21.6 6.5,5.5 14,12.9 19.3,19.1 z"
       id="path3618"
       inkscape:connector-curvature="0"
       style="fill:#d81b60" /><path
       class="st1"
       d="m 269.7,1155.1 -20.3,0 c -0.3,13.2 -3.7,21.6 -16.7,28.5 l -2.7,-2.8 c 12.5,-6.1 15.5,-13.2 15.7,-25.7 l -24.3,0 0,-3.3 48.2,0 0,3.3 z m -6.5,-14.3 -35.1,0 0,-3.3 35.1,0 0,3.3 z"
       id="path3620"
       inkscape:connector-curvature="0"
       style="fill:#d81b60" /><path
       class="st1"
       d="m 317.2,1150.4 0,33 -3.7,0 0,-30.3 c -7.2,5 -14.8,9.3 -21.6,11.9 l -1.9,-3.2 c 14.1,-5 33.3,-18.7 40.8,-28.6 l 2.9,2.2 c -3.9,4.7 -9.8,10 -16.5,15 z"
       id="path3622"
       inkscape:connector-curvature="0"
       style="fill:#d81b60" /><path
       class="st1"
       d="m 390.7,1167.7 c -6.6,-4.7 -17.1,-10.5 -25.1,-14.2 l 0,29.9 -3.7,0 0,-50.4 3.7,0 0,16.6 c 8.3,3.8 19.9,10.1 27.5,15.2 l -2.4,2.9 z"
       id="path3624"
       inkscape:connector-curvature="0"
       style="fill:#d81b60" /><path
       class="st1"
       d="m 427.5,1158.2 c 0,1.9 -1.6,3.5 -3.5,3.5 -1.9,0 -3.5,-1.6 -3.5,-3.5 0,-1.9 1.6,-3.5 3.5,-3.5 1.9,0 3.5,1.6 3.5,3.5 z"
       id="path3626"
       inkscape:connector-curvature="0"
       style="fill:#d81b60" /><path
       class="st1"
       d="m 502,1148.9 -15.4,0 0,26.7 c 0,5.1 -1.9,7.9 -7.3,7.9 -2.5,0 -5.2,-0.1 -7.8,-0.5 l 0,-3.5 c 2.3,0.4 5,0.5 7.1,0.5 3.2,0 4.4,-1.5 4.4,-4.6 l 0,-22.2 c -6.2,9 -16.8,18.7 -25.9,24.4 l -2.5,-2.7 c 9.5,-5.4 21.6,-16.7 27,-25.9 l -26.6,0 0,-3.4 28,0 0,-12.6 3.6,0 0,12.5 15.4,0 0,3.4 z"
       id="path3628"
       inkscape:connector-curvature="0"
       style="fill:#d81b60" /><path
       class="st1"
       d="m 561.9,1140.4 2.8,1.5 c -4.2,18.4 -13.8,33.1 -32.6,41.3 l -2.4,-2.9 c 18,-7.5 27.1,-20.9 30.7,-36.6 l -37.8,0 0,-3.4 39.3,0 z m -1.1,-9.1 c 2.4,2.5 4.5,5.4 6.3,8.5 l -2,1.3 c -1.7,-3 -3.9,-6 -6.2,-8.5 l 1.9,-1.3 z m 12.7,6 -2,1.2 c -1.7,-3 -3.9,-6 -6.2,-8.5 l 1.9,-1.3 c 2.4,2.5 4.4,5.5 6.3,8.6 z"
       id="path3630"
       inkscape:connector-curvature="0"
       style="fill:#d81b60" /><path
       class="st1"
       d="m 604.3,1158.2 c 0,1.9 -1.6,3.5 -3.5,3.5 -1.9,0 -3.5,-1.6 -3.5,-3.5 0,-1.9 1.6,-3.5 3.5,-3.5 1.9,0 3.5,1.6 3.5,3.5 z"
       id="path3632"
       inkscape:connector-curvature="0"
       style="fill:#d81b60" /><path
       class="st1"
       d="m 669.7,1145 11.2,0 0,3.3 -11.2,0 0,6.6 c 0,13.6 -5.1,22.3 -19,28.7 l -2.3,-3 c 13.4,-5.6 17.7,-13.6 17.7,-25.4 l 0,-6.9 -20.8,0 0,15.6 -3.5,0 0,-15.6 -11.2,0 0,-3.3 11.2,0 0,-11.9 3.5,0 0,11.9 20.8,0 0,-12 3.6,0 0,12 z m 8.3,-2.3 c -1.7,-3 -3.8,-6 -6,-8.3 l 1.7,-1.4 c 2.3,2.5 4.4,5.4 6.1,8.4 l -1.8,1.3 z m 7.2,-5.4 -1.9,1.3 c -1.7,-3 -3.7,-5.9 -6,-8.3 l 1.7,-1.3 c 2.3,2.5 4.4,5.3 6.2,8.3 z"
       id="path3634"
       inkscape:connector-curvature="0"
       style="fill:#d81b60" /><path
       class="st1"
       d="m 716,1158.2 c 0,1.9 -1.6,3.5 -3.5,3.5 -1.9,0 -3.5,-1.6 -3.5,-3.5 0,-1.9 1.6,-3.5 3.5,-3.5 1.9,0 3.5,1.6 3.5,3.5 z"
       id="path3636"
       inkscape:connector-curvature="0"
       style="fill:#d81b60" /><path
       class="st1"
       d="m 768.2,1169.7 c 3.7,3.8 7.2,7.6 9.6,10.6 l -3,2.3 c -5.1,-6.9 -16.6,-18.4 -24.1,-24.2 l 2.5,-2.4 c 3.8,3 8.2,7 12.5,11.2 7.3,-6.9 16.3,-17 21,-24.2 l -43,0 0,-3.4 45.6,0 3,2.1 c -6.4,9.5 -16.2,20.6 -24.1,28 z"
       id="path3638"
       inkscape:connector-curvature="0"
       style="fill:#d81b60" /><path
       class="st1"
       d="m 820.6,1164 -2.9,1.2 c -1,-3.6 -3.3,-8.9 -5.5,-12.3 l 2.8,-1.3 c 2.2,3.8 4.3,8.6 5.6,12.4 z m 25.3,-12.8 c -2.5,14.2 -10.7,26.1 -23.7,32 l -2.1,-2.8 c 12.9,-5.4 20.4,-16.4 22.6,-30 l 3.2,0.8 z m -17.7,11.8 c -0.9,-3.7 -3,-9 -4.9,-12.6 l 2.8,-1.2 c 2.1,3.9 3.9,8.8 5,12.6 l -2.9,1.2 z"
       id="path3640"
       inkscape:connector-curvature="0"
       style="fill:#d81b60" /><path
       class="st1"
       d="m 908.2,1140.6 2.8,1.5 c -4.2,18.4 -13.7,32.9 -32.5,41.1 l -2.5,-2.9 c 18,-7.5 27.2,-20.7 30.7,-36.4 l -37.7,0 0,-3.4 39.2,0 z m 11.6,-5.7 c 0,3.4 -2.7,6.1 -6.1,6.1 -3.4,0 -6.1,-2.8 -6.1,-6.1 0,-3.3 2.7,-6.1 6.1,-6.1 3.4,0 6.1,2.7 6.1,6.1 z m -1.6,0 c 0,-2.5 -2,-4.5 -4.5,-4.5 -2.5,0 -4.5,2 -4.5,4.5 0,2.5 2,4.6 4.5,4.6 2.5,0 4.5,-2.1 4.5,-4.6 z"
       id="path3642"
       inkscape:connector-curvature="0"
       style="fill:#d81b60" /></g><g
     id="g3644"
     transform="translate(-45,-162)"><path
       class="st1"
       d="m 175.7,1569.8 -1.7,-8.2 -9.5,0 -1.6,8.2 -7.4,0 c 1.7,-7 3.4,-13.4 5.1,-19.2 1.7,-5.8 3.4,-11.2 5,-16.4 l 7.7,0 c 1.7,5.2 3.4,10.7 5,16.6 1.6,5.9 3.3,12.2 4.9,19 l -7.5,0 z m -6.4,-28.6 c -0.4,1.3 -0.7,2.6 -1.1,3.8 -0.3,1.2 -0.6,2.4 -0.9,3.6 -0.3,1.2 -0.6,2.3 -0.8,3.5 -0.2,1.2 -0.5,2.4 -0.7,3.7 l 7,0 c -0.2,-1.3 -0.5,-2.5 -0.7,-3.7 -0.2,-1.2 -0.5,-2.4 -0.8,-3.5 -0.3,-1.2 -0.6,-2.4 -0.9,-3.6 -0.3,-1.2 -0.7,-2.5 -1.1,-3.8 z"
       id="path3646"
       inkscape:connector-curvature="0"
       style="fill:#d81b60" /><path
       class="st1"
       d="m 212.9,1568.7 c -1.5,0.7 -2.8,1.2 -4.1,1.4 -1.3,0.2 -2.5,0.4 -3.5,0.4 -1.8,0 -3.4,-0.3 -4.6,-0.8 -1.2,-0.5 -2.2,-1.3 -3,-2.3 -0.7,-1 -1.3,-2.3 -1.6,-3.7 -0.3,-1.5 -0.5,-3.1 -0.5,-5 l 0,-9.9 -7.5,0 0,-5.9 14.5,0 0,16.7 c 0,1.6 0.3,2.8 0.9,3.6 0.6,0.8 1.6,1.2 3,1.2 0.7,0 1.4,-0.1 2.4,-0.3 0.9,-0.2 2,-0.5 3.1,-1.1 l 0.9,5.7 z m -10.5,-33.6 c 0,1.4 -0.4,2.5 -1.3,3.3 -0.9,0.8 -1.9,1.2 -3.2,1.2 -1.2,0 -2.3,-0.4 -3.1,-1.2 -0.9,-0.8 -1.3,-1.9 -1.3,-3.3 0,-1.4 0.4,-2.5 1.3,-3.3 0.9,-0.8 1.9,-1.2 3.1,-1.2 1.2,0 2.3,0.4 3.2,1.2 0.8,0.7 1.3,1.8 1.3,3.3 z"
       id="path3648"
       inkscape:connector-curvature="0"
       style="fill:#d81b60" /><path
       class="st1"
       d="m 241.6,1548 c -0.5,0.6 -1.3,1.5 -2.3,2.7 -1,1.2 -2.1,2.6 -3.2,4.1 -1.2,1.5 -2.3,3.1 -3.5,4.7 -1.2,1.6 -2.2,3.1 -3.1,4.5 l 12.8,0 0,5.9 -21.3,0 0,-4.3 c 0.9,-1.5 1.8,-3 2.9,-4.5 1,-1.5 2.1,-3 3.1,-4.5 1,-1.5 2,-2.9 3,-4.2 1,-1.3 1.9,-2.5 2.7,-3.6 l -11.2,0 0,-5.9 20.1,0 0,5.1 z"
       id="path3650"
       inkscape:connector-curvature="0"
       style="fill:#d81b60" /><path
       class="st1"
       d="m 273.3,1568.9 c -1.3,0.3 -2.9,0.7 -4.7,1 -1.9,0.3 -3.9,0.5 -6.1,0.5 -2.2,0 -4,-0.3 -5.5,-0.9 -1.4,-0.6 -2.5,-1.5 -3.4,-2.6 -0.8,-1.1 -1.4,-2.5 -1.7,-4 -0.3,-1.5 -0.5,-3.2 -0.5,-5.1 l 0,-15.1 7.1,0 0,14.1 c 0,2.5 0.3,4.3 0.9,5.5 0.6,1.2 1.8,1.8 3.5,1.8 1.1,0 2.1,-0.1 3.2,-0.3 l 0,-21.2 7.1,0 0,26.3 z"
       id="path3652"
       inkscape:connector-curvature="0"
       style="fill:#d81b60" /><path
       class="st1"
       d="m 285.7,1551.6 15.8,0 0,7 -15.8,0 0,-7 z"
       id="path3654"
       inkscape:connector-curvature="0"
       style="fill:#d81b60" /><path
       class="st1"
       d="m 327.2,1546.9 c 0.2,0.7 0.4,1.6 0.7,2.7 0.3,1.1 0.6,2.3 1,3.6 0.4,1.3 0.8,2.7 1.2,4.2 0.4,1.5 0.9,3 1.3,4.6 0,-2 -0.1,-4.1 -0.2,-6.4 -0.1,-2.3 -0.2,-4.6 -0.3,-7 -0.1,-2.4 -0.2,-4.8 -0.3,-7.2 -0.1,-2.4 -0.2,-4.8 -0.2,-7 l 7.1,0 c -0.1,2.9 -0.2,5.9 -0.3,9 -0.1,3.1 -0.2,6.2 -0.4,9.2 -0.2,3 -0.3,6 -0.5,9 -0.2,3 -0.5,5.7 -0.7,8.4 l -5.9,0 c -0.8,-2.4 -1.7,-5 -2.5,-7.8 -0.8,-2.8 -1.7,-5.4 -2.5,-8 -0.8,2.4 -1.7,5 -2.6,7.9 -0.9,2.8 -1.8,5.5 -2.5,7.9 l -5.9,0 c -0.3,-2.6 -0.6,-5.5 -0.8,-8.4 -0.2,-3 -0.4,-6 -0.6,-9 -0.2,-3 -0.3,-6.1 -0.4,-9.2 -0.1,-3.1 -0.2,-6.1 -0.3,-8.9 l 6.6,0 c 0,2.3 -0.1,4.6 -0.1,7 0,2.4 -0.1,4.8 -0.1,7.2 0,2.4 -0.1,4.7 -0.1,7 0,2.3 -0.1,4.4 -0.1,6.4 0.3,-1.2 0.7,-2.6 1.2,-4 0.4,-1.5 0.9,-2.9 1.3,-4.3 0.4,-1.4 0.8,-2.7 1.1,-3.9 0.3,-1.2 0.6,-2.1 0.8,-2.8 l 5,0 z"
       id="path3656"
       inkscape:connector-curvature="0"
       style="fill:#d81b60" /><path
       class="st1"
       d="m 355.1,1542.1 c 2.2,0 4.1,0.3 5.5,0.8 1.5,0.5 2.7,1.2 3.5,2.2 0.8,1 1.5,2.1 1.9,3.4 0.4,1.4 0.6,2.9 0.6,4.6 l 0,16.1 c -1,0.2 -2.6,0.5 -4.6,0.8 -2,0.3 -4.3,0.5 -6.8,0.5 -1.7,0 -3.3,-0.2 -4.7,-0.5 -1.4,-0.3 -2.6,-0.8 -3.6,-1.5 -1,-0.7 -1.8,-1.6 -2.3,-2.8 -0.5,-1.1 -0.8,-2.5 -0.8,-4.2 0,-1.6 0.3,-2.9 0.9,-4 0.6,-1.1 1.4,-1.9 2.5,-2.6 1.1,-0.7 2.2,-1.1 3.6,-1.4 1.3,-0.3 2.7,-0.4 4.2,-0.4 1.8,0 3.5,0.2 4.9,0.5 l 0,-0.9 c 0,-1.3 -0.4,-2.5 -1.3,-3.4 -0.8,-0.9 -2.3,-1.4 -4.4,-1.4 -1.3,0 -2.6,0.1 -3.9,0.3 -1.2,0.2 -2.3,0.4 -3,0.7 l -1,-5.7 c 0.9,-0.3 2.1,-0.6 3.7,-0.8 1.7,-0.1 3.3,-0.3 5.1,-0.3 z m 0.6,22.7 c 0.8,0 1.5,0 2.2,0 0.7,0 1.4,-0.1 1.9,-0.1 l 0,-6.2 c -0.5,-0.1 -1,-0.1 -1.7,-0.2 -0.7,-0.1 -1.2,-0.1 -1.8,-0.1 -0.7,0 -1.4,0 -2.1,0.1 -0.7,0.1 -1.3,0.3 -1.8,0.5 -0.5,0.2 -0.9,0.6 -1.2,1 -0.3,0.4 -0.5,1 -0.5,1.7 0,1.2 0.5,2.1 1.4,2.6 1,0.4 2.1,0.7 3.6,0.7 z"
       id="path3658"
       inkscape:connector-curvature="0"
       style="fill:#d81b60" /><path
       class="st1"
       d="m 383.1,1553.5 c 0.7,-0.8 1.4,-1.7 2.1,-2.6 0.7,-0.9 1.4,-1.8 2.1,-2.8 0.7,-1 1.3,-1.9 1.9,-2.8 0.6,-0.9 1.1,-1.8 1.6,-2.6 l 8.5,0 c -0.7,0.9 -1.5,1.8 -2.4,2.9 -0.9,1 -1.8,2.1 -2.7,3.2 -0.9,1.1 -1.9,2.1 -2.8,3.1 -0.9,1 -1.8,1.9 -2.6,2.8 1,0.9 2,2 3.1,3.3 1.1,1.3 2.2,2.6 3.3,4 1.1,1.4 2.1,2.8 3,4.1 0.9,1.4 1.6,2.6 2.2,3.7 l -8.1,0 c -0.5,-1 -1.1,-2 -1.8,-3.2 -0.7,-1.2 -1.5,-2.4 -2.4,-3.6 -0.8,-1.2 -1.7,-2.3 -2.6,-3.3 -0.9,-1.1 -1.7,-1.9 -2.4,-2.6 l 0,12.8 -7.1,0 0,-38.7 7.1,-1.2 0,23.5 z"
       id="path3660"
       inkscape:connector-curvature="0"
       style="fill:#d81b60" /><path
       class="st1"
       d="m 417.2,1542.1 c 2.2,0 4.1,0.3 5.5,0.8 1.5,0.5 2.7,1.2 3.5,2.2 0.8,1 1.5,2.1 1.9,3.4 0.4,1.4 0.6,2.9 0.6,4.6 l 0,16.1 c -1,0.2 -2.6,0.5 -4.6,0.8 -2,0.3 -4.3,0.5 -6.8,0.5 -1.7,0 -3.3,-0.2 -4.7,-0.5 -1.4,-0.3 -2.6,-0.8 -3.6,-1.5 -1,-0.7 -1.8,-1.6 -2.3,-2.8 -0.5,-1.1 -0.8,-2.5 -0.8,-4.2 0,-1.6 0.3,-2.9 0.9,-4 0.6,-1.1 1.4,-1.9 2.5,-2.6 1,-0.7 2.2,-1.1 3.6,-1.4 1.3,-0.3 2.7,-0.4 4.2,-0.4 1.8,0 3.5,0.2 4.9,0.5 l 0,-0.9 c 0,-1.3 -0.4,-2.5 -1.3,-3.4 -0.8,-0.9 -2.3,-1.4 -4.4,-1.4 -1.3,0 -2.6,0.1 -3.9,0.3 -1.2,0.2 -2.3,0.4 -3,0.7 l -1,-5.7 c 0.9,-0.3 2.1,-0.6 3.7,-0.8 1.7,-0.1 3.3,-0.3 5.1,-0.3 z m 0.6,22.7 c 0.8,0 1.5,0 2.2,0 0.7,0 1.4,-0.1 1.9,-0.1 l 0,-6.2 c -0.5,-0.1 -1,-0.1 -1.7,-0.2 -0.7,-0.1 -1.2,-0.1 -1.8,-0.1 -0.7,0 -1.4,0 -2.1,0.1 -0.7,0.1 -1.3,0.3 -1.8,0.5 -0.5,0.2 -0.9,0.6 -1.2,1 -0.3,0.4 -0.5,1 -0.5,1.7 0,1.2 0.5,2.1 1.4,2.6 0.9,0.4 2.1,0.7 3.6,0.7 z"
       id="path3662"
       inkscape:connector-curvature="0"
       style="fill:#d81b60" /><path
       class="st1"
       d="m 454.1,1542.5 c 1.5,0 2.7,0.2 3.7,0.7 1,0.5 1.7,1.1 2.3,2.1 0.6,0.9 0.9,2.1 1.1,3.5 0.2,1.4 0.3,3 0.3,4.9 l 0,16.2 -5.7,0 0,-16.5 c 0,-1.1 -0.1,-1.9 -0.2,-2.6 -0.1,-0.7 -0.3,-1.1 -0.5,-1.5 -0.2,-0.3 -0.5,-0.6 -0.7,-0.7 -0.3,-0.1 -0.6,-0.2 -0.9,-0.2 -0.3,0 -0.7,0 -1.1,0.1 -0.4,0.1 -0.7,0.2 -1,0.3 0.1,0.7 0.2,1.5 0.3,2.4 0.1,0.9 0.1,1.9 0.1,2.9 l 0,5.4 -5.7,0 0,-6.2 c 0,-1.8 -0.2,-3.1 -0.5,-3.9 -0.4,-0.7 -0.9,-1.1 -1.8,-1.1 -0.2,0 -0.5,0 -0.8,0.1 -0.3,0 -0.6,0.1 -0.9,0.2 l 0,21.2 -5.7,0 0,-26 c 1.5,-0.4 3,-0.7 4.4,-1 1.5,-0.2 2.7,-0.3 3.9,-0.3 1,0 1.9,0.1 2.7,0.4 0.8,0.3 1.5,0.7 2,1.2 0.7,-0.4 1.4,-0.8 2.3,-1.1 0.5,-0.3 1.5,-0.5 2.4,-0.5 z"
       id="path3664"
       inkscape:connector-curvature="0"
       style="fill:#d81b60" /><path
       class="st1"
       d="m 479.2,1542.1 c 2.2,0 4.1,0.3 5.5,0.8 1.5,0.5 2.7,1.2 3.5,2.2 0.8,1 1.5,2.1 1.9,3.4 0.4,1.4 0.6,2.9 0.6,4.6 l 0,16.1 c -1,0.2 -2.6,0.5 -4.6,0.8 -2,0.3 -4.3,0.5 -6.8,0.5 -1.7,0 -3.3,-0.2 -4.7,-0.5 -1.4,-0.3 -2.6,-0.8 -3.6,-1.5 -1,-0.7 -1.8,-1.6 -2.3,-2.8 -0.5,-1.1 -0.8,-2.5 -0.8,-4.2 0,-1.6 0.3,-2.9 0.9,-4 0.6,-1.1 1.4,-1.9 2.5,-2.6 1,-0.7 2.2,-1.1 3.6,-1.4 1.3,-0.3 2.7,-0.4 4.2,-0.4 1.8,0 3.5,0.2 4.9,0.5 l 0,-0.9 c 0,-1.3 -0.4,-2.5 -1.3,-3.4 -0.8,-0.9 -2.3,-1.4 -4.4,-1.4 -1.3,0 -2.6,0.1 -3.9,0.3 -1.2,0.2 -2.3,0.4 -3,0.7 l -1,-5.7 c 0.9,-0.3 2.1,-0.6 3.7,-0.8 1.8,-0.1 3.4,-0.3 5.1,-0.3 z m 0.7,22.7 c 0.8,0 1.5,0 2.2,0 0.7,0 1.4,-0.1 1.9,-0.1 l 0,-6.2 c -0.5,-0.1 -1,-0.1 -1.7,-0.2 -0.7,-0.1 -1.2,-0.1 -1.8,-0.1 -0.7,0 -1.4,0 -2.1,0.1 -0.7,0.1 -1.3,0.3 -1.8,0.5 -0.5,0.2 -0.9,0.6 -1.2,1 -0.3,0.4 -0.5,1 -0.5,1.7 0,1.2 0.5,2.1 1.4,2.6 0.9,0.4 2.1,0.7 3.6,0.7 z"
       id="path3666"
       inkscape:connector-curvature="0"
       style="fill:#d81b60" /><path
       class="st1"
       d="m 504.7,1548.7 -6.2,0 0,-5.9 6.2,0 0,-6.8 7.1,-1.2 0,7.9 11.3,0 0,5.9 -11.3,0 0,10.9 c 0,1 0.1,1.8 0.3,2.4 0.2,0.6 0.5,1.1 0.8,1.4 0.3,0.3 0.8,0.6 1.3,0.7 0.5,0.1 1.1,0.2 1.7,0.2 0.7,0 1.3,0 1.8,-0.1 0.6,0 1.1,-0.1 1.6,-0.2 0.5,-0.1 1.1,-0.2 1.6,-0.4 0.6,-0.2 1.2,-0.4 1.8,-0.7 l 1,6.1 c -1.3,0.5 -2.7,0.9 -4.2,1.1 -1.5,0.2 -3,0.3 -4.4,0.3 -1.6,0 -3.1,-0.1 -4.4,-0.4 -1.3,-0.3 -2.3,-0.8 -3.2,-1.6 -0.9,-0.8 -1.6,-1.8 -2,-3.2 -0.5,-1.4 -0.7,-3.2 -0.7,-5.5 l 0,-10.9 z"
       id="path3668"
       inkscape:connector-curvature="0"
       style="fill:#d81b60" /><path
       class="st1"
       d="m 540.6,1564.5 c 1.7,0 3,-0.1 4,-0.4 0.9,-0.2 1.4,-0.8 1.4,-1.5 0,-0.5 -0.1,-0.9 -0.4,-1.3 -0.3,-0.3 -0.7,-0.6 -1.2,-0.9 -0.5,-0.2 -1.1,-0.5 -1.8,-0.7 -0.7,-0.2 -1.4,-0.5 -2.1,-0.7 -1,-0.3 -2.1,-0.7 -3.2,-1.1 -1.1,-0.4 -2.1,-0.9 -2.9,-1.5 -0.9,-0.6 -1.6,-1.4 -2.2,-2.3 -0.6,-0.9 -0.9,-2.1 -0.9,-3.5 0,-1.1 0.2,-2.2 0.7,-3.2 0.4,-1 1.1,-1.9 2.1,-2.7 0.9,-0.8 2.1,-1.4 3.6,-1.8 1.5,-0.4 3.2,-0.7 5.2,-0.7 1.8,0 3.4,0.1 4.9,0.4 1.5,0.3 2.8,0.7 3.9,1.2 l -1.1,6 c -0.7,-0.2 -1.7,-0.5 -3,-0.9 -1.4,-0.4 -2.9,-0.7 -4.7,-0.7 -1.8,0 -3,0.2 -3.7,0.7 -0.6,0.4 -0.9,0.9 -0.9,1.4 0,0.4 0.1,0.8 0.4,1.1 0.3,0.3 0.7,0.6 1.1,0.9 0.5,0.3 1,0.5 1.7,0.8 0.6,0.2 1.3,0.5 2,0.7 1,0.3 2.1,0.7 3.2,1.2 1.1,0.4 2.1,0.9 3,1.6 0.9,0.6 1.6,1.4 2.2,2.4 0.6,1 0.9,2.2 0.9,3.6 0,1.1 -0.2,2.2 -0.6,3.2 -0.4,1 -1.1,1.9 -2.1,2.6 -1,0.7 -2.3,1.3 -3.8,1.7 -1.6,0.4 -3.5,0.6 -5.8,0.6 -2.3,0 -4.3,-0.3 -6,-0.8 -1.6,-0.5 -3,-1 -4,-1.4 l 1.1,-5.9 c 1.3,0.5 2.8,1 4.3,1.5 1.6,0.2 3.2,0.4 4.7,0.4 z"
       id="path3670"
       inkscape:connector-curvature="0"
       style="fill:#d81b60" /><path
       class="st1"
       d="m 583.8,1568.9 c -1.3,0.3 -2.9,0.7 -4.7,1 -1.9,0.3 -3.9,0.5 -6.1,0.5 -2.2,0 -4,-0.3 -5.5,-0.9 -1.4,-0.6 -2.5,-1.5 -3.4,-2.6 -0.8,-1.1 -1.4,-2.5 -1.7,-4 -0.3,-1.5 -0.5,-3.2 -0.5,-5.1 l 0,-15.1 7.1,0 0,14.1 c 0,2.5 0.3,4.3 0.9,5.5 0.6,1.2 1.8,1.8 3.5,1.8 1.1,0 2.1,-0.1 3.2,-0.3 l 0,-21.2 7.1,0 0,26.3 z"
       id="path3672"
       inkscape:connector-curvature="0"
       style="fill:#d81b60" /><path
       class="st1"
       d="m 596.9,1574 c 0.7,-0.2 1.4,-0.3 2.1,-0.4 0.7,-0.1 1.4,-0.3 2,-0.5 0.6,-0.2 1.2,-0.6 1.7,-1 0.5,-0.4 0.9,-1 1.2,-1.7 -1.5,-0.2 -2.6,-0.7 -3.4,-1.7 -0.8,-1 -1.2,-2.1 -1.2,-3.3 0,-1.5 0.5,-2.7 1.5,-3.7 1,-1 2.2,-1.4 3.7,-1.4 1.6,0 2.9,0.5 3.8,1.6 0.9,1.1 1.4,2.5 1.4,4.4 0,1.3 -0.2,2.7 -0.6,4 -0.4,1.3 -1.1,2.6 -2,3.7 -0.9,1.2 -2.2,2.1 -3.7,3 -1.5,0.8 -3.3,1.4 -5.5,1.7 l -1,-4.7 z"
       id="path3674"
       inkscape:connector-curvature="0"
       style="fill:#d81b60" /><path
       class="st1"
       d="m 657.3,1557.9 c 0,1.7 -0.2,3.4 -0.7,4.9 -0.4,1.5 -1.2,2.9 -2.2,4 -1,1.2 -2.3,2.1 -3.9,2.7 -1.6,0.7 -3.6,1 -5.9,1 -2.4,0 -4.4,-0.3 -6,-0.9 -1.6,-0.6 -3,-1.4 -4.1,-2.2 l 2.7,-5.6 c 1,0.6 2,1.2 3.2,1.8 1.2,0.6 2.4,0.9 3.6,0.9 1.8,0 3.3,-0.5 4.5,-1.5 1.1,-1 1.7,-2.8 1.7,-5.4 l 0,-17.4 -11.9,0 0,-5.9 19,0 0,23.6 z"
       id="path3676"
       inkscape:connector-curvature="0"
       style="fill:#d81b60" /><path
       class="st1"
       d="m 677,1542.1 c 2.2,0 4.1,0.3 5.5,0.8 1.5,0.5 2.7,1.2 3.5,2.2 0.9,0.9 1.5,2.1 1.9,3.4 0.4,1.4 0.6,2.9 0.6,4.6 l 0,16.1 c -1,0.2 -2.6,0.5 -4.6,0.8 -2,0.3 -4.3,0.5 -6.8,0.5 -1.7,0 -3.3,-0.2 -4.7,-0.5 -1.4,-0.3 -2.6,-0.8 -3.6,-1.5 -1,-0.7 -1.8,-1.6 -2.3,-2.8 -0.5,-1.1 -0.8,-2.5 -0.8,-4.2 0,-1.6 0.3,-2.9 0.9,-4 0.6,-1.1 1.4,-1.9 2.5,-2.6 1.1,-0.7 2.2,-1.1 3.6,-1.4 1.3,-0.3 2.7,-0.4 4.2,-0.4 1.8,0 3.5,0.2 4.9,0.5 l 0,-0.9 c 0,-1.3 -0.4,-2.5 -1.3,-3.4 -0.8,-0.9 -2.3,-1.4 -4.4,-1.4 -1.3,0 -2.6,0.1 -3.9,0.3 -1.2,0.2 -2.3,0.4 -3,0.7 l -1,-5.7 c 0.9,-0.3 2.1,-0.6 3.7,-0.8 1.7,-0.1 3.4,-0.3 5.1,-0.3 z m 0.6,22.7 c 0.8,0 1.5,0 2.2,0 0.7,0 1.4,-0.1 1.9,-0.1 l 0,-6.2 c -0.5,-0.1 -1,-0.1 -1.7,-0.2 -0.7,-0.1 -1.2,-0.1 -1.8,-0.1 -0.7,0 -1.4,0 -2.1,0.1 -0.7,0.1 -1.3,0.3 -1.8,0.5 -0.5,0.2 -0.9,0.6 -1.2,1 -0.3,0.4 -0.5,1 -0.5,1.7 0,1.2 0.5,2.1 1.4,2.6 1,0.4 2.2,0.7 3.6,0.7 z"
       id="path3678"
       inkscape:connector-curvature="0"
       style="fill:#d81b60" /><path
       class="st1"
       d="m 721.2,1556.3 c 0,2.1 -0.2,4 -0.7,5.7 -0.5,1.7 -1.1,3.2 -2,4.5 -0.9,1.2 -2,2.2 -3.3,2.9 -1.3,0.7 -2.9,1 -4.7,1 -1.8,0 -3.7,-0.4 -5.6,-1.3 l 0,10.2 -7.1,0 0,-35.6 c 1.3,-0.4 2.9,-0.8 4.8,-1 1.9,-0.3 3.8,-0.4 5.6,-0.4 4.2,0 7.4,1.3 9.6,3.8 2.3,2.5 3.4,5.9 3.4,10.2 z m -7.2,0.3 c 0,-2.4 -0.5,-4.4 -1.4,-5.9 -1,-1.6 -2.4,-2.3 -4.4,-2.3 -0.5,0 -1.1,0 -1.7,0.1 -0.6,0.1 -1.1,0.1 -1.6,0.1 l 0,14.8 c 0.5,0.3 1.1,0.6 1.8,0.7 0.8,0.2 1.5,0.3 2.3,0.3 1.7,0 2.9,-0.7 3.7,-2 0.9,-1.4 1.3,-3.3 1.3,-5.8 z"
       id="path3680"
       inkscape:connector-curvature="0"
       style="fill:#d81b60" /><path
       class="st1"
       d="m 739.1,1542.1 c 2.2,0 4.1,0.3 5.5,0.8 1.5,0.5 2.7,1.2 3.5,2.2 0.9,0.9 1.5,2.1 1.9,3.4 0.4,1.4 0.6,2.9 0.6,4.6 l 0,16.1 c -1,0.2 -2.6,0.5 -4.6,0.8 -2,0.3 -4.3,0.5 -6.8,0.5 -1.7,0 -3.3,-0.2 -4.7,-0.5 -1.4,-0.3 -2.6,-0.8 -3.6,-1.5 -1,-0.7 -1.8,-1.6 -2.3,-2.8 -0.5,-1.1 -0.8,-2.5 -0.8,-4.2 0,-1.6 0.3,-2.9 0.9,-4 0.6,-1.1 1.4,-1.9 2.5,-2.6 1.1,-0.7 2.2,-1.1 3.6,-1.4 1.3,-0.3 2.7,-0.4 4.2,-0.4 1.8,0 3.5,0.2 4.9,0.5 l 0,-0.9 c 0,-1.3 -0.4,-2.5 -1.3,-3.4 -0.8,-0.9 -2.3,-1.4 -4.4,-1.4 -1.3,0 -2.6,0.1 -3.9,0.3 -1.2,0.2 -2.3,0.4 -3,0.7 l -1,-5.7 c 0.9,-0.3 2.1,-0.6 3.7,-0.8 1.7,-0.1 3.4,-0.3 5.1,-0.3 z m 0.6,22.7 c 0.8,0 1.5,0 2.2,0 0.7,0 1.4,-0.1 1.9,-0.1 l 0,-6.2 c -0.5,-0.1 -1,-0.1 -1.7,-0.2 -0.7,-0.1 -1.2,-0.1 -1.8,-0.1 -0.7,0 -1.4,0 -2.1,0.1 -0.7,0.1 -1.3,0.3 -1.8,0.5 -0.5,0.2 -0.9,0.6 -1.2,1 -0.3,0.4 -0.5,1 -0.5,1.7 0,1.2 0.5,2.1 1.4,2.6 1,0.4 2.2,0.7 3.6,0.7 z"
       id="path3682"
       inkscape:connector-curvature="0"
       style="fill:#d81b60" /><path
       class="st1"
       d="m 760,1543.7 c 1.3,-0.3 2.8,-0.7 4.7,-1 1.9,-0.3 3.9,-0.5 6.1,-0.5 2.1,0 3.9,0.3 5.3,0.9 1.4,0.6 2.5,1.4 3.4,2.5 0.8,1.1 1.4,2.4 1.8,3.9 0.3,1.5 0.5,3.2 0.5,5 l 0,15.2 -7.1,0 0,-14.3 c 0,-2.5 -0.3,-4.3 -0.9,-5.5 -0.6,-1.1 -1.7,-1.7 -3.5,-1.7 -0.5,0 -1.1,0 -1.6,0.1 -0.5,0 -1.1,0.1 -1.6,0.2 l 0,21.2 -7.1,0 0,-26 z"
       id="path3684"
       inkscape:connector-curvature="0"
       style="fill:#d81b60" /><path
       class="st1"
       d="m 825,1543.6 c 0,1.2 -0.2,2.4 -0.7,3.5 -0.5,1.1 -1.1,2.2 -1.8,3.3 -0.7,1.1 -1.6,2.1 -2.6,3.1 -1,1 -1.9,2 -2.9,2.9 -0.5,0.5 -1.1,1 -1.7,1.6 -0.7,0.6 -1.3,1.3 -1.8,2 -0.6,0.7 -1.1,1.4 -1.5,2 -0.4,0.7 -0.6,1.3 -0.6,1.9 l 15.3,0 0,5.9 -23.2,0 c -0.1,-0.4 -0.2,-0.9 -0.1,-1.4 0,-0.6 0,-1 0,-1.2 0,-1.9 0.4,-3.7 1.1,-5.3 0.7,-1.6 1.6,-3.1 2.7,-4.5 1.1,-1.4 2.3,-2.6 3.5,-3.8 1.2,-1.2 2.4,-2.3 3.5,-3.4 1.1,-1.1 2,-2.1 2.7,-3.1 0.7,-1 1.1,-2 1.1,-3 0,-1.5 -0.4,-2.6 -1.3,-3.4 -0.9,-0.8 -2,-1.2 -3.3,-1.2 -1.1,0 -2.3,0.3 -3.5,0.8 -1.2,0.5 -2.4,1.4 -3.6,2.7 l -3.5,-4.9 c 1.5,-1.6 3.3,-2.8 5.3,-3.6 2,-0.8 4,-1.2 6,-1.2 1.5,0 2.9,0.2 4.2,0.6 1.3,0.4 2.5,1.1 3.6,1.9 1,0.8 1.9,1.9 2.5,3.2 0.3,1.5 0.6,2.9 0.6,4.6 z"
       id="path3686"
       inkscape:connector-curvature="0"
       style="fill:#d81b60" /><path
       class="st1"
       d="m 857.8,1552 c 0,6.3 -1.1,11 -3.2,14 -2.1,3.1 -5.2,4.6 -9.2,4.6 -4,0 -7.1,-1.5 -9.2,-4.6 -2.1,-3.1 -3.2,-7.7 -3.2,-14 0,-6.2 1.1,-10.8 3.2,-13.9 2.1,-3.1 5.2,-4.6 9.1,-4.6 4,0 7.1,1.5 9.2,4.6 2.2,3 3.3,7.6 3.3,13.9 z m -6.4,0 c 0,-4.1 -0.5,-7.2 -1.5,-9.3 -1,-2.1 -2.5,-3.2 -4.5,-3.2 -1.9,0 -3.4,1.1 -4.4,3.2 -1,2.1 -1.6,5.2 -1.6,9.3 0,4.1 0.5,7.2 1.6,9.3 1,2.1 2.5,3.2 4.4,3.2 2,0 3.4,-1.1 4.5,-3.2 1,-2.1 1.5,-5.2 1.5,-9.3 z m -2.7,-0.6 c 0,1 -0.3,1.9 -0.9,2.7 -0.6,0.7 -1.4,1.1 -2.3,1.1 -1,0 -1.8,-0.4 -2.4,-1.1 -0.6,-0.7 -0.9,-1.6 -0.9,-2.7 0,-1 0.3,-1.9 0.9,-2.7 0.6,-0.8 1.4,-1.1 2.4,-1.1 0.9,0 1.7,0.4 2.3,1.1 0.6,0.8 0.9,1.7 0.9,2.7 z"
       id="path3688"
       inkscape:connector-curvature="0"
       style="fill:#d81b60" /><path
       class="st1"
       d="m 874.4,1564 0,-19.9 c -1.1,0.8 -2.3,1.4 -3.7,2 -1.4,0.6 -2.5,1.1 -3.5,1.4 l -2.3,-5.9 c 0.9,-0.3 1.9,-0.8 3,-1.3 1.1,-0.5 2.1,-1.1 3.2,-1.8 1.1,-0.7 2.1,-1.3 3,-2.1 1,-0.7 1.8,-1.5 2.5,-2.2 l 4.8,0 0,29.7 7.1,0 0,5.9 -21.6,0 0,-5.9 7.5,0 z"
       id="path3690"
       inkscape:connector-curvature="0"
       style="fill:#d81b60" /><path
       class="st1"
       d="m 900.7,1569.8 c 0.1,-2.5 0.5,-5 1.2,-7.8 0.7,-2.7 1.5,-5.5 2.5,-8.1 1,-2.7 2,-5.2 3.2,-7.6 1.2,-2.4 2.2,-4.5 3.3,-6.2 l -14.9,0 0,-5.9 23.2,0 0,5.3 c -1,1.2 -2.2,2.9 -3.4,5 -1.2,2.1 -2.4,4.6 -3.5,7.3 -1.1,2.7 -2.1,5.6 -2.9,8.7 -0.8,3.1 -1.3,6.2 -1.5,9.2 l -7.2,0 z"
       id="path3692"
       inkscape:connector-curvature="0"
       style="fill:#d81b60" /></g></svg>