<?xml version="1.0" encoding="UTF-8" standalone="no"?>
<!-- Generator: Adobe Illustrator 22.0.0, SVG Export Plug-In . SVG Version: 6.00 Build 0)  -->

<svg
   xmlns:dc="http://purl.org/dc/elements/1.1/"
   xmlns:cc="http://creativecommons.org/ns#"
   xmlns:rdf="http://www.w3.org/1999/02/22-rdf-syntax-ns#"
   xmlns:svg="http://www.w3.org/2000/svg"
   xmlns="http://www.w3.org/2000/svg"
   xmlns:sodipodi="http://sodipodi.sourceforge.net/DTD/sodipodi-0.dtd"
   xmlns:inkscape="http://www.inkscape.org/namespaces/inkscape"
   version="1.1"
   id="Layer_1"
   x="0px"
   y="0px"
   viewBox="0 0 476.00001 561.99998"
   xml:space="preserve"
   sodipodi:docname="map-marker.svg"
   inkscape:version="0.92.2 (5c3e80d, 2017-08-06)"
   width="476"
   height="562"
   inkscape:export-filename="/home/frafra/Code/stateofthemap-2018/img/map-marker.png"
   inkscape:export-xdpi="29.946293"
   inkscape:export-ydpi="29.946293"><metadata
     id="metadata211"><rdf:RDF><cc:Work
         rdf:about=""><dc:format>image/svg+xml</dc:format><dc:type
           rdf:resource="http://purl.org/dc/dcmitype/StillImage" /><dc:title></dc:title></cc:Work></rdf:RDF></metadata><defs
     id="defs209" /><sodipodi:namedview
     pagecolor="#ffffff"
     bordercolor="#666666"
     borderopacity="1"
     objecttolerance="10"
     gridtolerance="10"
     guidetolerance="10"
     inkscape:pageopacity="0"
     inkscape:pageshadow="2"
     inkscape:window-width="1366"
     inkscape:window-height="708"
     id="namedview207"
     showgrid="false"
     inkscape:zoom="0.50201293"
     inkscape:cx="55.852284"
     inkscape:cy="375.6161"
     inkscape:window-x="0"
     inkscape:window-y="31"
     inkscape:window-maximized="1"
     inkscape:current-layer="g213" /><style
     type="text/css"
     id="style2">
	.st0{fill:#FFFFFF;}
</style><g
     id="g213"
     transform="translate(-51.5,-243.80004)"><g
       id="g1222"
       transform="translate(0,255.49635)"><path
         class="st0"
         d="m 289.7,523.79998 c -1.7,-2 -3.4,-4.2 -5.4,-6.1 -10.5,-10.3 -21.1,-20.4 -31.6,-30.7 -8.1,-7.8 -16.1,-15.7 -24.2,-23.5 -12.9,-12.5 -25.9,-25 -38.8,-37.6 -18.1,-17.8 -36.3,-35.6 -54.2,-53.7 -14.7,-14.9 -26.6,-31.9 -36.1,-50.6 -9.4,-18.7 -16.1,-38.2 -19.5,-58.8 -1.5,-8.9 -2.4,-18 -2.9,-27 -0.5,-8.7 -0.6,-17.5 0.1,-26.2 0.7,-8.7 2.1,-17.5 3.9,-26.1 7.4,-36.1 23.3,-68.1 47.6,-95.700004 30.4,-34.500004 68,-57.000004 112.9,-67.100004 19.4,-4.4 39.1,-5.9 59,-4.5 46.1,3.2 87,19.4 122.3,49.3 35.6,30.100004 58.7,68.100008 69.4,113.500008 4.7,20.1 6.2,40.5 4.9,61 -2.8,41.5 -16.7,78.8 -41.4,112.2 -6.7,9 -14.2,17.2 -22.1,25.2 -19.9,20.2 -39.7,40.5 -59.5,60.8 -9.8,10 -19.7,20.1 -29.5,30.1 -16,16.4 -32,32.8 -48.1,49.2 -2.2,2.1 -4.5,4.1 -6.8,6.3 z m -0.1,-28.2 c 0.6,-0.6 1.1,-1.1 1.6,-1.6 8.7,-8.9 17.4,-17.8 26.1,-26.8 13.9,-14.2 27.9,-28.5 41.8,-42.7 20.4,-20.8 40.8,-41.6 61.2,-62.3 13.5,-13.7 24.6,-29.1 33.4,-46.2 12.5,-24.4 19.2,-50.3 20.3,-77.7 0.9,-22 -2,-43.6 -8.8,-64.5 -13.2,-40.3 -37.3,-72.6 -72.1,-96.800008 -27.4,-19 -57.8,-29.6 -91,-32.3 -19.2,-1.6 -38.1,-0.3 -56.8,4.2 -44.2,10.5 -80.1,33.800004 -107.4,70.000008 -23.9,31.6 -36.3,67.4 -37.4,107.1 0,0.9 -0.1,1.8 -0.1,2.7 -0.2,11.4 0.6,22.7 2.6,33.9 3.2,18.5 9,36.2 17.5,53 8.3,16.3 18.5,31.4 31.4,44.3 22.2,22.3 44.8,44.3 67.2,66.3 15.3,15 30.8,29.9 46.1,44.9 7.3,7.1 14.5,14.3 21.8,21.5 0.8,0.9 1.6,1.9 2.6,3 z"
         id="path70"
         inkscape:connector-curvature="0"
         style="fill:#ffffff" /><path
         d="m 289.6,495.59998 c -1,-1.1 -1.8,-2.1 -2.7,-3.1 -7.3,-7.2 -14.5,-14.4 -21.8,-21.5 -15.4,-15 -30.8,-29.9 -46.1,-44.9 -22.5,-22 -45,-44 -67.2,-66.3 -12.9,-13 -23.1,-28 -31.4,-44.3 -8.5,-16.8 -14.4,-34.4 -17.5,-53 -1.9,-11.2 -2.8,-22.5 -2.6,-33.9 0,-0.9 0,-1.8 0.1,-2.7 1.1,-39.7 13.5,-75.5 37.4,-107.1 27.3,-36.200004 63.3,-59.500008 107.4,-70.000008 18.7,-4.4 37.7,-5.7 56.8,-4.2 33.2,2.7 63.6,13.4 91,32.3 34.8,24.100008 58.9,56.500008 72.1,96.800008 6.9,20.9 9.7,42.5 8.8,64.5 -1.1,27.4 -7.8,53.3 -20.3,77.7 -8.7,17.1 -19.9,32.5 -33.4,46.2 -20.4,20.8 -40.8,41.6 -61.2,62.3 -13.9,14.2 -27.9,28.5 -41.8,42.7 -8.7,8.9 -17.4,17.8 -26.1,26.8 -0.4,0.6 -0.9,1.1 -1.5,1.7 z m 0.4,-11.3 c 0.3,-0.4 0.7,-1.1 1.3,-1.7 13.8,-14.2 27.6,-28.3 41.5,-42.5 9.7,-9.9 19.4,-19.8 29.1,-29.7 15.9,-16.3 31.7,-32.8 47.9,-48.8 14.3,-14.2 26.4,-29.8 35.5,-47.7 13.7,-27 20.3,-55.6 19.3,-85.9 -0.3,-9.1 -1,-18.1 -2.7,-27 -8.6,-44.8 -30.8,-81.4 -67,-109.000004 -41,-31.200004 -87.3,-42.200004 -137.9,-34.000004 -33.9,5.5 -63.8,20.100004 -89.1,43.400008 -35.8,32.9 -55.2,73.7 -58.2,122.2 -0.9,14.2 0.1,28.3 2.8,42.3 6.4,33.5 21,62.8 44.3,87.6 12.7,13.5 26.1,26.3 39.2,39.3 10.5,10.4 21.3,20.6 31.9,30.9 13.1,12.7 26.1,25.3 39.2,38 7.6,7.5 15.1,14.9 22.9,22.6 z"
         id="path72"
         inkscape:connector-curvature="0"
         style="display:inline;fill:#ce2b37;fill-opacity:1" /><path
         class="st0"
         d="m 290,484.29998 c -7.8,-7.7 -15.3,-15.1 -22.9,-22.4 -13,-12.7 -26.1,-25.4 -39.2,-38 -10.6,-10.3 -21.3,-20.5 -31.9,-30.9 -13.2,-13 -26.6,-25.8 -39.2,-39.3 -23.2,-24.8 -37.9,-54.2 -44.3,-87.6 -2.7,-14 -3.7,-28.1 -2.8,-42.3 3,-48.5 22.4,-89.4 58.2,-122.2 25.3,-23.200004 55.2,-37.900008 89.1,-43.400008 50.6,-8.2 96.9,2.8 137.7,34.000004 36.2,27.600004 58.4,64.200004 67,109.000004 1.7,8.9 2.4,17.9 2.7,27 1,30.3 -5.6,58.9 -19.3,85.9 -9.1,17.9 -21.2,33.6 -35.5,47.7 -16.2,16.1 -31.9,32.5 -47.9,48.8 l -29.1,29.7 c -13.8,14.2 -27.7,28.3 -41.5,42.5 -0.4,0.4 -0.8,1.1 -1.1,1.5 z m 18.5,-168.2 c 0.3,38.5 0.6,76.8 0.9,115 0.2,0.1 0.3,0.2 0.5,0.4 0.4,-0.6 0.7,-1.2 1.2,-1.7 17.4,-17.7 34.9,-35.4 52.3,-53.1 10,-10.1 19.9,-20.2 29.8,-30.3 0.6,-0.6 1.3,-1.6 1.3,-2.4 0,-9.1 -0.2,-18.1 -0.3,-27.2 0,-1.2 -0.6,-1.7 -1.8,-1.6 -1.8,0.1 -3.6,0.1 -5.4,0.1 -25.5,0.2 -51.1,0.4 -76.6,0.7 -0.5,0 -1.2,0 -1.9,0.1 z m -67.5,65.1 v 2.3 20.7 c 0,1.5 0.4,2.5 1.5,3.5 15.4,14.1 30.7,28.3 46,42.5 1.1,1 1.7,0.8 2.6,-0.2 4.7,-4.8 9.4,-9.6 14.1,-14.3 1.1,-1.1 1.6,-2.2 1.6,-3.8 -0.2,-11.2 -0.2,-22.5 -0.3,-33.7 -0.2,-26.5 -0.3,-53 -0.5,-79.5 0,-0.7 -0.1,-1.4 -0.1,-2.2 -3.2,0 -6.2,0.2 -9.1,-0.1 -5.3,-0.5 -10,0.8 -14.3,3.9 -3.5,2.4 -7.3,4.4 -11.1,6.6 1.8,3.5 3.7,6.6 5,10 1.3,3.4 0.2,7.1 -0.3,10.6 -0.4,-0.7 -0.6,-1.4 -0.6,-2.1 0,-2 0.2,-4 0.1,-5.9 -0.3,-4.5 -3.8,-7.5 -5.1,-11.6 0,-0.1 -0.2,-0.1 -0.4,-0.2 -2.7,1.5 -5.4,3 -8.1,4.6 -6.4,3.6 -12.8,7.3 -19.3,10.8 -1.6,0.9 -2.3,1.9 -2.2,3.8 0.2,3.1 0.2,6.1 0.1,9.2 -0.1,1.8 0.4,2.4 2.3,2.4 9.8,-0.2 19.5,-0.3 29.3,-0.5 1.7,0 2.4,0.4 2.4,2.2 0,6 0.2,12 0.2,18 0,2.6 -0.2,2.9 -2.8,2.9 -6.6,0.1 -13.2,0.1 -19.7,0.1 z m -1.3,-105.2 c 0,0.4 0.1,0.7 0.1,1.1 0.2,16 0.3,31.9 0.5,47.9 0,1.2 0.1,2.4 0.3,3.6 0.4,2.5 4.3,4.7 6.9,3.1 10.8,-6.5 21.7,-12.7 32.6,-18.9 1.9,-1.1 4.3,-1.9 2.9,-5 -0.1,-0.1 0.2,-0.3 0.2,-0.5 0.1,-1.4 0.2,-2.8 0.2,-4.2 0,-2.2 -0.3,-4.5 -0.3,-6.7 0,-3.2 0.3,-6.4 0.4,-9.5 0,-1.1 -0.1,-2.3 -0.1,-3.4 0,-1.3 -0.1,-2.6 -0.1,-3.9 0,-1.4 0.3,-2.7 0.3,-4.1 -0.1,-3.2 -0.3,-6.4 -0.3,-9.7 0,-2.2 0.2,-4.4 0.2,-6.7 0,-3.2 -0.2,-6.4 -0.3,-9.6 -0.1,-3.6 0,-7.1 0,-10.7 0,-1.2 0,-2.3 0.2,-3.5 0.3,-2.1 0.7,-4.1 0.9,-6.2 0.1,-0.6 -0.1,-1.5 -0.6,-1.8 -2.6,-1.8 -5.3,-3.4 -8.1,-5.1 -1.1,1.5 -2.1,2.8 -3.1,4.1 -1,-1.7 -0.4,-2.9 2.2,-4.9 -8.8,-6.1 -17.5,-12.1 -25.9,-17.9 -2.8,1.8 -5.2,3.7 -7.8,4.9 -2,0.9 -2.6,2.1 -2.5,4.1 0.2,3.6 0.1,7.3 0.2,10.9 0,1.6 -0.7,2.2 -2.5,1.9 v -11.5 c -0.2,0 -0.4,-0.1 -0.6,-0.1 -0.6,1 -1.4,2 -1.6,3.1 -0.3,1.7 -0.1,3.4 0,5.1 0,3.8 0,3.8 -3.7,4.9 -0.1,0 -0.2,0 -0.5,-0.1 v -7.6 c 0,-4 -0.5,-5.4 -2.7,-6.8 v 2.3 c 0.6,23.4 0.2,46.7 1.3,70.1 0.9,18 0.4,36.1 0.6,54.2 0,0.9 0.1,1.7 0.2,2.7 1.8,-0.3 2.6,-1 2.5,-2.7 -0.2,-4.1 -0.2,-8.3 -0.4,-12.4 -0.1,-1.4 0.3,-2.4 1.9,-2.4 0.7,0 1.4,-0.2 2.3,-0.3 v 14.3 c 2.6,-0.3 2.5,-2 2.5,-3.7 -0.3,-18.8 -0.6,-37.7 -0.9,-56.5 0.1,-2.3 0.5,-2.5 2.6,-1.9 z m 63.5,-85.1 c -2.6,-0.7 -5.3,0.5 -7.7,-1 0.6,-0.3 1.3,-0.4 2,-0.5 2,-0.1 4.1,0 6.1,-0.1 2.1,0 2.3,-0.4 2.1,-2.4 -0.3,-2.5 -0.5,-5.1 -0.6,-7.6 -0.1,-4.4 0,-8.8 -0.1,-13.2 0,-1.9 -2.8,-4.6 -4.6,-4.5 -0.2,0 -0.5,0.1 -0.7,0.2 -2.8,1.5 -5.6,3.1 -8.5,4.5 -7.1,3.5 -14.2,6.9 -21.3,10.4 2.7,4.2 4.2,9.1 3.5,14 1.5,0.3 3.1,0.2 4,0.9 1.6,1.2 0.7,2.8 -0.2,4.5 h 7.7 c 1.7,0 2.6,0.8 2.8,2.5 0.1,1.4 0.1,2.9 0.2,4.3 0.1,6.1 0.1,12.1 0.2,18.2 0,2.9 0.1,2.9 2.9,2.8 3.4,-0.1 6.9,-0.1 10.3,-0.2 8.7,-0.1 17.5,-0.3 26.2,-0.4 1.1,0 1.8,-0.2 1.7,-1.6 -0.1,-5.7 -0.3,-11.3 -0.3,-17 v 0 9.2 c -0.4,-0.9 -0.6,-1.8 -0.6,-2.8 0,-5 -0.1,-10.1 0,-15.1 0,-1.4 -0.5,-1.8 -1.9,-1.8 -3.4,0.1 -6.9,0 -10.3,0 0.3,-0.4 0.6,-0.4 1,-0.4 3.9,-0.2 7.8,-0.3 11.6,-0.5 1.3,-0.1 1.5,0.6 1.6,1.6 l 0.3,6.3 v 0 l 0.1,-9.10004 5.4,-0.1 v 5.4 l -0.7,0.1 v -4.8 c -1.6,-0.1 -2.58852,-0.26061 -4.18852,-0.36061 0.1,2 0.28852,3.56065 0.18852,5.26065 -0.2,3.3 -0.6,6.6 -0.7,9.9 -0.1,4.4 0,8.8 0,13.2 0,0.7 0.1,1.3 0.1,2 h 18.8 c 0.5,-3.2 0.3,-3.5 -2.4,-4.8 -1.9,-0.9 -4,-1.6 -4.2,-3.6 -2.3,-1.3 -4.7,-2.30006 -6.6,-3.30006 l 0.3,2.20006 c 0.9,0.1 1.7,0.3 2.4,0.4 v 4.2 l -0.6,0.0999 v -4 c -1,-0.1 -1.8,-0.1 -2.8,-0.1 -0.3,-6 -0.7,-11.9 1.2,-17.7 0.3,0.7 0.8,1.30006 0.8,2.00006 0.1,3.1 -0.1,6.3 0.2,9.4 0.1,1.3 0.7,2.8 1.6,3.6 1.5,1.4 3.5,2 5.7,1.7 2,-0.2 4,-0.2 5.9,-0.2 0.5,0 1,0.2 1.5,0.3 v 0.7 h -8.3 c 0,0.2 -0.1,0.4 -0.1,0.6 0.8,0.7 1.5,1.3 2.2,1.9 0.4,-0.7 0.8,-1.2 1.1,-1.7 0.1,0 0.2,0.1 0.2,0.1 -0.1,0.6 -0.2,1.1 -0.3,1.7 0.2,0.1 0.3,0.1 0.5,0.2 0.3,-0.4 0.7,-0.8 1.2,-1.4 -0.1,0.8 -0.2,1.5 -0.2,2.1 2.4,1.7 2.8,2.5 2.5,4.8 0,0.3 0.3,0.8 0.5,0.8 0.6,0 1.6,0.6 1.7,-0.8 0,-0.1 0.7,-0.1 1.1,-0.2 0.2,1.5 1.3,1.1 2.2,1.1 5.9,-0.1 11.9,-0.2 17.8,-0.3 l 17.4,-0.3 c 1.5,0 2.5,-0.4 2.5,-2.2 v -11.6 c -0.6,0.2 -1,0.3 -1.5,0.5 -1.1,-4.5 -0.3,-9.1 -2.1,-13.3 -0.5,0.6 -0.7,1.1 -0.7,1.7 -0.4,3 -0.6,6.1 -1.1,9.1 -0.1,0.8 -0.7,1.5 -1.1,2.2 -0.7,-0.6 -1.7,-1.1 -2,-1.9 -0.8,-1.8 -1.3,-3.6 -1.9,-5.7 -1.6,2.4 -1,5.3 -3.1,7.6 -1.1,-4.2 -2,-7.9 -3,-11.7 h -0.3 c -0.6,2.5 -1.2,5 -1.8,7.4 h -0.4 c -0.8,-3.7 -1.8,-7.40002 -2.6,-11.10002 l -0.5,-0.1 c -0.6,2.2 -1.5,4.49998 -2.2,6.89998 -1.6,-2.4 -1.9,-4.79998 -2,-7.29998 -0.4,-9 1.1,-18.1 -1.2,-27 -0.4,-1.5 -0.7,-2 -2.3,-1.9 -2.4,0.2 -4.7,0.2 -7.1,0.1 -2,-0.1 -3.4,0.2 -3,2.7 0.1,0.5 -0.4,1 -0.6,1.6 -0.5,1.6 -1,3.3 -1.3,4.9 -0.3,1.7 -0.4,3.4 -0.6,5.1 h -0.3 c -0.8,-2.9 -1.6,-5.8 -2.6,-9.1 -1,2.3 -1.8,4.1 -2.5,5.9 -0.2,-0.1 -0.4,-0.1 -0.6,-0.2 -0.5,-2.2 -1,-4.4 -1.5,-6.7 -0.7,1.5 -1.4,2.7 -2,4 -0.3,0 -0.5,0 -0.8,0.1 -1.1,-2.4 -2.1,-4.8 -3.3,-7.5 -0.7,1.9 -1.2,3.4 -1.9,5.5 -0.8,-1.8 -1.3,-3.2 -2,-4.5 -0.3,-0.6 -0.8,-1.4 -1.2,-1.4 -0.7,0 -1.5,0.6 -2.2,0.8 -0.4,0.2 -1.3,0.4 -1.3,0.3 -0.9,-1.7 -2.5,-1.2 -3.9,-1.2 -3.6,0 -7.3,0.1 -10.9,0.2 h -7.6 v 2.4 c 0,4.7 0.1,9.5 0,14.2 -0.1,3.7 0.6,7.6 -2.6,10.6 -0.3,0.3 0,1.1 0,1.7 0.6,0 1.3,0.1 1.9,-0.1 0.5,-0.2 1,-0.7 1.4,-1.1 0.2,0.1 0.3,0.2 0.5,0.3 -0.4,0.7 -0.7,1.8 -1.3,2.1 -0.8,0.4 -2,0.5 -2.8,0.2 -2.1,-0.5 -1.7,-2.3 -1.5,-3.8 z m 41.2,70.9 c -7.4,-0.4 -14.5,-0.9 -21.7,-1.2 -3.2,-0.1 -3.9,-0.6 -3.9,-3.7 -0.1,-7.9 -0.2,-15.7 -0.3,-23.6 0,-0.8 -0.1,-1.6 -0.2,-2.3 h -10.7 c 0.2,3.7 0.3,7.2 0.5,10.7 0.1,1.1 0.3,2.3 0.8,3.3 2.3,4.5 4.7,8.9 7.1,13.3 0.3,0.6 0.7,1.1 0.7,1.7 0,0.3 -0.7,0.9 -1.2,1 -0.5,0.1 -1.1,-0.3 -2,-0.7 0.8,-0.4 1.2,-0.6 1.6,-0.7 -2.8,-5.1 -5.4,-10 -8.2,-15 -0.5,4.9 0,6 2.7,9.7 1.1,1.5 1.7,3.4 2.5,5.1 -0.3,0.1 -0.5,0.3 -0.8,0.4 -0.3,-0.5 -0.7,-0.9 -1,-1.4 -0.6,-1.2 -1,-2.6 -1.9,-3.5 -2.7,-2.8 -3.1,-6.2 -2.9,-9.7 0.1,-1.3 0.1,-2.6 0.1,-3.8 v -10.5 c -0.6,0 -1.3,-0.1 -2.1,-0.1 -4.7,0 -9.3,0.1 -14,0.1 -2.2,0 -2.9,0.3 -3.3,2.5 -0.2,1.1 -0.2,2.3 -0.2,3.4 0,2.7 0.2,5.3 0.2,8 -0.1,7.4 -0.2,14.7 -0.3,22.1 -0.1,5.8 -0.1,11.6 -0.1,17.4 v 3.2 c 0,2.4 0.2,4.8 0.1,7.2 0,2.1 -0.4,4.3 -0.2,6.4 0.2,3 0.7,5.9 0,8.9 -0.1,0.3 0.1,0.8 0.2,1.1 0.5,1.8 2.5,3.1 5,3 4.5,-0.1 8.9,-0.3 13.4,-0.3 1.4,0 1.7,-0.5 1.7,-1.8 -0.2,-4.1 -0.1,-8.2 -0.3,-12.3 -0.2,-4.9 1.2,-9.5 3.2,-13.8 0.3,-0.6 0.8,-1 1.3,-1.6 -1.1,4.4 -2.5,8.5 -3,12.7 -0.5,4.2 -0.1,8.6 -0.1,12.9 0.6,-4.6 0.3,-9.4 1.6,-13.7 1.3,-4.2 3.6,-8.3 6.8,-11.8 -0.4,1.8 -1.1,3.5 -2.1,5 -3.3,5 -4.9,10.4 -4.6,16.5 0.1,2.5 0,4.9 0,7.5 h 10.4 v -3.1 c -0.1,-9.1 -0.2,-18.1 -0.4,-27.2 0,-1.7 0.5,-2.2 2.2,-2.2 7.1,0.1 14.2,0 21.3,0 2.7,0 3.1,-0.5 2.1,-3.5 h -13.1 c -0.2,-0.8 -0.4,-1.5 -0.6,-2.2 h -2.3 c -0.1,0.6 -0.1,1.2 -0.2,1.9 -0.6,-1.2 -0.9,-2.2 0.4,-2.7 1.4,-0.5 2.6,0.4 3.1,2.3 h 12.4 v -11.5 c -2.3,-0.1 -4.5,0 -6.6,-0.4 -2.1,-0.4 -3.9,-0.2 -5.3,1.6 -0.9,1.2 -2,1.3 -3.2,0.4 2.1,0.6 2.6,-0.7 2.8,-2.4 h 12.7 c -0.1,-1.1 -0.1,-1.8 -0.1,-2.6 z m -23.9,51.5 c 0.5,0.1 0.8,0.1 1,0.1 23.4,-0.2 46.9,-0.4 70.3,-0.5 1.7,0 2.4,-0.6 2.4,-2.4 -0.4,-17.8 -0.7,-35.6 -1,-53.4 0,-0.5 -0.2,-1 -0.3,-1.5 H 380 c -1.4,0 -1.9,0.9 -1.8,2.2 0.1,8.8 0.3,17.6 0.4,26.4 0,1.4 0.6,1.7 1.9,1.7 1.9,-0.1 3.7,0 5.6,0 0,0.2 0.1,0.4 0.1,0.7 -0.6,0.2 -1.3,0.4 -1.9,0.5 -2.4,0.1 -4.7,0 -7.1,0 -3.6,-0.1 -7.1,-0.1 -10.7,-0.3 -0.9,0 -1.8,-0.6 -2.6,-1 -1.6,-0.8 -3.1,-1.6 -4.8,-2.5 -0.1,0.9 -0.2,1.5 -0.2,2.1 h -0.4 v -3 h -5.2 c -0.4,4.2 -0.9,4.6 -4.3,3.5 1.1,-0.1 2.3,-0.2 3.4,-0.4 0.4,-3.3 0.4,-3.3 -2.6,-3.3 h -27.4 c -2.4,0 -2.5,0.1 -2.5,2.5 0.1,8.9 0.3,17.8 0.4,26.6 0.1,0.5 0.2,1.2 0.2,2 z m 72.5,-82.7 h -73.2 v 5.1 c 0,7.1 0,14.2 0.1,21.3 0,1.1 -0.2,2.4 1.6,2.5 5.9,0.2 11.8,0.5 17.7,0.7 3.5,0.1 7,-0.1 10.5,0.2 4.8,0.5 8.9,-0.3 12.7,-3.5 1.1,-0.9 2.8,-1.3 4.2,-1.4 2.9,-0.2 5.9,0 8.8,-0.1 0.7,0 1.4,-0.1 2.1,-0.3 1.5,-0.3 2.9,-0.8 4.4,-0.8 3.7,-0.1 7.4,0 11.1,0 z m -157.9,-71.4 c -0.2,0 -0.3,-0.1 -0.5,-0.1 -0.3,2.2 -0.7,4.4 -1,6.6 -0.3,2.3 0.1,2.8 2.4,3.3 4,0.7 7.6,2.2 10.3,5.3 1.2,1.4 2.3,2.4 3.9,0.6 0.4,-0.4 1.1,-0.6 1.7,-0.8 5.1,-2.4 10.3,-4.8 15.5,-7.1 1.3,-0.6 1.6,-1.3 1.6,-2.6 -0.2,-9.5 -0.3,-19 -0.4,-28.5 0,-0.4 -0.1,-0.8 -0.2,-1.3 -0.7,0.4 -1.3,0.8 -2.1,1.2 -0.1,-0.8 -0.3,-1.4 -0.3,-2 -0.4,-5.9 -0.8,-11.7 -1.3,-17.6 -0.1,-0.8 0.1,-2 -0.4,-2.4 -1.8,-1.7 -1.3,-4 -1.7,-6.1 -0.2,-0.9 -0.2,-1.9 -0.4,-2.8 -0.1,-0.5 -0.4,-1.3 -0.8,-1.4 -1.4,-0.6 -1.3,-1.7 -1.3,-2.9 0,-1.900004 0,-3.700004 -0.1,-5.600004 0,-0.8 -0.3,-1.5 -0.4,-2.3 h -0.7 c -0.2,1 -0.5,2 -0.6,3 -0.2,2.4 -0.1,4.900004 -0.5,7.200004 -0.8,4.2 -2.3,8.3 -2.8,12.6 -0.7,5.5 -0.9,11 -1.3,16.5 -0.1,1 -0.3,1.9 -0.4,2.9 h -0.6 c -0.2,-0.6 -0.5,-1.2 -0.5,-1.8 -0.3,-3.9 -0.3,-7.8 -0.7,-11.7 -0.4,-3.5 0.9,-7.5 -2.1,-10.5 -0.2,-0.3 -0.2,-0.9 -0.2,-1.3 -0.3,-5.3 -0.5,-10.600004 -0.8,-15.900004 0,-0.8 -0.5,-1.7 -0.7,-2.5 -0.8,0.7 -1.2,1.3 -1.2,2 -0.3,3.9 -0.4,7.800004 -0.7,11.700004 -0.2,2.4 -0.6,4.9 -1,7.3 -0.2,1.4 -0.9,2.8 -1,4.2 -0.6,5.1 -0.6,10.2 -1.6,15.2 -1,5.2 -1.8,10.4 -1.6,15.7 0.2,4.3 0,8.6 0,12.8 0,2.5 -1.1,4.5 -3.5,6.5 -0.8,-2.7 -1.4,-5 -2,-7.4 z m -8.7,126.3 c -0.2,-3.3 -0.5,-6 -0.6,-8.6 0,-1.4 -0.7,-2.3 -1.8,-3.1 -14.2,-9.3 -28.3,-18.7 -42.5,-28.1 -0.5,-0.4 -1.6,-0.4 -2.2,-0.1 -2.2,0.9 -4.4,1.9 -6.5,3.1 -0.5,0.3 -1,0.9 -1.2,1.5 -0.3,0.9 -0.4,1.9 -0.4,2.8 0.1,10.3 0.3,20.6 0.3,30.8 0,1.8 0.6,2.3 2.4,2.3 11.4,-0.3 22.7,-0.5 34.1,-0.7 6.1,0 12.1,0.1 18.4,0.1 z m 201.9,27 c -0.8,-1.6 -1.2,-3.1 -2.1,-3.9 -2.1,-1.8 -2.7,-3.8 -2.7,-6.4 0.1,-14.4 0,-28.7 0.1,-43.1 0,-1.9 -0.6,-2.4 -2.4,-2.3 -4.9,0.2 -9.8,0.2 -14.7,0.2 h -9.3 c 0.3,18.7 0.7,37.1 1,55.5 z m -259.1,5.5 c 0.2,-0.1 0.3,-0.2 0.5,-0.3 v -2.5 c -0.2,-17.9 -0.5,-35.7 -0.7,-53.6 0,-4 0.2,-7.9 0.3,-11.9 0,-1.2 -0.1,-2.6 -1.7,-2.3 -1.9,0.4 -4,0.8 -5.5,1.9 -5.7,4 -11.3,8.3 -16.9,12.6 -0.6,0.5 -1.1,1.5 -1.1,2.3 -0.1,7.2 0,14.4 0.1,21.6 0,1.1 0.6,2.5 1.4,3.4 3.5,4.2 7.1,8.3 10.6,12.6 2.4,2.9 4.6,5.9 6.9,8.7 1.9,2.6 4,5.1 6.1,7.5 z m 57.6,8.2 c -1,-0.1 -1.3,-0.1 -1.6,-0.1 -14.6,0 -29.2,-0.1 -43.9,0 -0.8,0 -2.1,0.6 -2.2,1.2 -0.3,0.9 -0.2,2.4 0.4,3.1 5.6,6.9 11.4,13.8 17.1,20.6 1.9,2.2 3.7,4.5 5.6,6.7 2.7,-1.7 5.2,-3.2 7.7,-4.7 5.2,-2.9 10.5,-5.8 15.7,-8.8 0.5,-0.3 1.1,-1.2 1.1,-1.8 0.1,-5.4 0.1,-10.7 0.1,-16.2 z m -11,-121.4 c -2.8,2.3 -5.8,4.8 -8.8,7.4 -1.4,1.2 -1.7,2.6 -0.8,4.1 1.4,2.4 1.7,5 1.7,7.8 0,8.2 0,16.3 -0.2,24.5 -0.1,2.8 -0.6,5.7 -1.1,8.5 -0.2,1.4 0,2.5 1.2,3.3 l 9.6,6.3 c 1.3,0.9 2.6,1.2 3.9,0.2 1.6,-1.2 4.1,-1.5 4,-4.5 -0.2,-7 -0.1,-14 -0.1,-21.1 0,-9.9 -0.1,-19.8 -0.2,-29.7 0,-0.7 -0.2,-1.7 -0.7,-1.9 -2.7,-1.7 -5.5,-3.1 -8.5,-4.9 z m -43.4,83.6 c -0.3,0.4 -0.4,0.5 -0.4,0.6 0,10.1 -0.1,20.2 0,30.3 0,0.7 0.7,1.5 1.3,1.9 2.6,1.8 5.5,2.6 8.7,2.5 3.4,-0.1 6.9,-0.1 10.3,-0.1 h 8 v -14.1 c -0.3,0.6 -0.5,0.9 -0.7,1.4 v -5.7 c 0,-1.1 0.5,-2.3 0.2,-3.2 -1.1,-3.2 -1,-6.5 -0.7,-9.8 0.1,-0.8 0,-1.6 0,-2.5 h -5.5 c 0.4,-0.3 0.9,-0.3 1.3,-0.3 4.7,0 4.7,0 4.7,4.6 v 2.3 4.2 h 0.6 v -12 c -9.4,-0.1 -18.7,-0.1 -27.8,-0.1 z m 98.4,-123.8 c 0.3,0.1 0.6,0.3 0.8,0.4 2.1,-1.3 4.1,-2.7 6.3,-3.7 7.1,-3.5 14.3,-7 21.5,-10.4 2.5,-1.2 2.6,-1.6 2.3,-4.3 -0.2,-1.8 0,-3.6 0,-5.4 h 0.7 v 8.1 c 1.8,0 2.2,-1 2.2,-2.4 -0.1,-10.9 -0.2,-21.7 -0.3,-32.6 0,-0.2 -0.1,-0.4 -0.1,-0.6 h -0.7 c -0.6,7.3 -1.1,14.6 -1.7,22.4 -1.1,-0.8 -1.7,-1.3 -2.3,-1.8 l -13.5,-11.7 c -1.7,-1.4 -2.5,-1.4 -4.2,0 -3.4,2.9 -6.7,5.9 -10.1,8.8 -0.4,0.4 -0.9,1 -0.9,1.5 z m -39,42 c 8.4,0.1 14.3,-4.5 16.4,-12.7 2.4,-9.4 -3.6,-19 -13.1,-20.8 -1.7,-0.3 -3.5,-0.4 -5.3,-0.4 -6.4,0 -13.3,5.4 -14.8,11.6 -2.5,10.5 3.2,22.4 16.8,22.3 z m -47.3,-4.8 c -0.2,0 -0.4,-0.1 -0.6,-0.1 -0.3,0.6 -0.6,1.2 -0.8,1.8 -0.5,1.4 -0.7,2.9 -1.3,4.2 -0.2,0.5 -1.1,1 -1.7,1 -0.4,0 -1,-0.9 -1.1,-1.4 -0.4,-2.8 -0.5,-5.7 -0.9,-8.6 -0.1,-1.1 -0.5,-2.1 -0.7,-3.2 h -0.7 c -0.6,4.4 -1.1,8.8 -1.7,13.2 h -0.7 c -2.1,-5.7 -1.6,-11.8 -2.9,-17.7 -0.4,0.6 -0.6,1.3 -0.6,2 0.1,11.2 0.3,22.4 0.3,33.5 0,1.2 0.3,1.8 1.5,2.2 2,0.7 4,1.4 5.8,2.4 1.9,1 3.3,0.7 4.9,-0.8 7.4,-6.8 15,-13.5 22.5,-20.2 2.8,-2.5 5.8,-5 8.2,-7 -1.3,-4 -2.4,-7.6 -3.6,-11.2 -0.2,-0.5 -0.8,-1.1 -1.2,-1.2 -3,-0.1 -6,-0.1 -8.9,-0.1 -0.5,3.6 -0.3,7.1 -2.8,10.4 -0.8,-2.6 -1.4,-4.7 -2.1,-6.8 -0.1,0 -0.3,0 -0.4,0.1 -0.8,3.4 -1.7,6.9 -2.5,10.3 h -0.4 c -0.7,-2.3 -1.3,-4.5 -2,-6.8 h -0.4 c -0.9,3.6 -1.9,7.1 -2.8,10.7 h -0.5 c -0.5,-2.1 -1.2,-4.4 -1.9,-6.7 z m -26.2,-10.5 H 149 c 0,0.7 -0.1,1.2 -0.1,1.7 -0.1,4.1 -0.6,7.9 -2.8,11.6 -1.7,2.8 -2.3,6 -2.3,9.4 0.1,4.1 0.1,8.2 0.1,12.3 v 4.3 h 7.3 c 4.8,0 9.7,-0.1 14.5,0 2.6,0.1 3.1,-0.1 3.1,-2.7 l -0.3,-27.6 v -8.9 h -7.7 c -0.5,2.9 0,5.7 -1.3,8.3 -1.3,-2.7 -0.6,-5.6 -1.2,-8.4 z m 44.7,96.5 v 35.5 h 23.2 v -35.5 z m 195.1,-65.7 h 25.5 c 0,-1.9 -0.1,-3.7 0,-5.5 0.3,-4.9 -0.5,-9.6 -2.9,-14 -0.6,-1.2 -0.9,-2.7 -1.1,-4 -0.4,-3.6 -0.6,-7.2 -0.9,-10.9 -0.2,-2.3 -0.3,-4.5 -0.6,-7.4 -2.6,1.1 -4.9,1.9 -7.1,3 -0.6,0.3 -1.2,1.3 -1.3,2 -0.3,3.7 -0.5,7.5 -0.7,11.3 -0.1,0.9 -0.4,1.8 -0.6,2.8 h -0.9 c -0.3,-4.4 -0.6,-8.9 -0.9,-13.5 -2.2,1.2 -4.2,2.3 -6.3,3.2 -2.1,0.9 -2.8,2.4 -2.7,4.5 0.2,5 0.3,9.9 0.4,14.9 0.1,4.5 0.1,9 0.1,13.6 z m -0.8,32.2 h 26.1 v -23.7 h -26.1 z m -193.6,-38.7 c -0.2,0 -0.5,0 -0.7,0.1 -5.7,5.2 -11.3,10.5 -17.2,15.5 -3,2.5 -4.3,5.2 -4,9 0.1,2.1 0.5,3.6 2.5,4.7 1.5,0.8 2.8,1.8 4.2,2.7 5.1,3.4 10.3,6.8 15.8,10.5 0.4,-2.5 1,-4.8 1,-7 0.1,-9.3 0.2,-18.6 0,-27.9 -0.1,-2.6 -1,-5.1 -1.6,-7.6 z m -33.9,124.6 c 0,-4.6 -0.1,-8.7 0,-12.9 0.1,-3.6 -0.7,-6.3 -3.4,-9.1 -5.4,-5.5 -10,-11.7 -15,-17.6 -2.3,-2.7 -4.6,-5.4 -6.8,-8.1 -0.2,0.1 -0.4,0.1 -0.6,0.2 v 11 c 0,1.7 -0.7,2.9 -1.8,4.2 -1,1.1 -1.6,2.7 -2.1,4.1 -0.4,1.2 0.2,2 1.6,2.2 0.7,0.2 1.5,0.6 2.1,1.2 4.4,4.2 8.7,8.5 13,12.6 4.3,4.1 8.5,8 13,12.2 z m 207.2,-83.5 c -2.1,0 -4,0.2 -5.9,0 -4.4,-0.6 -8.1,0.8 -11.5,3.5 -1.2,0.9 -1.8,1.8 -1.7,3.3 0.2,2.3 0.6,4.5 0.6,6.8 0,3 -0.3,6 -0.2,9 0,1 0.7,2.2 1.5,2.8 5.1,3.9 11,4.2 17.1,3.3 0.1,-9.5 0.1,-19 0.1,-28.7 z m -111.7,-44.6 c 1.3,-2.1 2.4,-4 3.7,-5.9 1.4,-2 2,-4.2 1.9,-6.6 -0.1,-4.1 0.1,-8.3 -0.2,-12.4 -0.1,-2 -0.8,-3.9 -1.4,-5.8 -0.4,-1.3 -1.3,-2.4 -2,-3.8 -5.1,2.4 -10.2,4.8 -15.4,7.3 1.1,3.6 1,7 -0.2,10.3 -0.6,1.7 -1.1,3.4 -1.5,5.1 -0.1,0.5 0,1.4 0.3,1.6 4.9,3.4 9.8,6.8 14.8,10.2 z m 41.5,-95.6 c 0,7.1 0.2,13.9 -0.1,20.7 -0.1,3.2 1,5.1 3.8,6.3 1.2,0.5 2.1,0.8 3.3,0.2 4,-2 8,-3.8 12,-5.8 0.4,-0.2 0.8,-1.1 0.7,-1.6 -0.4,-2.7 -1,-5.4 -1.3,-8 -0.5,-4 -0.8,-8 -1.1,-11.9 h -7.2 c -0.7,6.4 -0.5,12.7 -1.3,18.8 h -1 c -1.2,-6.2 -0.9,-12.6 -1.8,-18.8 -2,0.1 -3.9,0.1 -6,0.1 z m -79.8,276.9 v -41.1 c -3.2,2 -6.1,3.7 -8.9,5.4 0,0.2 0.1,0.4 0.1,0.5 h 7.6 v 12.9 h -8.5 v -4.6 c 1.1,-0.1 2.1,-0.2 3.2,-0.2 v -3 c -1.1,-0.1 -2.2,-0.1 -3.3,-0.2 -0.1,-1.6 -0.1,-3 -0.2,-4.7 -3,1.8 -5.6,3.4 -8.2,5.1 -0.5,0.3 -0.8,1.2 -0.8,1.8 0,3.2 0,6.4 0.1,9.6 0,0.5 0.2,1.2 0.6,1.5 6,5.6 12.1,11.2 18.3,17 z m 14,-14.9 h 19.9 v -17.6 H 241 Z m 157.4,-38.1 c 0.2,0.1 0.3,0.1 0.5,0.2 8.3,-8.4 16.6,-16.9 25.1,-25.5 h -24.3 c -1.3,0 -1.4,0.7 -1.4,1.7 0.1,5.7 0.1,11.5 0.1,17.2 z m -226.1,-9.8 c 0,3.5 -0.1,6.8 0.1,10.1 0,1 0.5,2.3 1.2,2.9 5.5,5.2 11.1,10.4 16.6,15.6 0.4,0.3 0.8,0.8 1.2,0.9 2.9,0.2 5.8,0.1 8.7,-1.3 -1.5,-1.8 -2.9,-3.5 -4.3,-5.1 -3.9,-4.4 -7.8,-8.7 -11.6,-13.1 -1.9,-2.2 -3.5,-4.6 -5.2,-6.8 -0.4,-0.5 -1.4,-0.8 -1.4,-1.2 0.2,-2 -1.2,-1.9 -2.4,-2 z m 100.9,-132.2 c 1.5,6.5 -3.5,10.2 -5.9,15.2 l 17.7,12 c 0.3,-0.1 0.5,-0.3 0.8,-0.4 -0.5,-7.1 -1.1,-14.2 -1.6,-21.3 -0.8,0.2 -1.4,0.3 -2,0.5 0.5,-0.6 1,-0.7 1.6,-0.9 1.7,-0.4 1.3,-1.7 1.2,-2.8 0,-0.6 -0.6,-1.6 -1,-1.6 -3.5,-0.3 -6.9,-0.5 -10.8,-0.7 z m -106.6,34.6 h -20.7 c 1.8,7.1 3.6,14 5.4,21.2 5.1,-3.9 9.9,-7.5 14.8,-11.3 0.3,-0.2 0.5,-0.8 0.5,-1.2 0.1,-2.8 0,-5.6 0,-8.7 z m 199.7,-71.4 c -0.3,-4.5 -0.5,-8.8 -0.8,-13.1 0,-0.5 -0.5,-1 -0.7,-1.5 -0.4,-0.9 -1,-1.7 -1.1,-2.6 -0.6,-4.4 -1.1,-8.8 -1.6,-13.4 -0.9,0.3 -1.4,0.6 -2,0.7 -1.8,0.3 -2.6,1.3 -2.9,3.2 -0.7,4.3 0.1,8.6 -1.5,13 -1.5,4.1 -0.8,9 -1.1,13.7 z m -9.7,119.1 v -19 H 346 c 0,5.9 0,11.7 0.1,17.5 0,0.5 0.8,1.4 1.3,1.4 3,0.2 6.1,0.1 9.2,0.1 z m -198.3,-92 c -0.2,-3.6 -0.3,-7.1 -0.5,-10.6 0,-0.4 -0.3,-0.7 -0.4,-1.1 -0.4,-1.1 -1.1,-2.3 -1.2,-3.4 -0.4,-3.5 -0.6,-7.1 -0.9,-10.7 -0.2,-2 -0.5,-3.9 -0.8,-5.9 h -0.8 c -0.3,0.6 -0.7,1.2 -0.8,1.8 -0.3,2.3 -0.5,4.6 -0.8,6.8 -0.5,3.4 -0.6,6.9 -1.5,10.2 -1.2,4.3 -0.9,8.5 -1.2,12.9 z m 113.9,189.8 v -17.8 h -8.6 v 17.8 z m 41,-220 c -0.2,-1 -0.4,-2 -0.6,-2.9 -0.2,0 -0.3,0.1 -0.5,0.1 v 6.3 h 15 v -13.5 c -0.7,0.3 -1.3,0.6 -1.8,0.9 -2.9,1.5 -5.7,3.2 -8.7,4.5 -2.1,0.9 -4,1.6 -3.2,4.4 z m -112.9,12.7 v 17.2 h 9 c 0.4,0 0.9,-0.5 1,-0.9 0.7,-2.5 1.3,-5 1.9,-7.6 0,-0.1 -0.1,-0.3 -0.2,-0.6 l -0.6,0.3 c -0.4,-0.6 -0.6,-1.3 -1,-1.6 -3.3,-2.2 -6.6,-4.4 -10.1,-6.8 z m 38.1,232.5 v -57.6 c -2.7,0.2 -2.7,1.9 -2.7,3.6 0.2,16.6 0.3,33.3 0.4,49.9 0,2 0.7,3.2 2.3,4.1 z m -69.4,-165.6 c -0.1,0 -0.1,0 0,0 0,1.8 0.1,3.6 0.3,5.3 0.4,2.8 2.4,3.9 4.8,2.5 6.4,-3.7 5.5,-2.4 5.6,-9 0,-0.4 0.1,-1 0,-1.3 -0.3,-0.7 -0.7,-1.7 -1.3,-2 -1.7,-0.9 -3.5,-1.6 -5.2,-2.3 -2.2,-0.8 -3.8,0.2 -4.1,2.5 -0.3,1.5 -0.1,2.9 -0.1,4.3 z m -2.5,-80.1 h -0.9 c -0.2,0.6 -0.5,1.3 -0.5,1.9 -0.2,2.7 -0.3,5.3 -0.4,8 -0.2,4.2 -0.7,8.3 -2.4,12.2 -1.1,2.5 -1,5.6 -1.5,8.5 h 8.3 c -1,-10.3 -1.8,-20.5 -2.6,-30.6 z m 240.1,25.1 c -0.5,-1.6 -1.1,-3.1 -1.5,-4.6 -0.6,-2.4 -1.3,-4.8 -1.6,-7.2 -0.4,-3.9 -0.5,-7.7 -0.8,-11.6 -0.1,-0.7 -0.4,-1.3 -0.6,-2 -0.2,0 -0.4,0 -0.6,0.1 -0.2,0.7 -0.4,1.4 -0.5,2.1 -0.3,3.9 -0.4,7.8 -0.8,11.6 -0.2,2 -0.7,4.1 -1.6,5.7 -1.9,3.3 -1.4,6.6 -1.2,10 0,0.1 0.3,0.2 0.5,0.5 2.9,-1.4 5.7,-3 8.7,-4.6 z m -174.7,166.9 c -2.1,0 -2.5,1.1 -2.5,2.8 0.1,13.8 0.2,27.7 0.2,41.5 0,1.8 1,2.7 2.3,3.4 z m -23.3,-223.5 v 2.1 c 0,8.1 0.1,16.2 0.1,24.3 0,2 -0.1,4.1 0,6.1 0.1,3.2 1.7,5.4 4.3,6.3 0,-0.2 0.1,-0.3 0.1,-0.5 -0.2,-5.5 -0.4,-11 -0.6,-16.4 0,-0.6 -0.4,-1.2 -0.6,-1.7 -0.4,-1.2 -1.2,-2.5 -1.1,-3.7 0.4,-5.7 -0.4,-11.1 -2.2,-16.5 z m 16.9,232.3 h -7.8 v 4 c 1.2,0.1 2.2,0.1 3.2,0.2 v 3.7 c -1.1,0.1 -2.1,0.2 -3.2,0.3 v 3.9 h 7.8 z m 188.9,-201.8 h -0.9 c -0.3,2.1 -0.6,4.2 -0.9,6.2 -0.7,5.1 -0.1,10.3 -2.3,15.2 -0.3,0.7 -0.2,1.5 -0.3,2.5 2.9,-1.2 4.8,-3 6.4,-5.2 0.4,-0.5 0.5,-1.4 0.4,-2.1 -0.4,-4.4 -0.9,-8.7 -1.5,-13.1 -0.2,-1.1 -0.6,-2.3 -0.9,-3.5 z m -208.1,-24.2 h -0.5 c -0.4,3.2 -0.8,6.3 -1.3,9.5 -0.2,1.4 -0.1,3.2 -0.9,4 -1.3,1.3 -1.4,2.6 -1.4,4.1 l -0.3,6.6 c 0,0.4 0.2,0.9 0.5,1.1 1.3,0.8 2.6,1.4 3.9,2.2 z m 106,-18.7 c -0.4,-2.6 -0.8,-5.1 -1.2,-7.5 -0.2,-1.1 -0.5,-2.2 -0.8,-3.3 -0.3,-1.2 -0.6,-2.4 -0.7,-3.600004 -0.1,-0.9 0,-1.7 0,-2.6 l -0.6,-0.3 c -0.4,0.4 -1.2,0.8 -1.2,1.2 -0.3,2.100004 -0.5,4.000004 -1.1,6.100004 -0.8,3.1 -0.2,6.6 -0.2,10 z m -168.3,145.4 c 5.3,-3 5.4,-3.2 4,-8.6 -0.1,-0.3 -0.2,-0.6 -0.2,-0.9 -1.2,-4.6 -2.3,-9.2 -3.5,-13.7 -0.1,0 -0.2,0 -0.3,0.1 z M 319.4,96.999976 c -0.1,2.5 -0.1,4.800004 -0.4,7.100004 -0.4,3.1 0.6,6.5 -1.9,9.2 0,0.1 0,0.2 0.1,0.4 h 6.6 c -2.7,-5.5 -1,-11.3 -2.3,-16.700004 z M 272,169.99998 c 0.2,0.2 0.4,0.3 0.6,0.5 10.4,-5.1 20.8,-10.3 31.1,-15.4 0.5,-0.2 0.7,-1 1,-1.5 -0.1,-0.1 -0.3,-0.2 -0.4,-0.3 -10.3,5.1 -20.7,10.2 -31,15.3 -0.5,0.2 -0.8,0.9 -1.3,1.4 z m 34.9,-17.2 0.5,0.5 c 6.4,-3.1 12.8,-6.2 19.2,-9.4 0.4,-0.2 0.6,-1 0.9,-1.5 -0.1,-0.1 -0.3,-0.2 -0.4,-0.4 -6.4,3.1 -12.7,6.3 -19.1,9.4 -0.6,0.3 -0.8,0.9 -1.1,1.4 z m -92.7,23.2 c -0.7,-2.9 -8.1,-9.1 -12.5,-11.1 -0.6,1.4 0.2,2.1 1.2,2.8 2.4,1.8 4.8,3.5 7.2,5.3 1.4,1 2.7,2 4.1,3 z m -14.2,192.4 c 1.9,1.8 3.6,3.3 5.5,5.1 v -4.2 c -0.7,-0.1 -1.4,-0.2 -2.3,-0.4 1.1,-0.2 1.7,-0.3 2.5,-0.5 0,-1 -0.1,-1.8 -0.1,-3 -2,1.1 -3.6,2 -5.6,3 z m -27.6,-40.4 c 3.7,0.8 3.9,0.6 4.4,-2.7 -1.4,-0.6 -2.8,-1.2 -4.4,-1.8 z m 93,-155.6 c -3.5,1.8 -6.7,3.4 -9.8,5 -0.3,0.1 -0.3,0.7 -0.5,1.1 3.1,-0.4 9.9,-4.2 10.3,-6.1 z m 5.4,-2.7 c -0.2,-0.1 -0.4,-0.3 -0.6,-0.4 -0.5,0.8 -1,1.6 -1.6,2.6 -0.2,-0.6 -0.3,-1.1 -0.5,-1.4 -0.2,-0.4 -0.6,-0.7 -1,-1 -0.2,0.4 -0.5,0.8 -0.5,1.2 -0.1,0.8 0,1.7 0,2.5 0,0.2 0.1,0.3 0.3,0.9 0.3,-1.1 0.5,-1.5 0.6,-2 0.4,0.6 0.8,1.1 1.3,1.9 0.5,-1 0.8,-1.7 1.2,-2.5 0.2,0.8 0.3,1.4 0.5,2 0.1,0 0.2,-0.1 0.3,-0.1 z m 38.6,-7.5 v -5.4 c -2.4,1.3 -2.7,2.5 -1.8,5.5 0.4,0 0.7,0.1 1.1,0.1 0.2,-0.1 0.4,-0.1 0.7,-0.2 z m -107.5,0.2 c -0.1,0.2 -0.3,0.4 -0.4,0.6 4.1,3 8.3,5.9 12.4,8.9 0.1,-0.2 0.3,-0.4 0.4,-0.5 -4.1,-3 -8.3,-6 -12.4,-9 z m 72.1,34.3 c 1.1,-1 1.9,-1.6 2.6,-2.5 0.3,-0.3 0.2,-1.4 0,-1.5 -0.6,-0.3 -1.4,-0.4 -2.1,-0.3 -0.3,0 -0.4,0.9 -0.5,1.4 -0.1,0.8 0,1.5 0,2.9 z m -52.3,72.6 c 1.3,0.9 2.3,1.6 3.4,2.5 v -4.5 c -1.2,0.7 -2.1,1.2 -3.4,2 z m 187.2,-41.9 v 0.4 h 10 v -0.4 z M 321,91.199976 h -0.8 c -0.3,1 -0.5,2.1 -0.8,3.3 1,-0.1 1.5,-0.1 2.4,-0.2 -0.3,-1.1 -0.6,-2.1 -0.8,-3.1 z m -14.2,52.900004 c 0.1,1.3 0.1,2.2 0.2,3.4 1.1,-0.6 1.9,-1 2.9,-1.5 -1.1,-0.8 -1.9,-1.2 -3.1,-1.9 z m 93.8,83.5 v 0.5 h 4.8 v -0.5 z m -229.3,-45.5 h -0.1 v 6.1 c 0.2,0 0.4,0 0.6,-0.1 -0.2,-1.9 -0.4,-3.9 -0.5,-6 z m 189.7,-56.9 c -1.2,0.7 -2.8,0.7 -2.3,2.8 0.8,-0.9 2.8,-0.6 2.3,-2.8 z m -107.3,53.8 c -0.1,-0.2 -0.3,-0.4 -0.4,-0.6 -1,0.5 -2,0.9 -3,1.4 0,0.2 0.1,0.5 0.1,0.7 0.6,-0.1 1.2,0 1.7,-0.3 0.6,-0.2 1.1,-0.8 1.6,-1.2 z m 29.4,137 c 0.1,0.2 0.2,0.5 0.3,0.7 0.9,-0.4 1.9,-0.8 3,-1.3 -1.8,-1.1 -2.8,-0.9 -3.3,0.6 z"
         id="path74"
         inkscape:connector-curvature="0"
         style="fill:#ffffff"
         sodipodi:nodetypes="ccccccccccccccccccccccccscccccccscccscccccccscscccccccccsscscccccccccsscsscsscscccccccccccccccccscccccccscccccccccccccccccccsccccccccccsccccccccccccccccsccccccccccccccccsccccccccccccscccccsccccccccccccccccccccccccccccccccccsccsccsccccccscccccccccccsscccccccccscssssccsscccccsccccsccccccccccscccccccccscccccccccccsccccccccscccccccsscccccscccccccccccccccccccccccccccccscccccccccccccccccccccsccccccccscsccccccccscccccccccccccccccccccccccccccccsccccccsccccccccscccsccccsscccccccccsccccccccccccsccccsccccccsccccccccscccccccccccccccccccccccscscccccccccccccccccccscccccsccccccccccccccccccccccccsccccscccccsccccccccccccccccccsscccccccccccccccccccccscccccccccccscsccccccccscccccccccccccccccccccccccscccccccccccccccccccccccccccccccccccccccscccccccccccccccccccccccccccccccccccccccccccsccccsccccccccccccccccccccccccccccscccccccccccccccccccccccccccccccccccccsccccccccccccccccccccccccccccccscccccccccccccccccccsccccccccccccccccccccccccccccccccccccccccccccc" /><path
         d="m 308.5,316.09997 c 0.8,0 1.4,-0.1 2,-0.1 25.5,-0.2 51.1,-0.4 76.6,-0.7 1.8,0 3.6,0 5.4,-0.1 1.2,-0.1 1.8,0.3 1.8,1.6 0.1,9.1 0.2,18.1 0.3,27.2 0,0.8 -0.7,1.7 -1.3,2.4 -9.9,10.1 -19.9,20.2 -29.8,30.3 -17.4,17.7 -34.9,35.4 -52.3,53.1 -0.5,0.5 -0.8,1.1 -1.2,1.7 -0.2,-0.1 -0.3,-0.2 -0.5,-0.4 -0.5,-38.2 -0.7,-76.5 -1,-115 z"
         id="path76"
         inkscape:connector-curvature="0" /><path
         d="m 241,381.19997 c 4,0 7.7,0 11.4,0 6.6,0 13.2,-0.1 19.7,-0.1 2.6,0 2.9,-0.3 2.8,-2.9 -0.1,-6 -0.2,-12 -0.2,-18 0,-1.8 -0.8,-2.3 -2.4,-2.2 -9.8,0.2 -19.5,0.3 -29.3,0.5 -1.9,0 -2.4,-0.6 -2.3,-2.4 0.1,-3.1 0.1,-6.1 -0.1,-9.2 -0.1,-1.9 0.6,-2.9 2.2,-3.8 6.5,-3.6 12.9,-7.2 19.3,-10.8 2.7,-1.5 5.4,-3.1 8.1,-4.6 0.2,0.1 0.4,0.1 0.4,0.2 1.3,4 4.8,7.1 5.1,11.6 0.1,2 -0.1,3.9 -0.1,5.9 0,0.7 0.1,1.4 0.6,2.1 0.5,-3.6 1.6,-7.2 0.3,-10.6 -1.3,-3.4 -3.2,-6.6 -5,-10 3.8,-2.2 7.6,-4.2 11.1,-6.6 4.4,-3 9,-4.4 14.3,-3.9 3,0.3 6,0.1 9.1,0.1 0,0.9 0.1,1.6 0.1,2.2 0.2,26.5 0.3,53 0.5,79.5 0.1,11.2 0.1,22.5 0.3,33.7 0,1.6 -0.5,2.7 -1.6,3.8 -4.8,4.7 -9.5,9.5 -14.1,14.3 -0.9,0.9 -1.5,1.2 -2.6,0.2 -15.3,-14.2 -30.6,-28.4 -46,-42.5 -1.1,-1 -1.5,-2 -1.5,-3.5 0.1,-6.9 0,-13.8 0,-20.7 -0.1,-0.6 -0.1,-1.3 -0.1,-2.3 z"
         id="path78"
         inkscape:connector-curvature="0" /><path
         d="m 239.7,275.99997 c -2.2,-0.7 -2.5,-0.4 -2.5,2 0.3,18.8 0.6,37.7 0.9,56.5 0,1.7 0.1,3.4 -2.5,3.7 0,-4.7 0,-9.4 0,-14.3 -1,0.1 -1.6,0.3 -2.3,0.3 -1.6,0 -2,0.9 -1.9,2.4 0.2,4.1 0.2,8.3 0.4,12.4 0.1,1.6 -0.7,2.4 -2.5,2.7 -0.1,-1 -0.2,-1.9 -0.2,-2.7 -0.1,-18.1 0.3,-36.2 -0.6,-54.2 -1.2,-23.4 -0.7,-46.7 -1.3,-70.1 0,-0.7 0,-1.5 0,-2.3 2.1,1.4 2.6,2.7 2.7,6.8 0,2.6 0,5.1 0,7.6 0.2,0 0.4,0.1 0.5,0.1 3.8,-1.1 3.8,-1.1 3.7,-4.9 0,-1.7 -0.2,-3.5 0,-5.1 0.2,-1.1 1,-2.1 1.6,-3.1 0.2,0 0.4,0.1 0.6,0.1 0,3.8 0,7.7 0,11.5 1.8,0.3 2.5,-0.3 2.5,-1.9 -0.1,-3.6 0,-7.3 -0.2,-10.9 -0.1,-2 0.5,-3.2 2.5,-4.1 2.7,-1.3 5,-3.1 7.8,-4.9 8.3,5.8 17.1,11.8 25.9,17.9 -2.6,2 -3.1,3.2 -2.2,4.9 1,-1.3 2,-2.6 3.1,-4.1 2.7,1.7 5.5,3.4 8.1,5.1 0.4,0.3 0.6,1.2 0.6,1.8 -0.2,2.1 -0.7,4.1 -0.9,6.2 -0.1,1.1 -0.2,2.3 -0.2,3.5 0,3.6 0,7.1 0,10.7 0,3.2 0.2,6.4 0.3,9.6 0,2.2 -0.2,4.4 -0.2,6.7 0.1,3.2 0.3,6.4 0.3,9.7 0,1.4 -0.2,2.7 -0.3,4.1 0,1.3 0,2.6 0.1,3.9 0,1.1 0.2,2.3 0.1,3.4 -0.1,3.2 -0.4,6.4 -0.4,9.5 0,2.2 0.2,4.5 0.3,6.7 0,1.4 -0.1,2.8 -0.2,4.2 0,0.2 -0.2,0.4 -0.2,0.5 1.4,3.1 -1,3.9 -2.9,5 -10.9,6.3 -21.8,12.5 -32.6,18.9 -2.6,1.6 -6.6,-0.6 -6.9,-3.1 -0.2,-1.2 -0.3,-2.4 -0.3,-3.6 -0.2,-16 -0.3,-31.9 -0.5,-47.9 -0.1,-0.4 -0.2,-0.8 -0.2,-1.2 z"
         id="path80"
         inkscape:connector-curvature="0" /><path
         d="m 303.2,190.89997 c -0.2,1.5 -0.6,3.2 1.2,3.9 0.8,0.3 2,0.2 2.8,-0.2 0.6,-0.3 0.9,-1.4 1.3,-2.1 -0.2,-0.1 -0.3,-0.2 -0.5,-0.3 -0.5,0.4 -0.9,0.9 -1.4,1.1 -0.6,0.2 -1.2,0.1 -1.9,0.1 0,-0.6 -0.3,-1.5 0,-1.7 3.2,-3 2.5,-6.9 2.6,-10.6 0.1,-4.7 0,-9.5 0,-14.2 v -2.4 h 7.6 c 3.6,0 7.3,-0.1 10.9,-0.2 1.4,0 3,-0.5 3.9,1.2 0.1,0.1 0.9,-0.2 1.3,-0.3 0.7,-0.3 1.5,-0.8 2.2,-0.8 0.4,0 0.9,0.9 1.2,1.4 0.6,1.3 1.2,2.6 2,4.5 0.7,-2.1 1.2,-3.6 1.9,-5.5 1.2,2.7 2.3,5.1 3.3,7.5 0.3,0 0.5,0 0.8,-0.1 0.6,-1.3 1.2,-2.5 2,-4 0.5,2.4 1,4.6 1.5,6.7 0.2,0.1 0.4,0.1 0.6,0.2 0.8,-1.8 1.5,-3.6 2.5,-5.9 0.9,3.4 1.7,6.3 2.6,9.1 h 0.3 c 0.2,-1.7 0.3,-3.4 0.6,-5.1 0.3,-1.7 0.8,-3.3 1.3,-4.9 0.2,-0.5 0.6,-1.1 0.6,-1.6 -0.4,-2.5 0.80293,-2.87883 2.80293,-2.77883 2.4,0.1 5.33063,0.0394 7.73063,-0.0606 1.5,-0.1 1.82117,0.57882 2.22117,1.97882 2.4,8.9 0.68176,18.03942 1.08176,27.03942 0.1,2.6 0.46351,4.82117 2.06351,7.12117 0.7,-2.4 1.3,-4.6 1.9,-6.8 h 0.8 c 0.8,3.7 1.9,7.5 2.7,11.2 v 0 c 0.6,-2.5 1.2,-5 1.8,-7.4 l 0.6,-0.1 c 1,3.7 1.9,7.5 3,11.7 2.1,-2.3 1.5,-5.2 3.1,-7.6 0.7,2.1 1.03649,3.80291 1.83649,5.60291 0.3,0.8 1.36351,1.39709 2.06351,1.99709 0.4,-0.7 0.7,-1.30002 0.8,-2.10002 0.4,-3 0.7,-6.1 1.1,-9.1 0.1,-0.6 0.6,-1.19998 1,-1.79998 1.8,4.2 1.1,8.8 2.1,13.3 0.5,-0.2 0.9,-0.3 1.5,-0.5 l -0.0241,11.89705 c -0.004,1.8 -1.2759,1.90293 -2.7759,2.00293 l -17.4,0.3 c -5.9,0.1 -11.9,0.2 -17.8,0.3 -0.9,0 -2,0.4 -2.2,-1.1 -0.4,0.1 -0.8,2e-5 -0.8,0.10002 -0.1,1.4 -1.4,0.89998 -2,0.89998 -0.2,0 -0.5,-0.6 -0.5,-0.8 0.3,-2.3 -0.1,-3 -2.5,-4.8 0.1,-0.7 0.4,-1.39998 0.5,-2.19998 -0.5,0.6 -0.8,1 -1.2,1.4 -0.2,-0.1 -0.6,-2e-5 -0.8,-0.10002 0.1,-0.6 0.2,-1.1 0.3,-1.7 -0.1,0 0,0 0,0 -0.3,0.5 -1,1.50002 -1.3,1.6 -0.7,-0.6 -1.4,-1.3 -2.2,-1.9 0,-0.2 0.1,-0.4 0.1,-0.6 l 8.6,-0.1 -0.3,-0.60002 c -0.5,-0.1 -1,-0.3 -1.5,-0.3 -2,0 -4,0 -5.9,0.2 -2.2,0.3 -4.2,-0.4 -5.7,-1.7 -0.9,-0.8 -1.5,-2.4 -1.6,-3.6 -0.2,-3.1 -0.1,-6.3 -0.2,-9.4 0,-0.7 -0.2,-1.4 -0.5,-2.1 -1.9,5.8 -1.5,11.7 -1.2,17.7 1,0.1 1.8,0.1 2.8,0.1 v 4 h 0.3 v -4.2 c -0.8,-0.1 -1.5,-0.2 -2.4,-0.4 v -2.3 c 2,1.1 4,2.1 6.3,3.4 0.2,2.1 2.71531,2.62117 4.51531,3.52117 2.7,1.3 2.88469,1.57885 2.38469,4.77885 l -19.1,0.1 c 0,-0.7 -0.1,-1.3 -0.1,-2 0,-4.4 -0.1,-8.8 0,-13.2 0.1,-3.3 0.6,-6.6 0.7,-9.9 0.1,-1.7 -0.2,-3.4 -0.3,-5.4 1.6,0.1 3,0.3 4.6,0.4 v 4.8 h 0.4 v -5.4 h -5.1 v 9.2 h -0.4 l -0.3,-6.3 c 0,-1 -0.3,-1.7 -1.6,-1.6 -3.9,0.2 -7.8,0.4 -11.6,0.5 -0.3,0 -0.6,0 -1,0.4 3.4,0 6.9,0.1 10.3,0 1.5,-0.1 1.9,0.3 1.9,1.8 v 15.1 c 0,0.9 0.2,1.9 0.6,2.8 v -9.19996 h 0.3 v 17 c 0,1.4 -0.6,1.6 -1.7,1.6 -8.7,0.1 -17.5,0.3 -26.2,0.4 -3.4,0.1 -6.9,0.1 -10.3,0.2 -2.8,0.1 -2.9,0.1 -2.9,-2.8 -0.1,-6.1 -0.1,-12.1 -0.2,-18.2 0,-1.4 -0.1,-2.9 -0.2,-4.3 -0.1,-1.7 -1.1,-2.5 -2.8,-2.5 h -7.7 c 0.8,-1.7 1.8,-3.4 0.2,-4.5 -1,-0.7 -2.5,-0.6 -4,-0.9 0.7,-4.9 -0.7,-9.8 -3.5,-14 7.2,-3.5 14.3,-6.9 21.3,-10.4 2.9,-1.4 5.7,-3 8.5,-4.5 0.2,-0.1 0.5,-0.2 0.7,-0.2 1.8,0 4.6,2.7 4.6,4.5 0,4.4 0,8.8 0.1,13.2 0.1,2.5 0.3,5.1 0.6,7.6 0.2,2 0,2.4 -2.1,2.4 -2,0 -4.1,0 -6.1,0.1 -0.7,0 -1.3,0.1 -2,0.5 2.7,1.5 5.4,0.3 8,0.9 z"
         id="path82"
         inkscape:connector-curvature="0"
         sodipodi:nodetypes="ccsccccccscscccscccccccccccsccccccccccccccccccccccscccccsccccccccccccsccccccccccccccccscccccccccccccccsscccsccccccsccccccssccsccc" /><path
         d="m 344.4,261.79997 c 0,0.8 0,1.5 0,2.5 -4.3,0 -8.4,0 -12.7,0 -0.2,1.7 -0.7,3.1 -2.8,2.4 1.2,0.9 2.3,0.8 3.2,-0.4 1.4,-1.8 3.2,-1.9 5.3,-1.6 2.1,0.4 4.3,0.2 6.6,0.4 0,3.7 0,7.4 0,11.5 -4.1,0 -8.2,0 -12.4,0 -0.5,-1.9 -1.6,-2.8 -3.1,-2.3 -1.4,0.5 -1,1.5 -0.4,2.7 0.1,-0.8 0.1,-1.3 0.2,-1.9 0.8,0 1.5,0 2.3,0 0.2,0.7 0.4,1.4 0.6,2.2 4.4,0 8.8,0 13.1,0 1,2.9 0.7,3.5 -2.1,3.5 -7.1,0 -14.2,0.1 -21.3,0 -1.7,0 -2.2,0.5 -2.2,2.2 0.2,9.1 0.3,18.1 0.4,27.2 0,1 0,2 0,3.1 -3.6,0 -7,0 -10.4,0 0,-2.6 0.1,-5 0,-7.5 -0.3,-6 1.3,-11.4 4.6,-16.5 1,-1.5 1.7,-3.2 2.1,-5 -3.1,3.4 -5.5,7.5 -6.8,11.8 -1.3,4.3 -1,9.1 -1.6,13.7 0,-4.3 -0.4,-8.6 0.1,-12.9 0.5,-4.2 1.9,-8.3 3,-12.7 -0.5,0.6 -1,1 -1.3,1.6 -2,4.4 -3.4,8.9 -3.2,13.8 0.2,4.1 0.2,8.2 0.3,12.3 0.1,1.3 -0.3,1.8 -1.7,1.8 -4.5,0 -8.9,0.2 -13.4,0.3 -2.5,0 -4.5,-1.2 -5,-3 -0.1,-0.4 -0.2,-0.8 -0.2,-1.1 0.7,-3 0.2,-5.9 0,-8.9 -0.2,-2.1 0.2,-4.3 0.2,-6.4 0,-2.4 -0.1,-4.8 -0.1,-7.2 0,-1.1 0,-2.1 0,-3.2 0,-5.8 0.1,-11.6 0.1,-17.4 0.1,-7.4 0.2,-14.7 0.3,-22.1 0,-2.7 -0.1,-5.3 -0.2,-8 0,-1.1 0,-2.3 0.2,-3.4 0.4,-2.2 1.1,-2.5 3.3,-2.5 4.7,0 9.3,0 14,-0.1 0.7,0 1.5,0.1 2.1,0.1 0,3.6 0,7.1 0,10.5 0,1.3 0,2.6 -0.1,3.8 -0.2,3.6 0.2,7 2.9,9.7 0.9,0.9 1.3,2.3 1.9,3.5 0.3,0.5 0.6,0.9 1,1.4 0.3,-0.1 0.5,-0.3 0.8,-0.4 -0.8,-1.7 -1.4,-3.6 -2.5,-5.1 -2.7,-3.7 -3.2,-4.8 -2.7,-9.7 2.8,5 5.4,9.9 8.2,15 -0.3,0.2 -0.7,0.4 -1.6,0.7 0.9,0.3 1.5,0.7 2,0.7 0.4,-0.1 1.2,-0.6 1.2,-1 0,-0.6 -0.4,-1.2 -0.7,-1.7 -2.4,-4.4 -4.8,-8.8 -7.1,-13.3 -0.5,-1 -0.7,-2.2 -0.8,-3.3 -0.2,-3.5 -0.4,-7 -0.5,-10.7 3.6,0 7,0 10.7,0 0.1,0.7 0.2,1.5 0.2,2.3 0.1,7.9 0.2,15.7 0.3,23.6 0,3.1 0.8,3.6 3.9,3.7 7.3,0.5 14.4,0.9 21.8,1.3 z"
         id="path84"
         inkscape:connector-curvature="0" /><path
         d="m 320.5,313.29997 c -0.1,-0.8 -0.2,-1.5 -0.2,-2.2 -0.2,-8.9 -0.3,-17.8 -0.4,-26.6 0,-2.3 0.1,-2.5 2.5,-2.5 9.1,0 18.3,0 27.4,0 3,0 3,0 2.6,3.3 -1.1,0.1 -2.3,0.2 -3.4,0.4 3.4,1.1 3.9,0.7 4.3,-3.5 1.6,0 3.3,0 5.2,0 0,1 0,2 0,3 0.1,0 0.2,0 0.4,0 0.1,-0.6 0.1,-1.2 0.2,-2.1 1.7,0.9 3.2,1.7 4.8,2.5 0.8,0.4 1.7,1 2.6,1 3.6,0.2 7.1,0.2 10.7,0.3 2.4,0 4.7,0 7.1,0 0.7,0 1.3,-0.3 1.9,-0.5 0,-0.2 -0.1,-0.4 -0.1,-0.7 -1.9,0 -3.8,-0.1 -5.6,0 -1.3,0.1 -1.9,-0.3 -1.9,-1.7 -0.1,-8.8 -0.2,-17.6 -0.4,-26.4 0,-1.2 0.4,-2.1 1.8,-2.2 4.3,0 8.5,0 12.9,0 0.1,0.6 0.3,1.1 0.3,1.5 0.3,17.8 0.6,35.6 1,53.4 0,1.8 -0.7,2.4 -2.4,2.4 -23.4,0.2 -46.9,0.3 -70.3,0.5 -0.2,0.2 -0.5,0.2 -1,0.1 z"
         id="path86"
         inkscape:connector-curvature="0" /><path
         d="m 393,230.59997 c 0,7.8 0,15.7 0,23.8 -3.8,0 -7.4,-0.1 -11.1,0 -1.5,0 -2.9,0.6 -4.4,0.8 -0.7,0.1 -1.4,0.2 -2.1,0.3 -2.9,0 -5.9,-0.1 -8.8,0.1 -1.4,0.1 -3.1,0.5 -4.2,1.4 -3.8,3.1 -7.9,4 -12.7,3.5 -3.5,-0.4 -7,-0.1 -10.5,-0.2 -5.9,-0.2 -11.8,-0.5 -17.7,-0.7 -1.8,-0.1 -1.6,-1.4 -1.6,-2.5 -0.1,-7.1 -0.1,-14.2 -0.1,-21.3 0,-1.6 0,-3.2 0,-5.1 24.5,-0.1 48.8,-0.1 73.2,-0.1 z"
         id="path88"
         inkscape:connector-curvature="0" /><path
         d="m 235.1,159.19997 c 0.6,2.3 1.2,4.7 1.9,7.5 2.4,-2 3.5,-3.9 3.5,-6.5 0,-4.3 0.1,-8.6 0,-12.8 -0.2,-5.3 0.6,-10.5 1.6,-15.7 1,-5 1,-10.1 1.6,-15.2 0.2,-1.4 0.8,-2.8 1,-4.2 0.4,-2.4 0.8,-4.8 1,-7.3 0.3,-3.9 0.4,-7.799999 0.7,-11.699999 0,-0.6 0.5,-1.3 1.2,-2 0.2,0.8 0.6,1.7 0.7,2.5 0.3,5.3 0.5,10.599999 0.8,15.899999 0,0.4 -0.1,1 0.2,1.3 2.9,3.1 1.6,7 2.1,10.5 0.5,3.9 0.5,7.8 0.7,11.7 0,0.6 0.4,1.2 0.5,1.8 0.2,0 0.4,0 0.6,0 0.1,-1 0.3,-1.9 0.4,-2.9 0.4,-5.5 0.6,-11.1 1.3,-16.5 0.6,-4.2 2,-8.3 2.8,-12.6 0.4,-2.4 0.3,-4.799999 0.5,-7.199999 0.1,-1 0.4,-2 0.6,-3 0.2,0 0.5,0 0.7,0 0.2,0.8 0.4,1.5 0.4,2.3 0.1,1.8 0.1,3.7 0.1,5.599999 0,1.2 0,2.3 1.3,2.9 0.4,0.2 0.6,0.9 0.8,1.4 0.2,0.9 0.2,1.9 0.4,2.8 0.4,2.1 -0.1,4.4 1.7,6.1 0.5,0.4 0.4,1.6 0.4,2.4 0.4,5.9 0.8,11.7 1.3,17.6 0,0.6 0.2,1.2 0.3,2 0.8,-0.5 1.4,-0.8 2.1,-1.2 0.1,0.5 0.2,0.9 0.2,1.3 0.1,9.5 0.2,19 0.4,28.5 0,1.3 -0.3,2.1 -1.6,2.6 -5.2,2.3 -10.3,4.7 -15.5,7.1 -0.6,0.3 -1.3,0.4 -1.7,0.8 -1.7,1.8 -2.7,0.8 -3.9,-0.6 -2.7,-3.1 -6.3,-4.6 -10.3,-5.3 -2.3,-0.4 -2.7,-1 -2.4,-3.3 0.3,-2.2 0.6,-4.4 1,-6.6 0.3,-0.1 0.4,0 0.6,0 z"
         id="path90"
         inkscape:connector-curvature="0" /><path
         d="m 226.4,285.49997 c -6.3,0 -12.3,-0.1 -18.3,0 -11.4,0.2 -22.7,0.4 -34.1,0.7 -1.8,0 -2.4,-0.5 -2.4,-2.3 -0.1,-10.3 -0.2,-20.6 -0.3,-30.8 0,-0.9 0.1,-1.9 0.4,-2.8 0.2,-0.6 0.7,-1.3 1.2,-1.5 2.1,-1.1 4.3,-2.2 6.5,-3.1 0.6,-0.3 1.7,-0.2 2.2,0.1 14.2,9.3 28.3,18.7 42.5,28.1 1.2,0.8 1.8,1.6 1.8,3.1 -0.1,2.5 0.2,5.2 0.5,8.5 z"
         id="path92"
         inkscape:connector-curvature="0" /><path
         d="m 428.3,312.49997 c -10.4,0 -20.1,0 -30,0 -0.3,-18.3 -0.7,-36.7 -1,-55.5 3.2,0 6.2,0 9.3,0 4.9,0 9.8,-0.1 14.7,-0.2 1.8,-0.1 2.4,0.4 2.4,2.3 -0.1,14.4 0,28.7 -0.1,43.1 0,2.6 0.6,4.7 2.7,6.4 0.9,0.7 1.2,2.2 2,3.9 z"
         id="path94"
         inkscape:connector-curvature="0" /><path
         d="m 169.2,317.99997 c -2.1,-2.5 -4.2,-4.9 -6.2,-7.4 -2.3,-2.9 -4.5,-5.9 -6.9,-8.7 -3.5,-4.2 -7.1,-8.3 -10.6,-12.6 -0.7,-0.9 -1.3,-2.2 -1.4,-3.4 -0.2,-7.2 -0.2,-14.4 -0.1,-21.6 0,-0.8 0.5,-1.9 1.1,-2.3 5.6,-4.3 11.1,-8.5 16.9,-12.6 1.5,-1.1 3.6,-1.5 5.5,-1.9 1.6,-0.3 1.8,1 1.7,2.3 -0.1,4 -0.4,7.9 -0.3,11.9 0.2,17.9 0.5,35.7 0.7,53.6 0,0.8 0,1.6 0,2.5 -0.1,0 -0.2,0.1 -0.4,0.2 z"
         id="path96"
         inkscape:connector-curvature="0" /><path
         d="m 226.8,326.19997 c 0,5.5 0,10.9 0,16.2 0,0.6 -0.5,1.5 -1.1,1.8 -5.2,3 -10.5,5.8 -15.7,8.8 -2.5,1.4 -5,3 -7.7,4.7 -1.9,-2.2 -3.7,-4.4 -5.6,-6.7 -5.7,-6.9 -11.5,-13.7 -17.1,-20.6 -0.6,-0.7 -0.7,-2.2 -0.4,-3.1 0.2,-0.6 1.4,-1.2 2.2,-1.2 14.6,0 29.2,0 43.9,0 0.2,-0.1 0.5,0 1.5,0.1 z"
         id="path98"
         inkscape:connector-curvature="0" /><path
         d="m 215.8,204.79997 c 3,1.7 5.8,3.2 8.5,4.9 0.5,0.3 0.7,1.3 0.7,1.9 0.1,9.9 0.1,19.8 0.2,29.7 0,7 0,14 0.1,21.1 0.1,3 -2.4,3.3 -4,4.5 -1.3,1 -2.6,0.6 -3.9,-0.2 -3.2,-2.1 -6.4,-4.2 -9.6,-6.3 -1.2,-0.8 -1.5,-1.9 -1.2,-3.3 0.5,-2.8 1,-5.6 1.1,-8.5 0.2,-8.2 0.1,-16.3 0.2,-24.5 0,-2.7 -0.3,-5.3 -1.7,-7.8 -0.9,-1.5 -0.6,-2.9 0.8,-4.1 3,-2.5 6,-5.1 8.8,-7.4 z"
         id="path100"
         inkscape:connector-curvature="0" /><path
         d="m 172.4,288.39997 c 9.1,0 18.3,0 27.7,0 0,3.9 0,8 0,12 -0.2,0 -0.4,0 -0.6,0 0,-1.4 0,-2.8 0,-4.2 0,-0.8 0,-1.5 0,-2.3 0,-4.6 0,-4.6 -4.7,-4.6 -0.4,0 -0.9,0 -1.3,0.3 1.8,0 3.5,0 5.5,0 0,1 0.1,1.8 0,2.5 -0.3,3.3 -0.4,6.6 0.7,9.8 0.3,0.9 -0.1,2.1 -0.2,3.2 0,1.8 0,3.6 0,5.7 0.3,-0.5 0.4,-0.8 0.7,-1.4 0,4.8 0,9.3 0,14.1 -2.6,0 -5.3,0 -8,0 -3.4,0 -6.9,0.1 -10.3,0.1 -3.2,0 -6.1,-0.8 -8.7,-2.5 -0.6,-0.4 -1.3,-1.3 -1.3,-1.9 -0.1,-10.1 0,-20.2 0,-30.3 0.2,0 0.2,-0.1 0.5,-0.5 z"
         id="path102"
         inkscape:connector-curvature="0" /><path
         d="m 270.8,164.59997 c 0,-10.5 0,-21.1 0,-31.6 0,-0.5 0.5,-1.2 0.9,-1.5 3.3,-3 6.7,-5.9 10.1,-8.8 1.6,-1.4 2.5,-1.4 4.2,0 4.5,3.9 9,7.8 13.5,11.7 0.6,0.5 1.2,0.9 2.3,1.8 0.6,-7.8 1.1,-15.1 1.7,-22.4 0.2,0 0.4,0 0.7,0 0,0.2 0.1,0.4 0.1,0.6 0.1,10.9 0.2,21.7 0.3,32.6 0,1.4 -0.3,2.4 -2.2,2.4 0,-2.7 0,-5.4 0,-8.1 -0.2,0 -0.5,0 -0.7,0 0,1.8 -0.2,3.6 0,5.4 0.4,2.7 0.2,3.1 -2.3,4.3 -7.2,3.4 -14.4,6.9 -21.5,10.4 -2.2,1.1 -4.2,2.5 -6.3,3.7 -0.2,-0.2 -0.5,-0.3 -0.8,-0.5 z"
         id="path104"
         inkscape:connector-curvature="0" /><path
         d="m 231.8,206.59997 c -13.7,0.1 -19.3,-11.8 -16.8,-22.2 1.5,-6.2 8.5,-11.6 14.8,-11.6 1.8,0 3.5,0.1 5.3,0.4 9.5,1.8 15.5,11.3 13.1,20.8 -2.1,8.2 -8,12.7 -16.4,12.6 z"
         id="path106"
         inkscape:connector-curvature="0" /><path
         d="m 184.5,201.79997 c 0.7,2.3 1.4,4.6 2.1,6.8 0.2,0 0.4,0 0.5,0 0.9,-3.6 1.9,-7.1 2.8,-10.7 0.1,0 0.2,0 0.4,0 0.7,2.3 1.3,4.5 2,6.8 0.1,0 0.3,0 0.4,0 0.8,-3.4 1.7,-6.9 2.5,-10.3 0.1,0 0.3,0 0.4,-0.1 0.6,2.1 1.3,4.2 2.1,6.8 2.5,-3.3 2.3,-6.8 2.8,-10.4 2.9,0 5.9,0 8.9,0.1 0.4,0 1,0.7 1.2,1.2 1.2,3.6 2.4,7.2 3.6,11.2 -2.4,2.1 -5.4,4.5 -8.2,7 -7.5,6.7 -15.1,13.4 -22.5,20.2 -1.6,1.5 -2.9,1.8 -4.9,0.8 -1.9,-1 -3.8,-1.7 -5.8,-2.4 -1.2,-0.4 -1.5,-1 -1.5,-2.2 -0.1,-11.2 -0.2,-22.4 -0.3,-33.5 0,-0.7 0.2,-1.3 0.6,-2 1.3,5.9 0.8,12 2.9,17.7 0.2,0 0.4,0 0.7,0 0.6,-4.4 1.1,-8.8 1.7,-13.2 0.2,0 0.4,0 0.7,0 0.2,1.1 0.6,2.1 0.7,3.2 0.3,2.9 0.5,5.7 0.9,8.6 0.1,0.5 0.7,1.4 1.1,1.4 0.6,0 1.5,-0.5 1.7,-1 0.6,-1.3 0.9,-2.8 1.3,-4.2 0.2,-0.6 0.5,-1.2 0.8,-1.8 0,-0.1 0.2,0 0.4,0 z"
         id="path108"
         inkscape:connector-curvature="0" /><path
         d="m 158.3,191.29997 c 0.6,2.8 -0.1,5.7 1.3,8.2 1.3,-2.6 0.8,-5.4 1.3,-8.3 2.4,0 4.9,0 7.7,0 0,3 0,6 0,8.9 0.1,9.2 0.2,18.4 0.3,27.6 0,2.6 -0.5,2.8 -3.1,2.7 -4.8,-0.2 -9.7,0 -14.5,0 -2.4,0 -4.7,0 -7.3,0 0,-1.5 0,-2.9 0,-4.3 0,-4.1 0,-8.2 -0.1,-12.3 0,-3.3 0.6,-6.6 2.3,-9.4 2.2,-3.6 2.7,-7.5 2.8,-11.6 0,-0.5 0.1,-1 0.1,-1.7 3,0.2 6,0.2 9.2,0.2 z"
         id="path110"
         inkscape:connector-curvature="0" /><path
         d="m 203,287.79997 c 7.8,0 15.4,0 23.2,0 0,11.7 0,23.5 0,35.5 -7.7,0 -15.4,0 -23.2,0 0,-11.7 0,-23.4 0,-35.5 z"
         id="path112"
         inkscape:connector-curvature="0" /><path
         d="m 398.1,222.09997 c 0,-4.6 0,-9.1 0,-13.6 -0.1,-5 -0.2,-10 -0.4,-14.9 -0.1,-2.2 0.7,-3.6 2.7,-4.5 2.1,-0.9 4.1,-2 6.3,-3.2 0.3,4.7 0.6,9.1 0.9,13.5 0.3,0 0.6,0 0.9,0 0.2,-0.9 0.5,-1.8 0.6,-2.8 0.3,-3.8 0.4,-7.5 0.7,-11.3 0.1,-0.7 0.7,-1.7 1.3,-2 2.2,-1.1 4.5,-1.9 7.1,-3 0.2,2.9 0.4,5.2 0.6,7.4 0.3,3.6 0.5,7.3 0.9,10.9 0.1,1.4 0.4,2.8 1.1,4 2.4,4.4 3.2,9.1 2.9,14 -0.1,1.8 0,3.5 0,5.5 -8.5,0 -16.9,0 -25.6,0 z"
         id="path114"
         inkscape:connector-curvature="0" /><path
         d="m 397.3,254.29997 c 0,-7.9 0,-15.6 0,-23.7 8.7,0 17.3,0 26.1,0 0,7.7 0,15.6 0,23.7 -8.6,0 -17.2,0 -26.1,0 z"
         id="path116"
         inkscape:connector-curvature="0" /><path
         d="m 203.7,215.59997 c 0.5,2.5 1.5,5 1.6,7.5 0.2,9.3 0.1,18.6 0,27.9 0,2.2 -0.6,4.5 -1,7 -5.5,-3.7 -10.7,-7.1 -15.8,-10.5 -1.4,-0.9 -2.7,-2 -4.2,-2.7 -2,-1 -2.3,-2.5 -2.5,-4.7 -0.3,-3.8 1,-6.5 4,-9 5.9,-5 11.5,-10.3 17.2,-15.5 0.2,0 0.5,0 0.7,0 z"
         id="path118"
         inkscape:connector-curvature="0" /><path
         d="m 169.8,340.19997 c -4.5,-4.2 -8.7,-8.1 -12.9,-12.1 -4.4,-4.2 -8.7,-8.5 -13,-12.6 -0.6,-0.5 -1.3,-1 -2.1,-1.2 -1.3,-0.3 -2,-1 -1.6,-2.2 0.5,-1.4 1.1,-3 2.1,-4.1 1.1,-1.3 1.8,-2.5 1.8,-4.2 -0.1,-3.7 0,-7.4 0,-11 0.2,-0.1 0.4,-0.1 0.6,-0.2 2.3,2.7 4.6,5.4 6.8,8.1 5,5.9 9.6,12.1 15,17.6 2.7,2.8 3.5,5.6 3.4,9.1 -0.2,4.1 -0.1,8.2 -0.1,12.8 z"
         id="path120"
         inkscape:connector-curvature="0" /><path
         d="m 377,256.69997 c 0,9.7 0,19.2 0,28.7 -6.1,0.9 -12,0.6 -17.1,-3.3 -0.8,-0.6 -1.5,-1.8 -1.5,-2.8 -0.1,-3 0.2,-6 0.2,-9 0,-2.3 -0.4,-4.5 -0.6,-6.8 -0.2,-1.5 0.5,-2.4 1.7,-3.3 3.4,-2.7 7.1,-4.1 11.5,-3.5 1.7,0.2 3.7,0 5.8,0 z"
         id="path122"
         inkscape:connector-curvature="0" /><path
         d="m 265.3,212.09997 c -5,-3.5 -9.9,-6.8 -14.7,-10.2 -0.3,-0.2 -0.4,-1.1 -0.3,-1.6 0.4,-1.7 0.9,-3.4 1.5,-5.1 1.2,-3.4 1.4,-6.7 0.2,-10.3 5.2,-2.4 10.3,-4.9 15.4,-7.3 0.7,1.3 1.6,2.5 2,3.8 0.6,1.9 1.3,3.9 1.4,5.8 0.2,4.1 0.1,8.3 0.2,12.4 0.1,2.5 -0.5,4.6 -1.9,6.6 -1.4,1.9 -2.5,3.9 -3.8,5.9 z"
         id="path124"
         inkscape:connector-curvature="0" /><path
         d="m 306.8,116.49997 c 2.1,0 4,0 6.1,0 0.9,6.2 0.7,12.6 1.8,18.8 0.3,0 0.6,0 1,0 0.8,-6.2 0.6,-12.4 1.3,-18.8 2.3,0 4.7,0 7.2,0 0.4,3.9 0.7,7.9 1.1,11.9 0.3,2.7 0.9,5.4 1.3,8 0.1,0.5 -0.3,1.4 -0.7,1.6 -4,2 -8,3.8 -12,5.8 -1.3,0.6 -2.1,0.4 -3.3,-0.2 -2.8,-1.3 -3.9,-3.1 -3.8,-6.3 0.2,-6.9 0,-13.7 0,-20.8 z"
         id="path126"
         inkscape:connector-curvature="0" /><path
         d="m 227,393.39997 c -6.3,-5.8 -12.3,-11.4 -18.3,-17 -0.4,-0.3 -0.5,-1 -0.6,-1.5 -0.1,-3.2 -0.2,-6.4 -0.1,-9.6 0,-0.6 0.3,-1.5 0.8,-1.8 2.6,-1.7 5.3,-3.3 8.2,-5.1 0.1,1.7 0.1,3.2 0.2,4.7 1.1,0.1 2.1,0.1 3.3,0.2 0,1 0,1.9 0,3 -1.1,0.1 -2.1,0.2 -3.2,0.2 0,1.5 0,3 0,4.6 2.8,0 5.6,0 8.5,0 0,-4.3 0,-8.4 0,-12.9 -2.5,0 -5.1,0 -7.6,0 0,-0.2 -0.1,-0.4 -0.1,-0.5 2.8,-1.7 5.7,-3.4 8.9,-5.4 0,13.8 0,27.3 0,41.1 z"
         id="path128"
         inkscape:connector-curvature="0" /><path
         d="m 241,378.49997 c 0,-5.9 0,-11.5 0,-17.6 6.6,0 13.1,0 19.9,0 0,5.7 0,11.6 0,17.6 -6.6,0 -13.2,0 -19.9,0 z"
         id="path130"
         inkscape:connector-curvature="0" /><path
         d="m 398.4,340.39997 c 0,-2.1 0,-4.3 0,-6.4 0,-5.7 0,-11.5 -0.1,-17.2 0,-1 0.1,-1.7 1.4,-1.7 8,0 15.9,0 24.3,0 -8.5,8.7 -16.8,17.1 -25.1,25.5 -0.1,-0.1 -0.3,-0.2 -0.5,-0.2 z"
         id="path132"
         inkscape:connector-curvature="0" /><path
         d="m 172.3,330.59997 c 1.2,0 2,0 2.8,0 1.2,0.1 2.6,0 2.4,2 0,0.3 1,0.7 1.4,1.2 1.8,2.3 3.4,4.6 5.2,6.8 3.8,4.4 7.8,8.7 11.6,13.1 1.4,1.6 2.8,3.3 4.3,5.1 -2.9,1.4 -5.8,1.5 -8.7,1.3 -0.4,0 -0.8,-0.5 -1.2,-0.9 -5.6,-5.2 -11.1,-10.3 -16.6,-15.6 -0.7,-0.7 -1.2,-1.9 -1.2,-2.9 -0.1,-3.2 0,-6.5 0,-10.1 z"
         id="path134"
         inkscape:connector-curvature="0" /><path
         d="m 273.2,198.39997 c 3.9,0.2 7.3,0.4 10.7,0.7 0.4,0 1,1 1,1.6 0,1 0.5,2.4 -1.2,2.8 -0.6,0.1 -1.1,0.3 -1.6,0.9 0.6,-0.1 1.2,-0.3 2,-0.5 0.5,7.1 1.1,14.2 1.6,21.3 -0.3,0.1 -0.5,0.3 -0.8,0.4 -5.9,-4 -11.7,-8 -17.7,-12 2.4,-5 7.5,-8.7 6,-15.2 z"
         id="path136"
         inkscape:connector-curvature="0" /><path
         d="m 166.6,232.99997 c 0,3.1 0,5.9 0,8.8 0,0.4 -0.2,0.9 -0.5,1.2 -4.8,3.7 -9.7,7.4 -14.8,11.3 -1.8,-7.2 -3.6,-14.2 -5.4,-21.2 7,-0.1 13.7,-0.1 20.7,-0.1 z"
         id="path138"
         inkscape:connector-curvature="0" /><path
         d="m 366.3,161.59997 c -4,0 -7.7,0 -11.7,0 0.3,-4.7 -0.4,-9.6 1.1,-13.7 1.6,-4.4 0.8,-8.7 1.5,-13 0.3,-1.9 1.1,-2.8 2.9,-3.2 0.6,-0.1 1.1,-0.4 2,-0.7 0.5,4.6 1,9 1.6,13.4 0.1,0.9 0.7,1.7 1.1,2.6 0.2,0.5 0.7,1 0.7,1.5 0.3,4.2 0.5,8.6 0.8,13.1 z"
         id="path140"
         inkscape:connector-curvature="0" /><path
         d="m 356.6,280.69997 c -3.1,0 -6.2,0.1 -9.2,-0.1 -0.5,0 -1.3,-0.9 -1.3,-1.4 -0.1,-5.8 -0.1,-11.6 -0.1,-17.5 3.5,0 7,0 10.6,0 0,6.4 0,12.6 0,19 z"
         id="path142"
         inkscape:connector-curvature="0" /><path
         d="m 158.3,188.69997 c -3.1,0 -5.9,0 -9,0 0.4,-4.3 0.1,-8.6 1.2,-12.9 0.9,-3.3 1.1,-6.8 1.5,-10.2 0.3,-2.3 0.5,-4.6 0.8,-6.8 0.1,-0.6 0.5,-1.2 0.8,-1.8 0.3,0 0.5,0 0.8,0 0.3,2 0.6,3.9 0.8,5.9 0.3,3.6 0.5,7.1 0.9,10.7 0.1,1.2 0.8,2.3 1.2,3.4 0.1,0.4 0.4,0.7 0.4,1.1 0.2,3.5 0.4,7 0.6,10.6 z"
         id="path144"
         inkscape:connector-curvature="0" /><path
         d="m 272.2,378.49997 c -2.9,0 -5.7,0 -8.6,0 0,-5.9 0,-11.8 0,-17.8 2.8,0 5.6,0 8.6,0 0,5.9 0,11.8 0,17.8 z"
         id="path146"
         inkscape:connector-curvature="0" /><path
         d="m 313.2,158.49997 c 0.1,-0.2 0.3,-0.3 0.2,-0.3 -0.8,-2.8 1.1,-3.5 3.2,-4.4 3,-1.3 5.8,-3 8.7,-4.5 0.5,-0.3 1.1,-0.5 1.8,-0.9 0,4.6 0,9 0,13.5 -5,0 -9.9,0 -15,0 0,-2.1 0,-4.2 0,-6.3 0.2,0 0.3,-0.1 0.5,-0.1 0.2,1 0.4,2 0.6,3 z"
         id="path148"
         inkscape:connector-curvature="0" /><path
         d="m 200.3,171.19997 c 3.5,2.4 6.8,4.6 10.1,6.9 0.5,0.3 0.7,1 1,1.6 0,0 0.3,-0.2 0.6,-0.3 0.1,0.3 0.2,0.5 0.2,0.6 -0.6,2.5 -1.2,5.1 -1.9,7.6 -0.1,0.4 -0.7,0.8 -1,0.9 -2.9,0.1 -5.8,0 -9,0 0,-5.8 0,-11.4 0,-17.3 z"
         id="path150"
         inkscape:connector-curvature="0" /><path
         d="m 238.4,403.69997 c -1.6,-0.9 -2.2,-2.1 -2.2,-4 -0.1,-16.6 -0.3,-33.3 -0.4,-49.9 0,-1.7 0,-3.4 2.7,-3.6 -0.1,19.1 -0.1,38.3 -0.1,57.5 z"
         id="path152"
         inkscape:connector-curvature="0" /><path
         d="m 169,238.09997 c 0,-1.4 -0.1,-2.8 0,-4.2 0.2,-2.3 1.9,-3.3 4.1,-2.5 1.8,0.7 3.6,1.4 5.2,2.3 0.6,0.3 1,1.3 1.3,2 0.2,0.4 0,0.9 0,1.3 -0.2,6.6 0.8,5.3 -5.6,9 -2.4,1.4 -4.4,0.3 -4.8,-2.5 -0.2,-1.8 -0.2,-3.6 -0.2,-5.4 -0.1,0 -0.1,0 0,0 z"
         id="path154"
         inkscape:connector-curvature="0" /><path
         d="m 166.5,157.99997 c 0.8,10.1 1.6,20.3 2.5,30.7 -3,0 -5.4,0 -8.3,0 0.5,-2.9 0.4,-6 1.5,-8.5 1.8,-4 2.3,-8 2.4,-12.2 0.1,-2.7 0.2,-5.4 0.4,-8 0,-0.6 0.3,-1.3 0.5,-1.9 0.4,-0.2 0.7,-0.1 1,-0.1 z"
         id="path156"
         inkscape:connector-curvature="0" /><path
         d="m 406.6,183.09997 c -3,1.6 -5.8,3.1 -8.6,4.6 -0.3,-0.2 -0.5,-0.4 -0.5,-0.5 -0.2,-3.4 -0.7,-6.8 1.2,-10 1,-1.7 1.4,-3.8 1.6,-5.7 0.4,-3.9 0.5,-7.7 0.8,-11.6 0.1,-0.7 0.3,-1.4 0.5,-2.1 0.2,0 0.4,0 0.6,-0.1 0.2,0.7 0.5,1.3 0.6,2 0.3,3.9 0.4,7.8 0.8,11.6 0.3,2.4 1,4.8 1.6,7.2 0.3,1.5 0.9,3 1.4,4.6 z"
         id="path158"
         inkscape:connector-curvature="0" /><path
         d="m 231.9,349.99997 c 0,15.9 0,31.8 0,47.7 -1.3,-0.8 -2.3,-1.6 -2.3,-3.4 0,-13.8 -0.1,-27.7 -0.2,-41.5 0,-1.7 0.4,-2.8 2.5,-2.8 z"
         id="path160"
         inkscape:connector-curvature="0" /><path
         d="m 208.6,126.49997 c 1.8,5.4 2.6,10.8 2.3,16.4 -0.1,1.2 0.7,2.4 1.1,3.7 0.2,0.6 0.6,1.2 0.6,1.7 0.2,5.5 0.4,11 0.6,16.4 0,0.2 -0.1,0.3 -0.1,0.5 -2.6,-0.9 -4.2,-3.1 -4.3,-6.3 -0.1,-2 0,-4.1 0,-6.1 0,-8.1 -0.1,-16.2 -0.1,-24.3 -0.1,-0.6 -0.1,-1.3 -0.1,-2 z"
         id="path162"
         inkscape:connector-curvature="0" /><path
         d="m 225.5,358.79997 c 0,4.1 0,8 0,12.1 -2.6,0 -5.1,0 -7.8,0 0,-1.3 0,-2.5 0,-3.9 1.1,-0.1 2.1,-0.2 3.2,-0.3 0,-1.3 0,-2.4 0,-3.7 -1,-0.1 -2.1,-0.1 -3.2,-0.2 0,-1.3 0,-2.6 0,-4 2.5,0 5.1,0 7.8,0 z"
         id="path164"
         inkscape:connector-curvature="0" /><path
         d="m 206.3,132.79997 c 0,9.1 0,18.3 0,27.5 -1.3,-0.7 -2.6,-1.4 -3.9,-2.2 -0.3,-0.2 -0.5,-0.7 -0.5,-1.1 0,-2.2 0.2,-4.4 0.3,-6.6 0.1,-1.5 0.1,-2.8 1.4,-4.1 0.8,-0.8 0.7,-2.6 0.9,-4 0.5,-3.1 0.9,-6.3 1.3,-9.5 0.1,0 0.3,0 0.5,0 z"
         id="path166"
         inkscape:connector-curvature="0" /><path
         d="m 312.3,114.09997 c -1.9,0 -3.7,0 -5.8,0 0,-3.4 -0.6,-6.9 0.2,-10 0.6,-2.1 0.8,-4.099999 1.1,-6.099999 0.1,-0.5 0.8,-0.8 1.2,-1.2 0.2,0.1 0.4,0.2 0.6,0.3 0,0.9 -0.1,1.8 0,2.6 0.2,1.199999 0.5,2.399999 0.7,3.599999 0.2,1.1 0.6,2.2 0.8,3.3 0.4,2.4 0.8,4.9 1.2,7.5 z"
         id="path168"
         inkscape:connector-curvature="0" /><path
         d="m 144,259.49997 c 0,-7.9 0,-15.5 0,-23.2 0.1,0 0.2,0 0.3,-0.1 1.2,4.6 2.3,9.2 3.5,13.7 0.1,0.3 0.2,0.6 0.2,0.9 1.5,5.5 1.4,5.7 -4,8.7 z"
         id="path170"
         inkscape:connector-curvature="0" /><path
         d="m 319.4,96.999971 c 0.9,0 1.5,0 2.2,0 1.2,5.399999 -0.4,11.199999 2.3,16.699999 -2.3,0 -4.5,0 -6.6,0 0,-0.2 -0.1,-0.4 -0.1,-0.4 2.4,-2.7 1.5,-6.1 1.9,-9.2 0.2,-2.3 0.2,-4.599999 0.3,-7.099999 z"
         id="path172"
         inkscape:connector-curvature="0" /><path
         d="m 272,169.99997 c 0.4,-0.5 0.7,-1.2 1.3,-1.4 10.3,-5.1 20.7,-10.2 31,-15.3 0.1,0.1 0.3,0.2 0.4,0.3 -0.3,0.5 -0.6,1.3 -1,1.5 -10.4,5.2 -20.7,10.3 -31.1,15.4 -0.2,-0.1 -0.4,-0.3 -0.6,-0.5 z"
         id="path174"
         inkscape:connector-curvature="0" /><path
         d="m 306.9,152.79997 c 0.3,-0.5 0.6,-1.1 1,-1.3 6.3,-3.2 12.7,-6.3 19.1,-9.4 0.1,0.1 0.3,0.2 0.4,0.4 -0.3,0.5 -0.4,1.3 -0.9,1.5 -6.4,3.2 -12.8,6.3 -19.2,9.4 -0.1,-0.3 -0.3,-0.4 -0.4,-0.6 z"
         id="path176"
         inkscape:connector-curvature="0" /><path
         d="m 214.2,175.99997 c -1.4,-1 -2.7,-2 -4.1,-3 -2.4,-1.8 -4.8,-3.5 -7.2,-5.3 -0.9,-0.7 -1.8,-1.5 -1.2,-2.8 4.4,2 11.8,8.2 12.5,11.1 z"
         id="path178"
         inkscape:connector-curvature="0" /><path
         d="m 200,368.39997 c 1.9,-1 3.6,-1.9 5.5,-3 0.1,1.2 0.1,2 0.1,3 -0.8,0.1 -1.4,0.3 -2.5,0.5 1,0.2 1.6,0.3 2.3,0.4 0,1.3 0,2.5 0,4.2 -1.8,-1.8 -3.4,-3.3 -5.4,-5.1 z"
         id="path180"
         inkscape:connector-curvature="0" /><path
         d="m 172.4,327.99997 c 0,-1.4 0,-2.8 0,-4.5 1.6,0.7 3,1.3 4.4,1.8 -0.4,3.3 -0.7,3.5 -4.4,2.7 z"
         id="path182"
         inkscape:connector-curvature="0" /><path
         d="m 265.4,172.39997 c -0.4,1.9 -7.2,5.7 -10.3,6.2 0.2,-0.5 0.2,-1 0.5,-1.1 3.1,-1.8 6.3,-3.3 9.8,-5.1 z"
         id="path184"
         inkscape:connector-curvature="0" /><path
         d="m 270.8,169.69997 c 0,1.2 0,2.5 0,3.7 -0.1,0 -0.2,0.1 -0.3,0.1 -0.2,-0.6 -0.3,-1.2 -0.5,-2 -0.4,0.8 -0.7,1.5 -1.2,2.5 -0.5,-0.8 -0.9,-1.3 -1.3,-1.9 -0.2,0.5 -0.3,0.9 -0.6,2 -0.2,-0.6 -0.3,-0.8 -0.3,-0.9 0,-0.8 -0.1,-1.7 0,-2.5 0,-0.4 0.3,-0.8 0.5,-1.2 0.3,0.3 0.7,0.6 1,1 0.2,0.4 0.3,0.8 0.5,1.4 0.6,-1 1.1,-1.8 1.6,-2.6 0.2,0.2 0.4,0.3 0.6,0.4 z"
         id="path186"
         inkscape:connector-curvature="0" /><path
         d="m 309.4,162.19997 c -0.2,0 -0.5,0.1 -0.7,0.1 -0.4,0 -0.7,0 -1.1,-0.1 -0.9,-3 -0.5,-4.2 1.8,-5.5 0,1.9 0,3.7 0,5.5 z"
         id="path188"
         inkscape:connector-curvature="0" /><path
         d="m 201.9,162.39997 c 4.1,3 8.2,5.9 12.3,8.9 -0.1,0.2 -0.3,0.4 -0.4,0.5 -4.1,-3 -8.3,-5.9 -12.4,-8.9 0.2,-0.1 0.4,-0.3 0.5,-0.5 z"
         id="path190"
         inkscape:connector-curvature="0" /><path
         d="m 274,196.69997 c 0,-1.5 -0.1,-2.1 0,-2.8 0.1,-0.5 0.2,-1.4 0.5,-1.4 0.7,-0.1 1.4,0 2.1,0.3 0.2,0.1 0.3,1.1 0,1.5 -0.7,0.8 -1.6,1.5 -2.6,2.4 z"
         id="path192"
         inkscape:connector-curvature="0" /><path
         d="m 221.7,269.29997 c 1.3,-0.8 2.3,-1.3 3.4,-2 0,1.6 0,2.9 0,4.5 -1.2,-0.9 -2.1,-1.6 -3.4,-2.5 z"
         id="path194"
         inkscape:connector-curvature="0" /><path
         d="m 306.8,144.09997 c 1.1,0.7 1.9,1.2 3.1,1.9 -1.1,0.5 -1.8,0.9 -2.9,1.5 0,-1.2 -0.1,-2.1 -0.2,-3.4 z"
         id="path196"
         inkscape:connector-curvature="0" /><path
         d="m 171.3,182.09997 c 0.1,2 0.3,4.1 0.4,6.1 -0.2,0 -0.4,0 -0.6,0.1 0,-2 0,-4.1 0,-6.1 0.1,-0.1 0.1,-0.1 0.2,-0.1 z"
         id="path198"
         inkscape:connector-curvature="0" /><path
         d="m 361,125.19997 c 0.5,2.3 -1.5,1.9 -2.3,2.8 -0.5,-2.1 1.1,-2.1 2.3,-2.8 z"
         id="path200"
         inkscape:connector-curvature="0" /><path
         d="m 253.7,178.99997 c -0.5,0.4 -1,1 -1.6,1.3 -0.5,0.2 -1.1,0.2 -1.7,0.3 0,-0.2 -0.1,-0.5 -0.1,-0.7 1,-0.5 2,-0.9 3,-1.4 0.1,0.1 0.3,0.3 0.4,0.5 z"
         id="path202"
         inkscape:connector-curvature="0" /><path
         d="m 283.1,315.99997 c 0.6,-1.6 1.6,-1.7 3.3,-0.6 -1.2,0.5 -2.1,0.9 -3,1.3 -0.2,-0.2 -0.3,-0.4 -0.3,-0.7 z"
         id="path204"
         inkscape:connector-curvature="0" /><path
         inkscape:connector-curvature="0"
         d="m 321.8,94.299971 -2.4,0.2 c 0.21166,-1.338 0.45663,-2.01458 0.8,-3.3 0.0729,0.0196 0.7271,-0.0195 0.8,0 0.38264,1.39569 0.50017,1.85444 0.8,3.1 z"
         id="path168-6"
         style="stroke-width:0.2671262"
         sodipodi:nodetypes="ccccc" /><path
         inkscape:connector-curvature="0"
         d="m 415.75262,176.70267 c -1.92798,1.9915 -3.99464,3.75164 -5.75262,4.1973 -0.15767,-2.70258 0.20064,-5.92953 1.69852,-8.47312 0.50965,-1.48928 0.41144,-3.24456 0.56911,-4.75484 0.12426,-3.05506 0.46594,-5.95317 0.98849,-8.99655 0.0788,-0.55642 0.0862,-1.11908 0.24388,-1.67549 0.15767,0 0.80007,0.006 0.95774,-0.0732 1.18502,3.85508 1.48039,7.56406 1.71684,10.75514 0.2365,1.9077 0.42603,3.9258 0.64822,5.77831 0.2365,1.19232 -0.29381,2.21904 -1.07018,3.24248 z"
         id="path158-7"
         style="stroke-width:0.79160798"
         sodipodi:nodetypes="cccccccccc" /><path
         class="st0"
         d="m 290.06756,550.30363 c -1.87698,-2.20821 -3.75396,-4.63725 -5.96218,-6.73505 -11.59312,-11.3723 -23.29665,-22.52378 -34.88977,-33.89608 -8.94327,-8.61204 -17.77613,-17.33448 -26.71939,-25.94652 -14.24298,-13.80133 -28.59637,-27.60267 -42.83935,-41.51442 -19.98433,-19.6531 -40.07908,-39.3062 -59.84259,-59.29054 -16.23038,-16.45119 -29.369247,-35.22101 -39.858257,-55.86781 -10.37861,-20.6468 -17.77612,-42.17688 -21.530083,-64.92148 -1.656161,-9.82655 -2.649857,-19.87393 -3.20191,-29.81089 -0.552054,-9.60573 -0.662464,-19.32187 0.11041,-28.9276 0.772875,-9.60573 2.318625,-19.32187 4.306017,-28.81719 8.170386,-39.85826 25.725686,-75.189685 52.555483,-105.663035 33.56485,-38.091687 75.07927,-62.9340969 124.65367,-74.0855669 21.41967,-4.8580801 43.17058,-6.5142401 65.14231,-4.9684901 50.89932,3.5331501 96.0573,21.41968 135.03227,54.43247 39.30621,33.233617 64.81108,75.189682 76.62502,125.316142 5.1893,22.19255 6.84546,44.71633 5.41012,67.35052 -3.0915,45.82044 -18.43858,87.00362 -45.71002,123.88079 -7.39752,9.93697 -15.67832,18.99064 -24.40076,27.8235 -21.97173,22.30296 -43.83305,44.71633 -65.69437,67.1297 -10.82024,11.04107 -21.7509,22.19255 -32.57115,33.23362 -17.66571,18.10735 -35.33142,36.2147 -53.10754,54.32206 -2.42904,2.31862 -4.96848,4.52683 -7.50793,6.95587 z m -0.11041,-31.13581 c 0.66246,-0.66247 1.21452,-1.21452 1.76657,-1.76658 9.60573,-9.82655 19.21146,-19.6531 28.81719,-29.59006 15.34709,-15.67832 30.80458,-31.46705 46.15167,-47.14537 22.52378,-22.96542 45.04756,-45.93084 67.57134,-68.78586 14.90545,-15.12626 27.16103,-32.12951 36.87717,-51.00974 13.80134,-26.9402 21.19886,-55.53657 22.41337,-85.7891 0.9937,-24.29035 -2.20821,-48.13906 -9.71614,-71.2149 C 469.26411,119.3707 442.65514,83.708045 404.23222,56.988655 373.97969,36.010628 340.41484,24.307098 303.75849,21.326008 c -21.19886,-1.76657 -42.06648,-0.33123 -62.71328,4.63725 -48.80152,11.59312 -88.43896,37.318807 -118.58108,77.287482 -26.388147,34.88978 -40.079077,74.41681 -41.293597,118.24985 0,0.9937 -0.11041,1.9874 -0.11041,2.98109 -0.22082,12.58682 0.66247,25.06323 2.87068,37.42923 3.53314,20.42597 9.93696,39.96867 19.321867,58.51766 9.16409,17.99694 20.42598,34.66896 34.66896,48.91194 24.51117,24.62158 49.46399,48.91193 74.19598,73.20229 16.89284,16.5616 34.0065,33.01279 50.89933,49.5744 8.05998,7.83916 16.00955,15.78872 24.06953,23.73829 0.88329,0.9937 1.76657,2.09781 2.87068,3.31233 z"
         id="path70-3"
         inkscape:connector-curvature="0"
         style="fill:#009246;fill-opacity:1;stroke-width:1.1041069" /></g></g></svg>